<?xml version="1.0" encoding="utf-8"?>
<!-- Generator: Adobe Illustrator 22.0.0, SVG Export Plug-In . SVG Version: 6.00 Build 0)  -->
<svg version="1.1" id="Layer_1" xmlns="http://www.w3.org/2000/svg" xmlns:xlink="http://www.w3.org/1999/xlink" x="0px" y="0px"
	 viewBox="0 0 750 1334" style="enable-background:new 0 0 750 1334;" xml:space="preserve">
<style type="text/css">
	.st0{fill:#FFFFFF;}
</style>
<g>
	<path class="st0" d="M350.7,656.9c-1,1.2-2.4,2-4.2,2.1v-1.4c2.6-0.2,3.9-1.6,4.6-3.5h1.4v24.9h-1.8V656.9z"/>
	<path class="st0" d="M366.2,655.6h-9.9V654H368v1.5l-7.6,23.4h-1.8L366.2,655.6z"/>
	<path class="st0" d="M370.8,660.2c0-3.7,1.8-6.3,5.9-6.3c4.1,0,5.9,2.6,5.9,6.3v12.7c0,3.6-1.8,6.3-5.9,6.3c-4.1,0-5.9-2.7-5.9-6.3
		V660.2z M372.6,672.9c0,2.7,1.2,4.7,4.1,4.7s4.1-2,4.1-4.7V660c0-2.7-1.2-4.7-4.1-4.7s-4.1,2-4.1,4.7V672.9z"/>
</g>
<g>
</g>
<g>
</g>
<g>
</g>
<g>
</g>
<g>
</g>
<g>
</g>
<g>
</g>
<g>
</g>
<g>
</g>
<g>
</g>
<g>
</g>
</svg>
