<?xml version="1.0" encoding="utf-8"?>
<!-- Generator: Adobe Illustrator 22.0.0, SVG Export Plug-In . SVG Version: 6.00 Build 0)  -->
<svg version="1.1" id="Layer_1" xmlns="http://www.w3.org/2000/svg" xmlns:xlink="http://www.w3.org/1999/xlink" x="0px" y="0px"
	 viewBox="0 0 750 1334" style="enable-background:new 0 0 750 1334;" xml:space="preserve">
<style type="text/css">
	.st0{fill:url(#SVGID_1_);}
	.st1{fill:#FFFFFF;}
</style>
<g>
	<g>
		<linearGradient id="SVGID_1_" gradientUnits="userSpaceOnUse" x1="375.1407" y1="709.1405" x2="375.1407" y2="623.1405">
			<stop  offset="0" style="stop-color:#BF254F"/>
			<stop  offset="1" style="stop-color:#D12952"/>
		</linearGradient>
		<circle class="st0" cx="375.1" cy="666.1" r="43"/>
		<g>
			<path class="st1" d="M375.1,710.1c-24.3,0-44-19.7-44-44s19.7-44,44-44s44,19.7,44,44S399.4,710.1,375.1,710.1z M375.1,624.1
				c-23.2,0-42,18.8-42,42s18.8,42,42,42s42-18.8,42-42S398.3,624.1,375.1,624.1z"/>
		</g>
	</g>
	<g>
		<g>
			<path class="st1" d="M386.6,650.8h-1.3v-3.6c0-2-1.7-2.6-2.6-2.6h-11.3c-4.2,0-4.5,3.4-4.5,3.5v4.1l-3.1,1.2h18.5L386.6,650.8z
				 M371,645.5C371,645.5,371,645.5,371,645.5C370.9,645.5,370.9,645.5,371,645.5C370.9,645.5,370.9,645.5,371,645.5z M370.4,650.9
				v-2.7c0-0.1,0.2-2.7,3.7-2.7c2,0,4.3,0,6,0c0.1,0,1.8,0,1.8,1.7l0,0l0,0c0,1.1,0,2.5,0,3.6h-11L370.4,650.9z"/>
			<path class="st1" d="M385,687.1l5.9-5.6l-2.2-30.5l-5.3,3.4L385,687.1z M385.5,663.5c0.2-0.2,0.5,0.4,0.5,1.3
				c0.1,0.9-0.1,1.8-0.3,2c-0.2,0.2-0.5-0.4-0.5-1.4C385.1,664.6,385.3,663.7,385.5,663.5z M385.8,668.1c0.2-0.2,0.5,0.4,0.5,1.4
				c0.1,1-0.1,1.9-0.3,2.1c-0.2,0.2-0.5-0.4-0.5-1.4C385.4,669.2,385.5,668.3,385.8,668.1z M386,672.9c0.2-0.2,0.5,0.4,0.6,1.4
				c0.1,1-0.1,2-0.3,2.2c-0.3,0.2-0.5-0.4-0.6-1.4C385.6,674.1,385.8,673.1,386,672.9z M387,665.8c-0.2,0.2-0.5-0.4-0.5-1.3
				c-0.1-0.9,0.1-1.8,0.3-2c0.2-0.2,0.5,0.4,0.5,1.3C387.4,664.8,387.2,665.6,387,665.8z M387.6,668.4c0.1,0.9-0.1,1.9-0.3,2.1
				c-0.2,0.2-0.5-0.4-0.5-1.4c-0.1-0.9,0.1-1.9,0.3-2C387.3,666.9,387.6,667.5,387.6,668.4z M386.5,681.7c-0.3,0.2-0.5-0.4-0.6-1.5
				c-0.1-1,0.1-2.1,0.4-2.3c0.3-0.2,0.5,0.4,0.6,1.5C386.9,680.4,386.8,681.4,386.5,681.7z M387.4,671.8c0.2-0.2,0.5,0.4,0.5,1.4
				c0.1,1-0.1,2-0.3,2.2c-0.2,0.2-0.5-0.4-0.6-1.4C387,673,387.1,672,387.4,671.8z M387.9,680.4c-0.2,0.2-0.5-0.4-0.6-1.5
				c-0.1-1,0.1-2,0.3-2.2c0.2-0.2,0.5,0.4,0.6,1.4C388.3,679.2,388.2,680.2,387.9,680.4z M389.3,679.2c-0.2,0.2-0.5-0.4-0.6-1.4
				c-0.1-1,0.1-2,0.3-2.2c0.2-0.2,0.5,0.4,0.6,1.4C389.7,677.9,389.5,678.9,389.3,679.2z M388.9,674.2c-0.2,0.2-0.5-0.4-0.6-1.4
				c-0.1-1,0.1-1.9,0.3-2.1c0.2-0.2,0.5,0.4,0.5,1.4C389.3,673,389.2,674,388.9,674.2z M388.6,669.4c-0.2,0.2-0.5-0.4-0.5-1.4
				c-0.1-0.9,0.1-1.8,0.3-2c0.2-0.2,0.5,0.4,0.5,1.3C389,668.3,388.9,669.2,388.6,669.4z M388.3,664.8c-0.2,0.2-0.5-0.4-0.5-1.3
				c-0.1-0.9,0.1-1.8,0.3-1.9c0.2-0.2,0.5,0.4,0.5,1.3C388.7,663.8,388.5,664.7,388.3,664.8z M388,660.4c-0.2,0.2-0.5-0.4-0.5-1.3
				c-0.1-0.9,0.1-1.7,0.3-1.8c0.2-0.2,0.5,0.4,0.5,1.3C388.4,659.4,388.2,660.2,388,660.4z M387.5,653.1c0.2-0.1,0.4,0.4,0.5,1.2
				c0.1,0.8-0.1,1.6-0.3,1.8c-0.2,0.2-0.5-0.4-0.5-1.2C387.1,654.1,387.3,653.3,387.5,653.1z M386.7,661.3c-0.2,0.2-0.5-0.4-0.5-1.3
				c-0.1-0.9,0.1-1.7,0.3-1.9c0.2-0.2,0.5,0.4,0.5,1.3C387.1,660.3,387,661.2,386.7,661.3z M386.3,653.9c0.2-0.1,0.5,0.4,0.5,1.2
				c0.1,0.8-0.1,1.7-0.3,1.8c-0.2,0.2-0.5-0.4-0.5-1.3C385.9,654.9,386,654.1,386.3,653.9z M385.4,662.3c-0.2,0.2-0.5-0.4-0.5-1.3
				c0-0.9,0.1-1.7,0.3-1.9c0.2-0.2,0.5,0.4,0.5,1.3C385.8,661.2,385.7,662.1,385.4,662.3z M385.5,656c0,0.9-0.1,1.7-0.3,1.8
				c-0.2,0.2-0.5-0.4-0.5-1.3c0-0.9,0.1-1.7,0.3-1.8C385.2,654.6,385.5,655.2,385.5,656z"/>
			<path class="st1" d="M381.5,655.2h-19.3l-2.8,32.5h23.7L381.5,655.2z M373.7,657.9c0.5,0,1,0.7,1,1.6c0,0.9-0.4,1.7-1,1.7
				s-1-0.8-1-1.7C372.8,658.6,373.2,657.9,373.7,657.9z M373.7,662.4c0.5,0,1,0.8,1,1.7c0,1-0.4,1.8-1,1.8c-0.6,0-1-0.8-1-1.8
				C372.7,663.2,373.2,662.4,373.7,662.4z M373.7,667.3c0.6,0,1,0.8,1,1.9c0,1-0.5,1.9-1,1.9c-0.6,0-1-0.9-1-1.9
				C372.7,668.2,373.1,667.3,373.7,667.3z M373.7,672.6c0.6,0,1.1,0.9,1.1,2c0,1.1-0.5,2-1.1,2c-0.6,0-1.1-0.9-1.1-2
				C372.6,673.4,373.1,672.6,373.7,672.6z M365.1,682.5c-0.6,0-1.1-1-1-2.2c0.1-1.2,0.6-2.1,1.2-2.1c0.6,0,1,0.9,1,2.1
				C366.3,681.5,365.7,682.5,365.1,682.5z M365.4,676.6c-0.6,0-1-0.9-1-2c0.1-1.1,0.6-2,1.2-2c0.6,0,1,0.9,1,2
				C366.6,675.7,366,676.6,365.4,676.6z M365.7,671.1c-0.6,0-1-0.9-0.9-1.9c0.1-1,0.6-1.9,1.1-1.9c0.6,0,1,0.8,0.9,1.9
				C366.8,670.2,366.3,671.1,365.7,671.1z M366,666c-0.6,0-1-0.8-0.9-1.8c0.1-1,0.5-1.7,1.1-1.7s0.9,0.8,0.9,1.7
				C367.1,665.2,366.6,666,366,666z M366.3,661.2c-0.5,0-0.9-0.8-0.9-1.7c0.1-0.9,0.5-1.6,1.1-1.6c0.5,0,0.9,0.7,0.9,1.6
				C367.3,660.4,366.8,661.2,366.3,661.2z M369.4,682.5c-0.6,0-1.1-1-1-2.2c0-1.2,0.6-2.1,1.2-2.1s1.1,0.9,1,2.1
				C370.5,681.5,370,682.5,369.4,682.5z M369.6,676.6c-0.6,0-1-0.9-1-2c0-1.1,0.5-2,1.1-2s1,0.9,1,2
				C370.7,675.7,370.1,676.6,369.6,676.6z M369.7,671.1c-0.6,0-1-0.9-1-1.9c0-1,0.5-1.9,1.1-1.9c0.6,0,1,0.8,1,1.9
				C370.8,670.2,370.3,671.1,369.7,671.1z M369.9,666c-0.6,0-1-0.8-0.9-1.8c0-1,0.5-1.7,1-1.7c0.5,0,1,0.8,0.9,1.7
				C370.9,665.2,370.4,666,369.9,666z M370,661.2c-0.5,0-0.9-0.8-0.9-1.7c0-0.9,0.5-1.6,1-1.6c0.5,0,0.9,0.7,0.9,1.6
				C371,660.4,370.5,661.2,370,661.2z M373.6,682.5c-0.6,0-1.1-1-1.1-2.2c0-1.2,0.5-2.1,1.1-2.1s1.1,0.9,1.1,2.1
				C374.8,681.5,374.3,682.5,373.6,682.5z M377.4,657.9c0.5,0,1,0.7,1,1.6c0,0.9-0.4,1.7-0.9,1.7c-0.5,0-1-0.8-1-1.7
				C376.4,658.6,376.8,657.9,377.4,657.9z M377.5,662.4c0.5,0,1,0.8,1,1.7c0,1-0.4,1.8-1,1.8c-0.6,0-1-0.8-1-1.8
				C376.5,663.2,376.9,662.4,377.5,662.4z M377.6,667.3c0.6,0,1,0.8,1.1,1.9c0,1-0.4,1.9-1,1.9c-0.6,0-1.1-0.9-1.1-1.9
				C376.6,668.2,377,667.3,377.6,667.3z M377.7,672.6c0.6,0,1.1,0.9,1.1,2c0,1.1-0.4,2-1,2c-0.6,0-1.1-0.9-1.1-2
				C376.6,673.4,377.1,672.6,377.7,672.6z M377.9,682.5c-0.6,0-1.1-1-1.1-2.2c0-1.2,0.5-2.1,1.1-2.1c0.6,0,1.1,0.9,1.1,2.1
				C379,681.5,378.5,682.5,377.9,682.5z"/>
		</g>
	</g>
</g>
<g>
</g>
<g>
</g>
<g>
</g>
<g>
</g>
<g>
</g>
<g>
</g>
<g>
</g>
<g>
</g>
<g>
</g>
<g>
</g>
<g>
</g>
</svg>
