<?xml version="1.0" encoding="utf-8"?>
<!-- Generator: Adobe Illustrator 22.0.0, SVG Export Plug-In . SVG Version: 6.00 Build 0)  -->
<svg version="1.1" id="Layer_1" xmlns="http://www.w3.org/2000/svg" xmlns:xlink="http://www.w3.org/1999/xlink" x="0px" y="0px"
	 viewBox="0 0 750 1334" style="enable-background:new 0 0 750 1334;" xml:space="preserve">
<style type="text/css">
	.st0{fill:url(#SVGID_1_);}
	.st1{fill:url(#SVGID_2_);}
	.st2{fill:url(#SVGID_3_);}
	.st3{fill:url(#SVGID_4_);}
	.st4{fill:url(#SVGID_5_);}
	.st5{fill:url(#SVGID_6_);}
	.st6{fill:url(#SVGID_7_);}
	.st7{fill:url(#SVGID_8_);}
	.st8{fill:url(#SVGID_9_);}
	.st9{fill:url(#SVGID_10_);}
</style>
<g>
	<linearGradient id="SVGID_1_" gradientUnits="userSpaceOnUse" x1="224.3943" y1="639.0234" x2="224.3943" y2="693.5488">
		<stop  offset="0" style="stop-color:#E7D04E"/>
		<stop  offset="0.3316" style="stop-color:#DEC757"/>
	</linearGradient>
	<path class="st0" d="M205.9,693.5V639h10.8l7.7,41.7l7.7-41.7h10.8v54.5h-7.8v-43l-7.8,43h-5.8l-7.8-43v43H205.9z"/>
	<linearGradient id="SVGID_2_" gradientUnits="userSpaceOnUse" x1="262.2759" y1="639.0234" x2="262.2759" y2="693.5488">
		<stop  offset="0" style="stop-color:#E7D04E"/>
		<stop  offset="0.3316" style="stop-color:#DEC757"/>
	</linearGradient>
	<path class="st1" d="M258.4,693.5V676l-11.7-37h7.8l7.8,27.3l7.8-27.3h7.8l-11.7,37v17.5H258.4z"/>
	<linearGradient id="SVGID_3_" gradientUnits="userSpaceOnUse" x1="294.8784" y1="638.4761" x2="294.8784" y2="694.0967">
		<stop  offset="0" style="stop-color:#E7D04E"/>
		<stop  offset="0.3316" style="stop-color:#DEC757"/>
	</linearGradient>
	<path class="st2" d="M295.9,694.1c-4.9,0-8.7-1.4-11.2-4.3c-2.6-2.9-4-6.8-4.3-11.8l7.8-1.9c0.4,7.8,3,11.7,7.8,11.7
		c3.9,0,5.8-1.9,5.8-5.8c0-1.2-0.2-2.2-0.5-3.2c-0.3-1-0.8-1.9-1.4-2.7c-0.6-0.8-1.2-1.5-1.8-2c-0.5-0.5-1.2-1.1-2.2-1.8l-9.7-7.8
		c-1.8-1.4-3.2-3.2-4.3-5.3c-1.1-2.2-1.6-4.6-1.6-7.4c0-4,1.2-7.2,3.7-9.6c2.5-2.4,5.8-3.6,9.9-3.6c4.4,0,7.9,1.1,10.5,3.2
		c2.6,2.2,4.2,5.2,4.8,9.2c0.1,0.4,0.1,1,0.2,1.8l-7.8,1.9c0-0.3-0.1-0.9-0.2-1.6c-0.3-2.5-1.1-4.5-2.3-5.9c-1.2-1.5-3-2.2-5.3-2.2
		c-1.9,0-3.3,0.5-4.3,1.6c-1,1-1.5,2.5-1.5,4.4c0,3.1,1.3,5.6,3.9,7.7l9.7,7.8c5.2,4.2,7.8,9.2,7.8,15.1c0,4-1.2,7.1-3.7,9.4
		C303.3,693,300,694.1,295.9,694.1z"/>
	<linearGradient id="SVGID_4_" gradientUnits="userSpaceOnUse" x1="324.895" y1="639.0234" x2="324.895" y2="693.5488">
		<stop  offset="0" style="stop-color:#E7D04E"/>
		<stop  offset="0.3316" style="stop-color:#DEC757"/>
	</linearGradient>
	<path class="st3" d="M321,693.5V646h-9.7V639h27.3v6.9h-9.7v47.6H321z"/>
	<linearGradient id="SVGID_5_" gradientUnits="userSpaceOnUse" x1="353.1006" y1="639.0234" x2="353.1006" y2="693.5488">
		<stop  offset="0" style="stop-color:#E7D04E"/>
		<stop  offset="0.3316" style="stop-color:#DEC757"/>
	</linearGradient>
	<path class="st4" d="M342.4,693.5V639h21.4v5.8h-13.6v17.5h9.7v5.8h-9.7v19.5h13.6v5.8H342.4z"/>
	<linearGradient id="SVGID_6_" gradientUnits="userSpaceOnUse" x1="383.1929" y1="639.0234" x2="383.1929" y2="693.5488">
		<stop  offset="0" style="stop-color:#E7D04E"/>
		<stop  offset="0.3316" style="stop-color:#DEC757"/>
	</linearGradient>
	<path class="st5" d="M368.6,693.5V639h9.7c5.8,0,10.2,1.1,13.1,3.4s4.4,6,4.4,11.2c0,3.2-0.6,6-1.7,8.2c-1.2,2.2-2.8,3.7-5.1,4.5
		l8.8,27.3h-7.7l-7.8-25.3h-5.8v25.3H368.6z M376.4,662.4h1.9c3.2,0,5.7-0.7,7.3-2.1c1.6-1.4,2.4-3.6,2.4-6.7s-0.8-5.3-2.4-6.7
		s-4.1-2.1-7.3-2.1h-1.9V662.4z"/>
	<linearGradient id="SVGID_7_" gradientUnits="userSpaceOnUse" x1="412.9507" y1="639.0234" x2="412.9507" y2="693.5488">
		<stop  offset="0" style="stop-color:#E7D04E"/>
		<stop  offset="0.3316" style="stop-color:#DEC757"/>
	</linearGradient>
	<path class="st6" d="M409.1,693.5V676l-11.7-37h7.8l7.8,27.3l7.8-27.3h7.8l-11.7,37v17.5H409.1z"/>
	<linearGradient id="SVGID_8_" gradientUnits="userSpaceOnUse" x1="459.5952" y1="639.0234" x2="459.5952" y2="693.5488">
		<stop  offset="0" style="stop-color:#E7D04E"/>
		<stop  offset="0.3316" style="stop-color:#DEC757"/>
	</linearGradient>
	<path class="st7" d="M445,693.5V639h11.7c2.5,0,4.8,0.3,6.8,0.8c2,0.5,3.7,1.3,5.2,2.4c1.5,1.1,2.6,2.5,3.4,4.3
		c0.8,1.8,1.2,3.8,1.2,6.2c0,3.4-0.7,6-2.2,7.8s-3.7,3.1-6.7,3.9c3.2,1.1,5.7,2.7,7.3,4.7c1.6,2.1,2.4,5,2.4,8.9
		c0,4.8-1.4,8.6-4.2,11.4s-6.6,4.2-11.4,4.2H445z M452.8,662.4h3.9c6.5,0,9.7-3.2,9.7-9.7c0-1.1-0.1-2-0.4-2.8
		c-0.3-0.8-0.6-1.5-0.9-2.1c-0.4-0.5-0.9-1-1.7-1.4c-0.7-0.4-1.4-0.7-2-0.9c-0.6-0.2-1.5-0.3-2.6-0.4s-2.1-0.1-2.8-0.2
		c-0.8,0-1.8,0-3.2,0V662.4z M452.8,687.7h3.9c3.4,0,5.8-0.8,7.4-2.3c1.6-1.6,2.3-4,2.3-7.4c0-3.4-0.8-5.9-2.3-7.4
		c-1.6-1.6-4-2.3-7.4-2.3h-3.9V687.7z"/>
	<linearGradient id="SVGID_9_" gradientUnits="userSpaceOnUse" x1="493.917" y1="638.4761" x2="493.917" y2="694.0967">
		<stop  offset="0" style="stop-color:#E7D04E"/>
		<stop  offset="0.3316" style="stop-color:#DEC757"/>
	</linearGradient>
	<path class="st8" d="M493.9,694.1c-2.7,0-5.1-0.4-7-1.2c-2-0.8-3.5-2-4.7-3.7c-1.2-1.6-2-3.5-2.5-5.6c-0.5-2.2-0.8-4.7-0.8-7.5
		v-19.8c0-2.9,0.3-5.4,0.8-7.5s1.4-4,2.5-5.6s2.7-2.8,4.7-3.5c2-0.8,4.3-1.2,7-1.2c5.3,0,9.1,1.5,11.5,4.6c2.4,3,3.5,7.4,3.5,13.2
		V676c0,2.8-0.3,5.3-0.8,7.5c-0.5,2.2-1.4,4-2.5,5.7c-1.2,1.6-2.7,2.8-4.7,3.7C499,693.7,496.6,694.1,493.9,694.1z M488.2,685.2
		c1,1.6,2.9,2.5,5.7,2.5s4.6-0.8,5.7-2.5c1-1.6,1.6-4.1,1.6-7.3v-23.7c0-3.2-0.5-5.5-1.6-7.1c-1-1.6-2.9-2.3-5.7-2.3
		c-2.8,0-4.7,0.8-5.7,2.3c-1,1.6-1.6,3.9-1.6,7.1V678C486.7,681.2,487.2,683.6,488.2,685.2z"/>
	<linearGradient id="SVGID_10_" gradientUnits="userSpaceOnUse" x1="527.7222" y1="639.0234" x2="527.7222" y2="693.5488">
		<stop  offset="0" style="stop-color:#E7D04E"/>
		<stop  offset="0.3316" style="stop-color:#DEC757"/>
	</linearGradient>
	<path class="st9" d="M512.2,693.5l9.7-28.3l-9.7-26.3h7.8l7.8,21.4l7.8-21.4h7.8l-9.7,26.1l9.6,28.4h-7.7l-7.7-23.4l-7.7,23.4
		H512.2z"/>
</g>
<g>
</g>
<g>
</g>
<g>
</g>
<g>
</g>
<g>
</g>
<g>
</g>
<g>
</g>
<g>
</g>
<g>
</g>
<g>
</g>
<g>
</g>
</svg>
