<?xml version="1.0" encoding="utf-8"?>
<!-- Generator: Adobe Illustrator 22.0.0, SVG Export Plug-In . SVG Version: 6.00 Build 0)  -->
<svg version="1.1" id="Layer_1" xmlns="http://www.w3.org/2000/svg" xmlns:xlink="http://www.w3.org/1999/xlink" x="0px" y="0px"
	 viewBox="0 0 750 1334" style="enable-background:new 0 0 750 1334;" xml:space="preserve">
<style type="text/css">
	.st0{fill:url(#SVGID_1_);}
	.st1{fill:none;stroke:#FFFFFF;stroke-width:3;stroke-miterlimit:10;}
	.st2{fill:#FFFFFF;}
	.st3{opacity:0.75;stroke:#000000;stroke-width:3;stroke-miterlimit:10;}
</style>
<g>
	<linearGradient id="SVGID_1_" gradientUnits="userSpaceOnUse" x1="375.0867" y1="709.2746" x2="375.0867" y2="624.7093">
		<stop  offset="0" style="stop-color:#037DF9"/>
		<stop  offset="1" style="stop-color:#01A2FC"/>
	</linearGradient>
	<path class="st0" d="M477.1,709.3h-204c-23.2,0-42-18.8-42-42v-0.6c0-23.2,18.8-42,42-42h204c23.2,0,42,18.8,42,42v0.6
		C519.1,690.5,500.3,709.3,477.1,709.3z"/>
	<path class="st1" d="M477.1,709.3h-204c-23.2,0-42-18.8-42-42v-0.6c0-23.2,18.8-42,42-42h204c23.2,0,42,18.8,42,42v0.6
		C519.1,690.5,500.3,709.3,477.1,709.3z"/>
	<g>
		<path class="st2" d="M313.7,678.5h-5.2l-9.5-16.6c-0.6-1-0.9-1.7-1.2-2.2h-0.1c0.1,0.9,0.1,2.4,0.1,4.3v14.5h-4.9v-26.4h5.6
			l9.2,16.1c0.4,0.7,0.8,1.4,1.2,2.2h0.1c-0.1-0.6-0.1-1.8-0.1-3.6v-14.6h4.9V678.5z"/>
		<path class="st2" d="M331.2,678.5h-13.8v-26.4h13.3v4.8h-8.1v5.9h7.5v4.8h-7.5v6h8.6V678.5z"/>
		<path class="st2" d="M352.2,678.5H346l-4-8.6c-0.2-0.3-0.3-0.9-0.5-1.8h-0.1c-0.1,0.4-0.3,1-0.5,1.8l-4,8.5h-6.2l7.4-13.2
			l-6.7-13.2h6.3l3.3,7.9c0.3,0.6,0.5,1.4,0.7,2.2h0.1c0.1-0.5,0.4-1.3,0.7-2.3l3.7-7.8h5.8l-6.9,13.1L352.2,678.5z"/>
		<path class="st2" d="M369.5,657H363v21.5h-5.2V657h-6.5v-4.8h18.3V657z"/>
		<path class="st2" d="M392.3,678.5h-13.7v-26.4h5.2v21.6h8.5V678.5z"/>
		<path class="st2" d="M407.7,678.5h-13.8v-26.4h13.3v4.8H399v5.9h7.5v4.8H399v6h8.6V678.5z"/>
		<path class="st2" d="M429,652.1l-7.9,26.4h-5.9l-7.9-26.4h5.6l4.8,18.4c0.3,1,0.4,1.9,0.5,2.6h0.1c0.1-0.8,0.2-1.7,0.5-2.7
			l4.8-18.3H429z"/>
		<path class="st2" d="M444,678.5h-13.8v-26.4h13.3v4.8h-8.1v5.9h7.5v4.8h-7.5v6h8.6V678.5z"/>
		<path class="st2" d="M459.9,678.5h-13.7v-26.4h5.2v21.6h8.5V678.5z"/>
	</g>
	<path class="st3" d="M477.1,709.3h-204c-23.2,0-42-18.8-42-42v-0.6c0-23.2,18.8-42,42-42h204c23.2,0,42,18.8,42,42v0.6
		C519.1,690.5,500.3,709.3,477.1,709.3z"/>
</g>
<g>
</g>
<g>
</g>
<g>
</g>
<g>
</g>
<g>
</g>
<g>
</g>
<g>
</g>
<g>
</g>
<g>
</g>
<g>
</g>
<g>
</g>
</svg>
