<?xml version="1.0" encoding="utf-8"?>
<!-- Generator: Adobe Illustrator 22.0.0, SVG Export Plug-In . SVG Version: 6.00 Build 0)  -->
<svg version="1.1" id="Layer_1" xmlns="http://www.w3.org/2000/svg" xmlns:xlink="http://www.w3.org/1999/xlink" x="0px" y="0px"
	 viewBox="0 0 750 1334" style="enable-background:new 0 0 750 1334;" xml:space="preserve">
<style type="text/css">
	.st0{fill:url(#SVGID_1_);}
	.st1{fill:url(#SVGID_2_);}
	.st2{fill:url(#SVGID_3_);}
	.st3{fill:url(#SVGID_4_);}
	.st4{fill:url(#SVGID_5_);}
	.st5{opacity:0.5;}
	.st6{fill:#A47B20;}
	.st7{fill:url(#SVGID_6_);}
	.st8{opacity:0.4;fill:url(#SVGID_7_);}
	.st9{fill:url(#SVGID_8_);}
	.st10{fill:url(#SVGID_9_);}
	.st11{opacity:0.75;fill:url(#SVGID_10_);}
	.st12{fill:url(#SVGID_11_);}
	.st13{opacity:0.6;}
</style>
<g>
	<g>
		
			<image style="overflow:visible;opacity:0.4;" width="57" height="57" xlink:href="AD81FEB.png"  transform="matrix(1 0 0 1 347 640)">
		</image>
		<g>
			<g>
				<linearGradient id="SVGID_1_" gradientUnits="userSpaceOnUse" x1="375.1915" y1="687.0424" x2="375.1915" y2="643.1357">
					<stop  offset="0" style="stop-color:#C99B14"/>
					<stop  offset="0.2137" style="stop-color:#B78817"/>
					<stop  offset="0.2223" style="stop-color:#B98B1B"/>
					<stop  offset="0.3396" style="stop-color:#D6B74E"/>
					<stop  offset="0.4418" style="stop-color:#EBD774"/>
					<stop  offset="0.524" style="stop-color:#F8EA8B"/>
					<stop  offset="0.5758" style="stop-color:#FDF193"/>
					<stop  offset="0.5784" style="stop-color:#F9EB8A"/>
					<stop  offset="0.589" style="stop-color:#ECD66B"/>
					<stop  offset="0.6011" style="stop-color:#E1C34F"/>
					<stop  offset="0.6146" style="stop-color:#D8B439"/>
					<stop  offset="0.6305" style="stop-color:#D1A928"/>
					<stop  offset="0.6501" style="stop-color:#CDA11D"/>
					<stop  offset="0.6776" style="stop-color:#CA9C16"/>
					<stop  offset="0.754" style="stop-color:#C99B14"/>
					<stop  offset="0.7571" style="stop-color:#C79814"/>
					<stop  offset="0.7907" style="stop-color:#AF7E15"/>
					<stop  offset="0.8275" style="stop-color:#9E6A16"/>
					<stop  offset="0.8692" style="stop-color:#915B17"/>
					<stop  offset="0.9192" style="stop-color:#895317"/>
					<stop  offset="1" style="stop-color:#875017"/>
				</linearGradient>
				<circle class="st0" cx="375.2" cy="666.9" r="22"/>
				<linearGradient id="SVGID_2_" gradientUnits="userSpaceOnUse" x1="375.1915" y1="686.3061" x2="375.1915" y2="644.0058">
					<stop  offset="0" style="stop-color:#875017"/>
					<stop  offset="8.081509e-02" style="stop-color:#895317"/>
					<stop  offset="0.1308" style="stop-color:#915B17"/>
					<stop  offset="0.1725" style="stop-color:#9E6A16"/>
					<stop  offset="0.2093" style="stop-color:#AF7E15"/>
					<stop  offset="0.2429" style="stop-color:#C79814"/>
					<stop  offset="0.246" style="stop-color:#C99B14"/>
					<stop  offset="0.3224" style="stop-color:#CA9C16"/>
					<stop  offset="0.3499" style="stop-color:#CDA11D"/>
					<stop  offset="0.3695" style="stop-color:#D1A928"/>
					<stop  offset="0.3854" style="stop-color:#D8B439"/>
					<stop  offset="0.3989" style="stop-color:#E1C34F"/>
					<stop  offset="0.411" style="stop-color:#ECD66B"/>
					<stop  offset="0.4216" style="stop-color:#F9EB8A"/>
					<stop  offset="0.4242" style="stop-color:#FDF193"/>
					<stop  offset="0.476" style="stop-color:#F8EA8B"/>
					<stop  offset="0.5582" style="stop-color:#EBD774"/>
					<stop  offset="0.6604" style="stop-color:#D6B74E"/>
					<stop  offset="0.7777" style="stop-color:#B98B1B"/>
					<stop  offset="0.7863" style="stop-color:#B78817"/>
					<stop  offset="1" style="stop-color:#C99B14"/>
				</linearGradient>
				<circle class="st1" cx="375.2" cy="666.9" r="21.2"/>
				<g>
					<linearGradient id="SVGID_3_" gradientUnits="userSpaceOnUse" x1="375.1915" y1="683.0833" x2="375.1915" y2="650.8684">
						<stop  offset="0" style="stop-color:#C99B14"/>
						<stop  offset="3.745796e-02" style="stop-color:#CFA523"/>
						<stop  offset="0.11" style="stop-color:#E0C14C"/>
						<stop  offset="0.2095" style="stop-color:#FAEC8C"/>
						<stop  offset="0.2195" style="stop-color:#FDF193"/>
						<stop  offset="0.2511" style="stop-color:#FAEC8B"/>
						<stop  offset="0.2989" style="stop-color:#F1DE77"/>
						<stop  offset="0.357" style="stop-color:#E3C754"/>
						<stop  offset="0.4227" style="stop-color:#D0A725"/>
						<stop  offset="0.4445" style="stop-color:#C99B14"/>
						<stop  offset="0.61" style="stop-color:#EDD66C"/>
						<stop  offset="0.6933" style="stop-color:#FDF193"/>
						<stop  offset="0.9055" style="stop-color:#B78817"/>
						<stop  offset="1" style="stop-color:#C99B14"/>
					</linearGradient>
					<circle class="st2" cx="375.2" cy="666.9" r="17"/>
					
						<linearGradient id="SVGID_4_" gradientUnits="userSpaceOnUse" x1="4816.3247" y1="559.0164" x2="4816.3247" y2="525.7173" gradientTransform="matrix(-1 0 0 -1 5191.5161 1210.6722)">
						<stop  offset="0" style="stop-color:#875017"/>
						<stop  offset="0.1072" style="stop-color:#9D6A17"/>
						<stop  offset="0.2475" style="stop-color:#B78817"/>
						<stop  offset="0.6677" style="stop-color:#FDF193"/>
						<stop  offset="0.7431" style="stop-color:#FCEF90"/>
						<stop  offset="0.8008" style="stop-color:#F8E886"/>
						<stop  offset="0.8526" style="stop-color:#F1DD76"/>
						<stop  offset="0.9009" style="stop-color:#E8CE5F"/>
						<stop  offset="0.9469" style="stop-color:#DBB941"/>
						<stop  offset="0.9905" style="stop-color:#CDA11D"/>
						<stop  offset="1" style="stop-color:#C99B14"/>
					</linearGradient>
					<circle class="st3" cx="375.2" cy="666.9" r="16.6"/>
					<linearGradient id="SVGID_5_" gradientUnits="userSpaceOnUse" x1="375.1915" y1="680.5032" x2="375.1915" y2="650.8636">
						<stop  offset="0" style="stop-color:#875017"/>
						<stop  offset="0.1072" style="stop-color:#9D6A17"/>
						<stop  offset="0.2475" style="stop-color:#B78817"/>
						<stop  offset="0.6677" style="stop-color:#FDF193"/>
						<stop  offset="0.7431" style="stop-color:#FCEF90"/>
						<stop  offset="0.8008" style="stop-color:#F8E886"/>
						<stop  offset="0.8526" style="stop-color:#F1DD76"/>
						<stop  offset="0.9009" style="stop-color:#E8CE5F"/>
						<stop  offset="0.9469" style="stop-color:#DBB941"/>
						<stop  offset="0.9905" style="stop-color:#CDA11D"/>
						<stop  offset="1" style="stop-color:#C99B14"/>
					</linearGradient>
					<circle class="st4" cx="375.2" cy="666.9" r="14.8"/>
				</g>
			</g>
		</g>
	</g>
	<g class="st5">
		<image style="overflow:visible;" width="117" height="117" xlink:href="AD81FE9.png"  transform="matrix(1 0 0 1 317 608)">
		</image>
	</g>
	<g>
		<g>
			<path class="st6" d="M369.1,671.3c0.1,0.7,0.2,1.1,0.2,1.7l6.5,0l6.5,0c0-0.6,0.1-1,0.2-1.7H369.1z"/>
			<path class="st6" d="M377.2,660.7c0,0.8-0.6,1.4-1.4,1.4s-1.4-0.6-1.4-1.4c0-0.8,0.6-1.4,1.4-1.4S377.2,659.9,377.2,660.7z"/>
			<path class="st6" d="M381.6,663.6c0,0.5-0.4,1-1,1s-1-0.4-1-1c0-0.5,0.4-1,1-1S381.6,663.1,381.6,663.6z"/>
			<circle class="st6" cx="385.2" cy="665.2" r="0.7"/>
			<circle class="st6" cx="366.4" cy="665.2" r="0.7"/>
			<path class="st6" d="M372,663.6c0,0.5-0.4,1-1,1c-0.5,0-1-0.4-1-1c0-0.5,0.4-1,1-1C371.5,662.7,372,663.1,372,663.6z"/>
			<g>
				<path class="st6" d="M383.1,669.5c0.9-2.5,2.1-4.3,2.1-4.3l-2.2,1c-1,0.5-2.2-0.2-2.3-1.3l-0.2-1.3l-1.3,1.2
					c-0.8,0.7-2,0.4-2.3-0.6l-1.2-3.5l-1.2,3.5c-0.3,1-1.6,1.3-2.3,0.6l-1.3-1.2l-0.2,1.3c-0.1,1.1-1.3,1.7-2.3,1.3l-2.2-0.9
					c0,0,1.3,1.8,2.1,4.3H383.1z"/>
				<path class="st6" d="M368.7,669.7c0.1,0.4,0.2,0.7,0.3,0.9h13.7c0.1-0.2,0.2-0.4,0.3-0.9H368.7z"/>
			</g>
		</g>
	</g>
	<g>
		<radialGradient id="SVGID_6_" cx="392.1829" cy="666.9182" r="6.6857" gradientUnits="userSpaceOnUse">
			<stop  offset="0" style="stop-color:#FFFFFF"/>
			<stop  offset="5.213898e-02" style="stop-color:#E1E1E1"/>
			<stop  offset="0.1544" style="stop-color:#ADADAD"/>
			<stop  offset="0.2611" style="stop-color:#7F7F7F"/>
			<stop  offset="0.3699" style="stop-color:#585858"/>
			<stop  offset="0.4816" style="stop-color:#383838"/>
			<stop  offset="0.5969" style="stop-color:#1F1F1F"/>
			<stop  offset="0.7175" style="stop-color:#0E0E0E"/>
			<stop  offset="0.8468" style="stop-color:#030303"/>
			<stop  offset="1" style="stop-color:#000000"/>
		</radialGradient>
		<path class="st7" d="M398.9,666.5c0.3,4-3.1,7.4-7.1,7.1c-3.3-0.2-6-2.9-6.2-6.2c-0.3-4,3.1-7.4,7.1-7.1
			C395.9,660.5,398.6,663.2,398.9,666.5z"/>
		<g>
			
				<radialGradient id="SVGID_7_" cx="213.7296" cy="399.1276" r="61.6777" gradientTransform="matrix(-0.4837 0.2227 3.195533e-02 6.936332e-02 483.0577 592.1741)" gradientUnits="userSpaceOnUse">
				<stop  offset="0" style="stop-color:#FFC107"/>
				<stop  offset="2.610862e-03" style="stop-color:#FEC007"/>
				<stop  offset="0.1239" style="stop-color:#C39405"/>
				<stop  offset="0.2478" style="stop-color:#8F6C04"/>
				<stop  offset="0.3721" style="stop-color:#634B03"/>
				<stop  offset="0.4966" style="stop-color:#3F3002"/>
				<stop  offset="0.6213" style="stop-color:#241B01"/>
				<stop  offset="0.7463" style="stop-color:#100C00"/>
				<stop  offset="0.8722" style="stop-color:#040300"/>
				<stop  offset="1" style="stop-color:#000000"/>
			</radialGradient>
			<path class="st8" d="M368.7,677.7c1.4,3,13,0.5,26-5.4c13-6,22.4-13.2,21-16.2c-1.4-3-13-0.5-26,5.4
				C376.7,667.5,367.3,674.8,368.7,677.7z"/>
		</g>
	</g>
	<g>
		
			<radialGradient id="SVGID_8_" cx="-2504.7825" cy="-656.66" r="10.4039" gradientTransform="matrix(0.9974 -7.220000e-02 -7.220000e-02 -0.9974 2814.4338 -183.5032)" gradientUnits="userSpaceOnUse">
			<stop  offset="0" style="stop-color:#E0342E"/>
			<stop  offset="7.914821e-03" style="stop-color:#D8322C"/>
			<stop  offset="6.051940e-02" style="stop-color:#A62722"/>
			<stop  offset="0.1157" style="stop-color:#791D19"/>
			<stop  offset="0.1726" style="stop-color:#541411"/>
			<stop  offset="0.2314" style="stop-color:#350D0B"/>
			<stop  offset="0.293" style="stop-color:#1E0806"/>
			<stop  offset="0.3584" style="stop-color:#0D0403"/>
			<stop  offset="0.4303" style="stop-color:#030201"/>
			<stop  offset="0.5212" style="stop-color:#000100"/>
		</radialGradient>
		<path class="st9" d="M374,651.5c-0.4-5.7-5.4-10-11.1-9.6c-5.7,0.4-10,5.4-9.6,11.1c0.4,5.7,5.4,10,11.1,9.6
			C370.1,662.3,374.4,657.3,374,651.5z"/>
		
			<radialGradient id="SVGID_9_" cx="-2504.7825" cy="-656.6601" r="10.4039" gradientTransform="matrix(0.9974 -7.220000e-02 -7.220000e-02 -0.9974 2814.4338 -183.5032)" gradientUnits="userSpaceOnUse">
			<stop  offset="0" style="stop-color:#E0342E"/>
			<stop  offset="7.914821e-03" style="stop-color:#D8322C"/>
			<stop  offset="6.051940e-02" style="stop-color:#A62722"/>
			<stop  offset="0.1157" style="stop-color:#791D19"/>
			<stop  offset="0.1726" style="stop-color:#541411"/>
			<stop  offset="0.2314" style="stop-color:#350D0B"/>
			<stop  offset="0.293" style="stop-color:#1E0806"/>
			<stop  offset="0.3584" style="stop-color:#0D0403"/>
			<stop  offset="0.4303" style="stop-color:#030201"/>
			<stop  offset="0.5212" style="stop-color:#000100"/>
		</radialGradient>
		<path class="st10" d="M374,651.5c-0.4-5.7-5.4-10-11.1-9.6c-5.7,0.4-10,5.4-9.6,11.1c0.4,5.7,5.4,10,11.1,9.6
			C370.1,662.3,374.4,657.3,374,651.5z"/>
		
			<radialGradient id="SVGID_10_" cx="-258.438" cy="-189.7378" r="6.4357" gradientTransform="matrix(0.8289 0.8224 2.1743 -2.1912 990.3408 449.081)" gradientUnits="userSpaceOnUse">
			<stop  offset="0" style="stop-color:#FFEC87;stop-opacity:0.99"/>
			<stop  offset="8.484850e-02" style="stop-color:#FFEC87"/>
			<stop  offset="0.1369" style="stop-color:#C6B769"/>
			<stop  offset="0.1914" style="stop-color:#92884D"/>
			<stop  offset="0.2468" style="stop-color:#655E36"/>
			<stop  offset="0.3021" style="stop-color:#413D22"/>
			<stop  offset="0.3572" style="stop-color:#242313"/>
			<stop  offset="0.4122" style="stop-color:#101009"/>
			<stop  offset="0.4669" style="stop-color:#040502"/>
			<stop  offset="0.5212" style="stop-color:#000100"/>
		</radialGradient>
		<path class="st11" d="M368.9,657.6c7.7-7.8,11.6-16.5,8.7-19.4c-2.9-2.9-11.6,1-19.3,8.8c-7.7,7.8-11.6,16.5-8.7,19.4
			C352.5,669.3,361.2,665.4,368.9,657.6z"/>
		
			<radialGradient id="SVGID_11_" cx="-2504.7825" cy="-656.66" r="7.5337" gradientTransform="matrix(0.9974 -7.220000e-02 -7.220000e-02 -0.9974 2814.4338 -183.5032)" gradientUnits="userSpaceOnUse">
			<stop  offset="0" style="stop-color:#FFFFFF"/>
			<stop  offset="3.438386e-02" style="stop-color:#D8D8D8"/>
			<stop  offset="8.427510e-02" style="stop-color:#A6A6A6"/>
			<stop  offset="0.1366" style="stop-color:#797A79"/>
			<stop  offset="0.1905" style="stop-color:#545554"/>
			<stop  offset="0.2464" style="stop-color:#353635"/>
			<stop  offset="0.3048" style="stop-color:#1E1F1E"/>
			<stop  offset="0.3668" style="stop-color:#0D0E0D"/>
			<stop  offset="0.435" style="stop-color:#030403"/>
			<stop  offset="0.5212" style="stop-color:#000100"/>
		</radialGradient>
		<path class="st12" d="M371.1,651.8c-0.3-4.2-3.9-7.3-8.1-7c-4.2,0.3-7.3,3.9-7,8.1c0.3,4.2,3.9,7.3,8.1,7
			C368.3,659.5,371.4,655.9,371.1,651.8z"/>
	</g>
	<g class="st13">
		<image style="overflow:visible;" width="158" height="158" xlink:href="AD81FEF.png"  transform="matrix(1 0 0 1 296 588)">
		</image>
	</g>
</g>
<g>
</g>
<g>
</g>
<g>
</g>
<g>
</g>
<g>
</g>
<g>
</g>
<g>
</g>
<g>
</g>
<g>
</g>
<g>
</g>
<g>
</g>
</svg>
