<?xml version="1.0" encoding="utf-8"?>
<!-- Generator: Adobe Illustrator 22.0.0, SVG Export Plug-In . SVG Version: 6.00 Build 0)  -->
<svg version="1.1" id="Layer_1" xmlns="http://www.w3.org/2000/svg" xmlns:xlink="http://www.w3.org/1999/xlink" x="0px" y="0px"
	 viewBox="0 0 750 1334" style="enable-background:new 0 0 750 1334;" xml:space="preserve">
<style type="text/css">
	.st0{fill:url(#SVGID_1_);}
	.st1{fill:none;stroke:#FFFFFF;stroke-width:3;stroke-miterlimit:10;}
	.st2{fill:#FFFFFF;}
	.st3{opacity:0.75;stroke:#000000;stroke-width:3;stroke-miterlimit:10;}
</style>
<g>
	
		<linearGradient id="SVGID_1_" gradientUnits="userSpaceOnUse" x1="375.5" y1="627.75" x2="375.5" y2="711.75" gradientTransform="matrix(1 0 0 -1 0 1336)">
		<stop  offset="0" style="stop-color:#037DF9"/>
		<stop  offset="1" style="stop-color:#01A2FC"/>
	</linearGradient>
	<path class="st0" d="M545.2,708.3H205.8c-23.1,0-41.8-18.8-41.8-42l0,0c0-23.2,18.8-42,41.8-42h339.3c23.1,0,41.8,18.8,41.8,42l0,0
		C587,689.4,568.2,708.3,545.2,708.3z"/>
	<path class="st1" d="M545.2,708.3H205.8c-23.1,0-41.8-18.8-41.8-42l0,0c0-23.2,18.8-42,41.8-42h339.3c23.1,0,41.8,18.8,41.8,42l0,0
		C587,689.4,568.2,708.3,545.2,708.3z"/>
	<g>
		<path class="st2" d="M303.4,644.8h-35.9c-2,0-3.6,2.3-3.6,5.1v32.7c0,2.8,1.6,5.1,3.6,5.1h35.9c2,0,3.6-2.3,3.6-5.1v-32.7
			C307,647.1,305.4,644.8,303.4,644.8z M269.1,683.6c-1.2,0-2.2-1.4-2.2-3.1c0-1.8,0.9-3.1,2.2-3.1c1.2,0,2.2,1.4,2.2,3.1
			C271.3,682.2,270.3,683.6,269.1,683.6z M269.1,674.1c-1.2,0-2.2-1.4-2.2-3.1c0-1.8,0.9-3.1,2.2-3.1c1.2,0,2.2,1.4,2.2,3.1
			C271.3,672.8,270.3,674.1,269.1,674.1z M269.1,664.7c-1.2,0-2.2-1.4-2.2-3.1s0.9-3.1,2.2-3.1c1.2,0,2.2,1.4,2.2,3.1
			S270.3,664.7,269.1,664.7z M269.1,655.2c-1.2,0-2.2-1.4-2.2-3.1c0-1.8,0.9-3.1,2.2-3.1c1.2,0,2.2,1.4,2.2,3.1
			C271.3,653.9,270.3,655.2,269.1,655.2z M291.5,668l-10.1,8.1c-0.7,0.5-1.5-0.1-1.5-1.2v-15.3c0-1,0.7-1.7,1.4-1.3l10.1,7.2
			C292.2,666.1,292.2,667.5,291.5,668z M301.9,683.6c-1.2,0-2.2-1.4-2.2-3.1c0-1.8,0.9-3.1,2.2-3.1c1.2,0,2.2,1.4,2.2,3.1
			C304.1,682.2,303.1,683.6,301.9,683.6z M301.9,674.1c-1.2,0-2.2-1.4-2.2-3.1c0-1.8,0.9-3.1,2.2-3.1c1.2,0,2.2,1.4,2.2,3.1
			C304.1,672.8,303.1,674.1,301.9,674.1z M301.9,664.7c-1.2,0-2.2-1.4-2.2-3.1s0.9-3.1,2.2-3.1c1.2,0,2.2,1.4,2.2,3.1
			S303.1,664.7,301.9,664.7z M301.9,655.2c-1.2,0-2.2-1.4-2.2-3.1c0-1.8,0.9-3.1,2.2-3.1c1.2,0,2.2,1.4,2.2,3.1
			C304.1,653.9,303.1,655.2,301.9,655.2z"/>
		<g>
			<path class="st2" d="M340.2,675.4c-2.2,1.2-4.8,1.9-8,1.9c-3.6,0-6.4-1-8.4-3c-2.1-2-3.1-4.7-3.1-8.1c0-3.5,1.1-6.3,3.4-8.5
				s5.2-3.3,8.9-3.3c2.3,0,4.4,0.3,6.2,1v4.7c-1.7-1-3.8-1.5-6.3-1.5c-2.1,0-3.7,0.7-5,2c-1.3,1.3-2,3.1-2,5.4c0,2.3,0.6,4,1.8,5.3
				c1.2,1.2,2.7,1.9,4.7,1.9c1.2,0,2.1-0.2,2.8-0.5v-4.3h-4.4v-4h9.4V675.4z"/>
			<path class="st2" d="M357.7,676.9h-13.3v-22.1h12.8v4.1h-7.8v4.9h7.2v4h-7.2v5.1h8.3V676.9z"/>
			<path class="st2" d="M376.8,658.8h-6.3v18.1h-5v-18.1h-6.3v-4.1h17.6V658.8z"/>
			<path class="st2" d="M387.8,676.2v-4.2c1.5,1.1,3.2,1.6,5.2,1.6c1.2,0,2.2-0.3,2.9-0.8s1-1.3,1-2.2c0-1-0.4-1.7-1.3-2.3
				c-0.9-0.5-2-0.8-3.5-0.8H390v-3.7h1.9c2.9,0,4.3-1,4.3-2.9c0-1.8-1.1-2.7-3.3-2.7c-1.5,0-2.9,0.5-4.3,1.4v-4
				c1.6-0.8,3.4-1.2,5.4-1.2c2.3,0,4,0.5,5.3,1.5c1.3,1,1.9,2.3,1.9,4c0,2.9-1.5,4.7-4.4,5.4v0.1c1.6,0.2,2.8,0.8,3.7,1.7
				c0.9,0.9,1.4,2.1,1.4,3.5c0,2.1-0.8,3.7-2.3,4.9c-1.5,1.2-3.6,1.8-6.3,1.8C391.1,677.3,389.2,676.9,387.8,676.2z"/>
			<path class="st2" d="M433.7,676.9h-6.3l-6.4-9.6c-0.1-0.2-0.3-0.6-0.6-1.2h-0.1v10.8h-5v-22.1h5v10.5h0.1
				c0.1-0.3,0.3-0.7,0.6-1.2l6.1-9.2h5.9l-7.7,10.5L433.7,676.9z"/>
			<path class="st2" d="M449.1,676.9h-13.3v-22.1h12.8v4.1h-7.8v4.9h7.2v4h-7.2v5.1h8.3V676.9z"/>
			<path class="st2" d="M469.3,654.8l-7.2,14.2v7.9h-5v-7.8l-7-14.3h5.7l3.6,8.2c0.1,0.2,0.2,0.8,0.5,1.8h0.1
				c0.1-0.7,0.3-1.3,0.5-1.7l3.6-8.3H469.3z"/>
			<path class="st2" d="M470.8,676v-4.9c0.9,0.8,1.9,1.3,2.9,1.7c1,0.4,2.1,0.6,3.2,0.6c0.6,0,1.2-0.1,1.6-0.2s0.9-0.3,1.2-0.5
				c0.3-0.2,0.5-0.4,0.7-0.7s0.2-0.6,0.2-0.9c0-0.4-0.1-0.8-0.4-1.2c-0.2-0.3-0.6-0.7-1-0.9c-0.4-0.3-0.9-0.6-1.5-0.8
				c-0.6-0.3-1.2-0.5-1.9-0.8c-1.7-0.7-3-1.6-3.9-2.6s-1.3-2.3-1.3-3.8c0-1.2,0.2-2.1,0.7-3c0.5-0.8,1.1-1.5,1.9-2s1.7-0.9,2.8-1.2
				s2.2-0.4,3.3-0.4c1.2,0,2.2,0.1,3.1,0.2s1.7,0.4,2.5,0.6v4.6c-0.4-0.3-0.8-0.5-1.2-0.7c-0.4-0.2-0.9-0.4-1.3-0.5
				c-0.5-0.1-0.9-0.2-1.4-0.3c-0.5-0.1-0.9-0.1-1.3-0.1c-0.6,0-1.1,0.1-1.5,0.2c-0.5,0.1-0.9,0.3-1.2,0.5c-0.3,0.2-0.6,0.4-0.7,0.7
				s-0.3,0.6-0.3,0.9c0,0.4,0.1,0.7,0.3,1s0.5,0.6,0.8,0.8c0.4,0.3,0.8,0.5,1.3,0.8c0.5,0.3,1.1,0.5,1.7,0.8
				c0.9,0.4,1.7,0.8,2.4,1.2s1.3,0.9,1.8,1.4c0.5,0.5,0.9,1.1,1.2,1.8c0.3,0.7,0.4,1.5,0.4,2.4c0,1.2-0.2,2.3-0.7,3.1
				c-0.5,0.8-1.1,1.5-1.9,2c-0.8,0.5-1.7,0.9-2.8,1.1c-1.1,0.2-2.2,0.3-3.4,0.3c-1.2,0-2.4-0.1-3.5-0.3S471.6,676.5,470.8,676z"/>
		</g>
	</g>
	<path class="st3" d="M545.2,708.3H205.8c-23.1,0-41.8-18.8-41.8-42l0,0c0-23.2,18.8-42,41.8-42h339.3c23.1,0,41.8,18.8,41.8,42l0,0
		C587,689.4,568.2,708.3,545.2,708.3z"/>
</g>
<g>
</g>
<g>
</g>
<g>
</g>
<g>
</g>
<g>
</g>
<g>
</g>
<g>
</g>
<g>
</g>
<g>
</g>
<g>
</g>
<g>
</g>
</svg>
