<?xml version="1.0" encoding="utf-8"?>
<!-- Generator: Adobe Illustrator 22.0.0, SVG Export Plug-In . SVG Version: 6.00 Build 0)  -->
<svg version="1.1" id="Layer_1" xmlns="http://www.w3.org/2000/svg" xmlns:xlink="http://www.w3.org/1999/xlink" x="0px" y="0px"
	 viewBox="0 0 750 1334" style="enable-background:new 0 0 750 1334;" xml:space="preserve">
<style type="text/css">
	.st0{fill:#FFFFFF;}
</style>
<g>
	<path class="st0" d="M277.1,669.2v9.2h-5.2v-26.6h8.2c5.9,0,8.8,2.8,8.8,8.5c0,2.7-0.8,4.8-2.5,6.5c-1.7,1.7-3.9,2.5-6.8,2.5H277.1
		z M277.1,656.4v8.3h2.1c2.8,0,4.2-1.4,4.2-4.2c0-2.7-1.4-4.1-4.2-4.1H277.1z"/>
	<path class="st0" d="M301,664.7c-0.6-0.4-1.3-0.6-2.2-0.6c-1.1,0-2,0.5-2.6,1.4c-0.6,0.9-0.9,2.2-0.9,3.8v9.1h-5.1v-19h5.1v3.5h0.1
		c0.8-2.6,2.3-3.9,4.4-3.9c0.5,0,1,0.1,1.3,0.2V664.7z"/>
	<path class="st0" d="M304.4,656.4c-0.9,0-1.6-0.3-2.1-0.9c-0.6-0.6-0.8-1.3-0.8-2.2c0-0.9,0.3-1.6,0.8-2.2c0.6-0.6,1.3-0.8,2.1-0.8
		c0.9,0,1.6,0.3,2.1,0.8c0.5,0.6,0.8,1.3,0.8,2.2c0,0.9-0.3,1.6-0.8,2.2C306,656.1,305.3,656.4,304.4,656.4z M306.9,678.4h-5.1v-19
		h5.1V678.4z"/>
	<path class="st0" d="M325.5,659.4l-6.2,19h-5.8l-5.9-19h5.5l2.9,11.7c0.3,1.3,0.5,2.5,0.6,3.4h0.1c0.1-0.9,0.3-2,0.6-3.3l3-11.8
		H325.5z"/>
	<path class="st0" d="M339.9,678.4h-4.9v-2.7H335c-1.1,2.1-2.8,3.2-5,3.2c-1.6,0-2.9-0.5-3.8-1.6c-0.9-1-1.4-2.4-1.4-4.2
		c0-3.7,1.9-5.8,5.7-6.4l4.5-0.7c0-2.1-1-3.1-3-3.1c-2,0-3.9,0.7-5.7,2v-4.4c0.7-0.4,1.7-0.8,2.9-1.1c1.2-0.3,2.4-0.5,3.4-0.5
		c4.7,0,7.1,2.7,7.1,8.1V678.4z M335.1,670.7v-1.3l-3,0.4c-1.7,0.2-2.5,1.1-2.5,2.6c0,0.7,0.2,1.2,0.6,1.6c0.4,0.4,1,0.6,1.6,0.6
		c1,0,1.8-0.4,2.4-1.1S335.1,671.8,335.1,670.7z"/>
	<path class="st0" d="M355,677.7c-1.2,0.8-2.8,1.2-5,1.2c-2.6,0-4.6-0.9-6.2-2.7c-1.6-1.8-2.4-4.1-2.4-6.9c0-3.2,0.8-5.8,2.5-7.6
		s4-2.8,6.8-2.8c2,0,3.4,0.3,4.3,0.9v5c-1.1-0.9-2.3-1.4-3.6-1.4c-1.5,0-2.6,0.5-3.5,1.5s-1.3,2.3-1.3,4.1c0,1.7,0.4,3,1.2,4
		c0.8,1,2,1.4,3.4,1.4c1.3,0,2.5-0.5,3.8-1.4V677.7z"/>
	<path class="st0" d="M372.6,659.4l-6.8,20.5c-1.6,4.9-4.1,7.4-7.3,7.4c-1.2,0-2.3-0.2-3.1-0.5v-4.7c0.7,0.5,1.4,0.7,2.2,0.7
		c1.3,0,2.2-0.7,2.8-2.1l0.9-2.4l-6.8-19h5.7l3.1,11.6c0.2,0.7,0.3,1.6,0.5,2.5h0.1c0.1-0.7,0.3-1.6,0.5-2.5l3.1-11.6H372.6z"/>
	<path class="st0" d="M386.4,669.2v9.2h-5.2v-26.6h8.2c5.9,0,8.8,2.8,8.8,8.5c0,2.7-0.8,4.8-2.5,6.5c-1.7,1.7-3.9,2.5-6.8,2.5H386.4
		z M386.4,656.4v8.3h2.1c2.8,0,4.2-1.4,4.2-4.2c0-2.7-1.4-4.1-4.2-4.1H386.4z"/>
	<path class="st0" d="M407.4,678.9c-2.8,0-5-0.9-6.5-2.7c-1.6-1.8-2.4-4.2-2.4-7.2c0-3.1,0.8-5.6,2.5-7.4s3.9-2.7,6.7-2.7
		c2.8,0,4.9,0.9,6.5,2.7s2.4,4.1,2.4,7c0,3.2-0.8,5.7-2.4,7.5C412.5,677.9,410.3,678.9,407.4,678.9z M407.6,663.4
		c-1.2,0-2.2,0.5-2.8,1.4c-0.7,1-1,2.3-1,4c0,3.7,1.3,5.5,3.9,5.5c2.5,0,3.7-1.9,3.7-5.6C411.3,665.2,410,663.4,407.6,663.4z"/>
	<path class="st0" d="M423.4,678.4h-5.1v-28.2h5.1V678.4z"/>
	<path class="st0" d="M428.7,656.4c-0.9,0-1.6-0.3-2.1-0.9c-0.6-0.6-0.8-1.3-0.8-2.2c0-0.9,0.3-1.6,0.8-2.2c0.6-0.6,1.3-0.8,2.1-0.8
		c0.9,0,1.6,0.3,2.1,0.8c0.5,0.6,0.8,1.3,0.8,2.2c0,0.9-0.3,1.6-0.8,2.2S429.6,656.4,428.7,656.4z M431.2,678.4h-5.1v-19h5.1V678.4z
		"/>
	<path class="st0" d="M446.6,677.7c-1.2,0.8-2.8,1.2-5,1.2c-2.6,0-4.6-0.9-6.2-2.7c-1.6-1.8-2.4-4.1-2.4-6.9c0-3.2,0.8-5.8,2.5-7.6
		s4-2.8,6.8-2.8c2,0,3.4,0.3,4.3,0.9v5c-1.1-0.9-2.3-1.4-3.6-1.4c-1.5,0-2.6,0.5-3.5,1.5s-1.3,2.3-1.3,4.1c0,1.7,0.4,3,1.2,4
		c0.8,1,2,1.4,3.4,1.4c1.3,0,2.5-0.5,3.8-1.4V677.7z"/>
	<path class="st0" d="M464.2,659.4l-6.8,20.5c-1.6,4.9-4.1,7.4-7.3,7.4c-1.2,0-2.3-0.2-3.1-0.5v-4.7c0.7,0.5,1.4,0.7,2.2,0.7
		c1.3,0,2.2-0.7,2.8-2.1l0.9-2.4l-6.8-19h5.7l3.1,11.6c0.2,0.7,0.3,1.6,0.5,2.5h0.1c0.1-0.7,0.3-1.6,0.5-2.5l3.1-11.6H464.2z"/>
</g>
<g>
</g>
<g>
</g>
<g>
</g>
<g>
</g>
<g>
</g>
<g>
</g>
<g>
</g>
<g>
</g>
<g>
</g>
<g>
</g>
<g>
</g>
</svg>
