<?xml version="1.0" encoding="utf-8"?>
<!-- Generator: Adobe Illustrator 22.0.0, SVG Export Plug-In . SVG Version: 6.00 Build 0)  -->
<svg version="1.1" id="Layer_1" xmlns="http://www.w3.org/2000/svg" xmlns:xlink="http://www.w3.org/1999/xlink" x="0px" y="0px"
	 viewBox="0 0 750 1334" style="enable-background:new 0 0 750 1334;" xml:space="preserve">
<style type="text/css">
	.st0{fill:url(#SVGID_1_);}
	.st1{fill:none;stroke:#FFFFFF;stroke-width:3;stroke-miterlimit:10;}
	.st2{fill:#FFFFFF;}
	.st3{opacity:0.75;stroke:#000000;stroke-width:3;stroke-miterlimit:10;}
</style>
<g>
	<g>
		
			<image style="overflow:visible;opacity:0.1;" width="320" height="118" xlink:href="5291F8D0.png"  transform="matrix(1 0 0 1 215 608)">
		</image>
		<g>
			<g>
				<g>
					<linearGradient id="SVGID_1_" gradientUnits="userSpaceOnUse" x1="367.9505" y1="702.3339" x2="367.9505" y2="617.7686">
						<stop  offset="0" style="stop-color:#037DF9"/>
						<stop  offset="1" style="stop-color:#01A2FC"/>
					</linearGradient>
					<path class="st0" d="M468.9,702.3H267c-23.2,0-42-18.8-42-42v-0.6c0-23.2,18.8-42,42-42h202c23.2,0,42,18.8,42,42v0.6
						C510.9,683.5,492.1,702.3,468.9,702.3z"/>
					<path class="st1" d="M468.9,702.3H267c-23.2,0-42-18.8-42-42v-0.6c0-23.2,18.8-42,42-42h202c23.2,0,42,18.8,42,42v0.6
						C510.9,683.5,492.1,702.3,468.9,702.3z"/>
				</g>
				<g>
					<path class="st2" d="M336.2,669.4h-4.8l-2.9-5.5c-0.2-0.4-0.4-0.8-0.6-1.1s-0.4-0.6-0.6-0.8c-0.2-0.2-0.4-0.4-0.6-0.5
						c-0.2-0.1-0.5-0.2-0.7-0.2h-1.1v8.2h-4.2V648h6.7c4.5,0,6.8,1.9,6.8,5.8c0,0.7-0.1,1.4-0.3,2.1c-0.2,0.6-0.5,1.2-0.8,1.7
						s-0.8,0.9-1.3,1.3c-0.5,0.4-1.1,0.7-1.7,0.9v0.1c0.3,0.1,0.5,0.3,0.8,0.5c0.3,0.2,0.5,0.5,0.8,0.8c0.2,0.3,0.5,0.6,0.7,1
						c0.2,0.3,0.4,0.7,0.6,1L336.2,669.4z M324.7,651.6v6h1.8c0.9,0,1.6-0.3,2.2-0.9c0.6-0.6,0.8-1.4,0.8-2.3c0-1.9-1-2.8-2.9-2.8
						H324.7z"/>
					<path class="st2" d="M353.1,669.4h-4.6l-1.3-4.8h-6.7l-1.3,4.8h-4.6l6.8-21.4h5L353.1,669.4z M346.2,660.9l-2-7.2
						c-0.1-0.5-0.3-1.2-0.3-1.9h-0.1c0,0.6-0.2,1.2-0.3,1.9l-2,7.2H346.2z"/>
					<path class="st2" d="M367.3,651.9H362v17.5h-4.2v-17.5h-5.3V648h14.9V651.9z"/>
					<path class="st2" d="M379.8,669.4h-11.2V648h10.8v3.9h-6.6v4.8h6.1v3.9h-6.1v4.9h7V669.4z"/>
					<path class="st2" d="M402.8,660.1c0,6.4-2.6,9.6-7.9,9.6c-5.1,0-7.6-3.1-7.6-9.4V648h4.2v12.4c0,3.5,1.2,5.2,3.5,5.2
						c2.3,0,3.5-1.7,3.5-5V648h4.2V660.1z"/>
					<path class="st2" d="M404.8,668.6v-4.8c0.8,0.7,1.6,1.3,2.5,1.6c0.9,0.4,1.8,0.5,2.7,0.5c0.5,0,1-0.1,1.4-0.2s0.7-0.3,1-0.5
						c0.3-0.2,0.5-0.4,0.6-0.7c0.1-0.3,0.2-0.5,0.2-0.9c0-0.4-0.1-0.8-0.3-1.1s-0.5-0.6-0.9-0.9c-0.4-0.3-0.8-0.5-1.3-0.8
						c-0.5-0.3-1-0.5-1.6-0.8c-1.5-0.7-2.5-1.5-3.3-2.5c-0.7-1-1.1-2.2-1.1-3.6c0-1.1,0.2-2.1,0.6-2.9c0.4-0.8,0.9-1.5,1.6-2
						c0.7-0.5,1.5-0.9,2.3-1.1c0.9-0.2,1.8-0.4,2.8-0.4c1,0,1.8,0.1,2.6,0.2c0.8,0.1,1.4,0.3,2.1,0.6v4.5c-0.3-0.2-0.7-0.5-1-0.7
						c-0.4-0.2-0.8-0.3-1.1-0.5c-0.4-0.1-0.8-0.2-1.2-0.3c-0.4-0.1-0.8-0.1-1.1-0.1c-0.5,0-0.9,0.1-1.3,0.2s-0.7,0.3-1,0.4
						s-0.5,0.4-0.6,0.7c-0.1,0.3-0.2,0.6-0.2,0.9c0,0.4,0.1,0.7,0.2,1c0.2,0.3,0.4,0.6,0.7,0.8c0.3,0.3,0.7,0.5,1.1,0.7
						c0.4,0.2,0.9,0.5,1.5,0.8c0.7,0.4,1.4,0.7,2,1.1c0.6,0.4,1.1,0.9,1.5,1.4s0.8,1.1,1,1.7c0.2,0.7,0.3,1.4,0.3,2.3
						c0,1.2-0.2,2.2-0.6,3c-0.4,0.8-0.9,1.5-1.6,2c-0.7,0.5-1.5,0.9-2.4,1.1c-0.9,0.2-1.8,0.3-2.8,0.3c-1,0-2-0.1-2.9-0.3
						C406.2,669.3,405.4,669,404.8,668.6z"/>
				</g>
			</g>
		</g>
	</g>
	<path class="st3" d="M468.9,702.3H267c-23.2,0-42-18.8-42-42v-0.6c0-23.2,18.8-42,42-42h202c23.2,0,42,18.8,42,42v0.6
		C510.9,683.5,492.1,702.3,468.9,702.3z"/>
</g>
<g>
</g>
<g>
</g>
<g>
</g>
<g>
</g>
<g>
</g>
<g>
</g>
<g>
</g>
<g>
</g>
<g>
</g>
<g>
</g>
<g>
</g>
</svg>
