<?xml version="1.0" encoding="utf-8"?>
<!-- Generator: Adobe Illustrator 22.0.0, SVG Export Plug-In . SVG Version: 6.00 Build 0)  -->
<svg version="1.1" id="Layer_1" xmlns="http://www.w3.org/2000/svg" xmlns:xlink="http://www.w3.org/1999/xlink" x="0px" y="0px"
	 viewBox="0 0 750 1334" style="enable-background:new 0 0 750 1334;" xml:space="preserve">
<style type="text/css">
	.st0{fill:#FFFFFF;}
</style>
<g>
	<g>
		<path class="st0" d="M295.1,656.6h-6.6v21.8h-5.3v-21.8h-6.6v-4.9h18.5V656.6z"/>
		<path class="st0" d="M311.1,670.6h-10.9c0.2,2.8,1.7,4.1,4.6,4.1c1.8,0,3.4-0.5,4.8-1.5v4.2c-1.5,0.9-3.5,1.4-6,1.4
			c-2.7,0-4.8-0.9-6.3-2.6c-1.5-1.7-2.2-4.1-2.2-7.1c0-3.2,0.8-5.7,2.4-7.5c1.6-1.8,3.6-2.8,5.9-2.8c2.4,0,4.3,0.8,5.6,2.5
			c1.3,1.6,2,3.9,2,6.7V670.6z M306.3,667c0-2.7-1-4.1-2.9-4.1c-0.8,0-1.5,0.4-2.1,1.2s-1,1.8-1.1,2.9H306.3z"/>
		<path class="st0" d="M323.4,664.7c-0.6-0.4-1.3-0.6-2.2-0.6c-1.1,0-2,0.5-2.6,1.4s-0.9,2.2-0.9,3.8v9.1h-5.1v-19h5.1v3.5h0.1
			c0.8-2.6,2.3-3.9,4.4-3.9c0.5,0,1,0.1,1.3,0.2V664.7z"/>
		<path class="st0" d="M350.6,678.4h-5.1v-10.8c0-2.8-0.9-4.1-2.7-4.1c-0.8,0-1.5,0.4-2.1,1.2c-0.5,0.8-0.8,1.9-0.8,3.1v10.6h-5.1
			v-11c0-2.7-0.9-4-2.6-4c-0.9,0-1.6,0.4-2.1,1.2c-0.5,0.8-0.8,1.9-0.8,3.2v10.6h-5.1v-19h5.1v3h0.1c0.5-1,1.3-1.8,2.2-2.5
			c1-0.6,2-1,3.1-1c2.4,0,4,1.2,4.8,3.5c1.3-2.4,3.1-3.5,5.6-3.5c3.6,0,5.4,2.6,5.4,7.7V678.4z"/>
		<path class="st0" d="M352,677.9v-4.8c0.8,0.6,1.7,1,2.5,1.3c0.8,0.3,1.6,0.4,2.4,0.4c0.9,0,1.6-0.1,2.2-0.4
			c0.5-0.3,0.8-0.7,0.8-1.3c0-0.4-0.1-0.7-0.4-0.9c-0.2-0.2-0.5-0.5-0.9-0.6c-0.4-0.2-0.8-0.4-1.2-0.5c-0.4-0.1-0.9-0.3-1.3-0.5
			c-0.7-0.3-1.2-0.6-1.7-0.9s-0.9-0.7-1.3-1.1c-0.3-0.4-0.6-0.9-0.8-1.5s-0.3-1.2-0.3-2c0-1.1,0.2-2,0.6-2.7s0.9-1.4,1.6-1.9
			c0.7-0.5,1.5-0.8,2.3-1.1c0.9-0.2,1.8-0.3,2.7-0.3c0.7,0,1.5,0.1,2.2,0.2c0.8,0.1,1.5,0.3,2.2,0.6v4.5c-0.6-0.4-1.3-0.8-2.1-1
			c-0.7-0.2-1.5-0.3-2.2-0.3c-0.3,0-0.7,0-1,0.1c-0.3,0.1-0.6,0.2-0.8,0.3c-0.2,0.1-0.4,0.3-0.5,0.5c-0.1,0.2-0.2,0.4-0.2,0.7
			c0,0.3,0.1,0.6,0.3,0.9c0.2,0.2,0.4,0.5,0.8,0.6c0.3,0.2,0.7,0.3,1,0.5c0.4,0.1,0.8,0.3,1.1,0.4c0.7,0.3,1.3,0.6,1.9,0.9
			s1,0.7,1.4,1.1c0.4,0.4,0.7,0.9,0.9,1.5c0.2,0.6,0.3,1.3,0.3,2.1c0,1.1-0.2,2.1-0.6,2.9c-0.4,0.8-1,1.4-1.7,2
			c-0.7,0.5-1.5,0.9-2.5,1.1c-0.9,0.2-1.9,0.3-2.9,0.3C355.3,678.9,353.6,678.5,352,677.9z"/>
		<path class="st0" d="M384.1,678.9c-3.3,0-6.1-1.2-8.2-3.7c-2.1-2.5-3.2-5.7-3.2-9.7c0-4.2,1.1-7.6,3.2-10.2c2.1-2.6,5-3.9,8.5-3.9
			c3.3,0,6,1.2,8.1,3.7c2.1,2.5,3.1,5.8,3.1,9.8c0,4.2-1.1,7.6-3.2,10.1C390.3,677.6,387.5,678.9,384.1,678.9z M384.3,656.5
			c-1.8,0-3.3,0.8-4.4,2.4s-1.6,3.7-1.6,6.3c0,2.6,0.5,4.7,1.6,6.3c1.1,1.5,2.5,2.3,4.3,2.3c1.8,0,3.2-0.7,4.3-2.2s1.6-3.6,1.6-6.2
			c0-2.8-0.5-4.9-1.5-6.4C387.5,657.2,386.1,656.5,384.3,656.5z"/>
		<path class="st0" d="M408.2,654.7c-0.7-0.3-1.3-0.4-1.9-0.4c-1.6,0-2.5,1-2.5,3.1v2h3.8v4.3h-3.8v14.7h-5.1v-14.7h-2.8v-4.3h2.8
			V657c0-2.2,0.6-3.9,1.9-5.2c1.2-1.3,2.9-2,5-2c1,0,1.9,0.1,2.6,0.4V654.7z"/>
		<path class="st0" d="M435.6,666.9c0,8-3.3,12-9.8,12c-6.3,0-9.5-3.9-9.5-11.7v-15.4h5.3v15.5c0,4.3,1.5,6.5,4.4,6.5
			c2.9,0,4.3-2.1,4.3-6.2v-15.7h5.2V666.9z"/>
		<path class="st0" d="M437.5,677.9v-4.8c0.8,0.6,1.7,1,2.5,1.3c0.8,0.3,1.6,0.4,2.4,0.4c0.9,0,1.6-0.1,2.2-0.4
			c0.5-0.3,0.8-0.7,0.8-1.3c0-0.4-0.1-0.7-0.4-0.9c-0.2-0.2-0.5-0.5-0.9-0.6c-0.4-0.2-0.8-0.4-1.2-0.5c-0.4-0.1-0.9-0.3-1.3-0.5
			c-0.7-0.3-1.2-0.6-1.7-0.9s-0.9-0.7-1.3-1.1c-0.3-0.4-0.6-0.9-0.8-1.5s-0.3-1.2-0.3-2c0-1.1,0.2-2,0.6-2.7s0.9-1.4,1.6-1.9
			c0.7-0.5,1.5-0.8,2.3-1.1c0.9-0.2,1.8-0.3,2.7-0.3c0.7,0,1.5,0.1,2.2,0.2c0.8,0.1,1.5,0.3,2.2,0.6v4.5c-0.6-0.4-1.3-0.8-2.1-1
			c-0.7-0.2-1.5-0.3-2.2-0.3c-0.3,0-0.7,0-1,0.1c-0.3,0.1-0.6,0.2-0.8,0.3c-0.2,0.1-0.4,0.3-0.5,0.5c-0.1,0.2-0.2,0.4-0.2,0.7
			c0,0.3,0.1,0.6,0.3,0.9c0.2,0.2,0.4,0.5,0.8,0.6c0.3,0.2,0.7,0.3,1,0.5c0.4,0.1,0.8,0.3,1.1,0.4c0.7,0.3,1.3,0.6,1.9,0.9
			s1,0.7,1.4,1.1c0.4,0.4,0.7,0.9,0.9,1.5c0.2,0.6,0.3,1.3,0.3,2.1c0,1.1-0.2,2.1-0.6,2.9c-0.4,0.8-1,1.4-1.7,2
			c-0.7,0.5-1.5,0.9-2.5,1.1c-0.9,0.2-1.9,0.3-2.9,0.3C440.7,678.9,439,678.5,437.5,677.9z"/>
		<path class="st0" d="M466.5,670.6h-10.9c0.2,2.8,1.7,4.1,4.6,4.1c1.8,0,3.4-0.5,4.8-1.5v4.2c-1.5,0.9-3.5,1.4-6,1.4
			c-2.7,0-4.8-0.9-6.3-2.6c-1.5-1.7-2.2-4.1-2.2-7.1c0-3.2,0.8-5.7,2.4-7.5c1.6-1.8,3.6-2.8,5.9-2.8c2.4,0,4.3,0.8,5.6,2.5
			c1.3,1.6,2,3.9,2,6.7V670.6z M461.8,667c0-2.7-1-4.1-2.9-4.1c-0.8,0-1.5,0.4-2.1,1.2s-1,1.8-1.1,2.9H461.8z"/>
	</g>
</g>
<g>
</g>
<g>
</g>
<g>
</g>
<g>
</g>
<g>
</g>
<g>
</g>
<g>
</g>
<g>
</g>
<g>
</g>
<g>
</g>
<g>
</g>
</svg>
