<?xml version="1.0" encoding="utf-8"?>
<!-- Generator: Adobe Illustrator 22.0.0, SVG Export Plug-In . SVG Version: 6.00 Build 0)  -->
<svg version="1.1" id="Layer_1" xmlns="http://www.w3.org/2000/svg" xmlns:xlink="http://www.w3.org/1999/xlink" x="0px" y="0px"
	 viewBox="0 0 750 1334" style="enable-background:new 0 0 750 1334;" xml:space="preserve">
<style type="text/css">
	.st0{fill:#EBD6F4;}
</style>
<g>
	<path class="st0" d="M207.2,658.9h-4.6v16.7h-3.6v-16.7h-4.6v-3.7h12.8V658.9z"/>
	<path class="st0" d="M219,675.6h-3.5v-8.3c0-2.1-0.6-3.2-1.8-3.2c-0.6,0-1.1,0.3-1.5,0.9s-0.6,1.4-0.6,2.3v8.3h-3.6V654h3.6v9.2h0
		c0.9-1.7,2.1-2.5,3.5-2.5c2.6,0,3.9,2,3.9,6V675.6z"/>
	<path class="st0" d="M230.2,675.6h-3.4v-2.1h0c-0.8,1.6-1.9,2.4-3.4,2.4c-1.1,0-2-0.4-2.6-1.2c-0.6-0.8-1-1.9-1-3.2
		c0-2.8,1.3-4.5,4-4.9l3.1-0.5c0-1.6-0.7-2.4-2-2.4c-1.4,0-2.7,0.5-3.9,1.6v-3.4c0.5-0.3,1.2-0.6,2-0.9c0.9-0.2,1.6-0.4,2.3-0.4
		c3.3,0,4.9,2.1,4.9,6.2V675.6z M226.9,669.7v-1l-2.1,0.3c-1.2,0.2-1.7,0.8-1.7,2c0,0.5,0.1,0.9,0.4,1.3c0.3,0.3,0.7,0.5,1.1,0.5
		c0.7,0,1.2-0.3,1.6-0.9S226.9,670.6,226.9,669.7z"/>
	<path class="st0" d="M243.1,675.6h-3.5v-8.1c0-2.3-0.6-3.4-1.9-3.4c-0.6,0-1.1,0.3-1.5,0.9s-0.6,1.4-0.6,2.3v8.3H232V661h3.6v2.3h0
		c0.8-1.8,2.1-2.7,3.7-2.7c2.5,0,3.8,2,3.8,6V675.6z"/>
	<path class="st0" d="M256.3,675.6h-4.3l-3.7-7.2h0v7.2h-3.6V654h3.6v13.7h0l3.4-6.7h4.2l-4.1,6.8L256.3,675.6z"/>
	<path class="st0" d="M272.8,661l-4.7,15.7c-1.1,3.8-2.8,5.7-5.1,5.7c-0.9,0-1.6-0.1-2.1-0.4v-3.6c0.5,0.4,1,0.5,1.5,0.5
		c0.9,0,1.6-0.5,1.9-1.6l0.6-1.8l-4.7-14.5h3.9l2.1,8.9c0.1,0.5,0.2,1.2,0.3,1.9h0c0.1-0.5,0.2-1.2,0.4-1.9l2.2-8.9H272.8z"/>
	<path class="st0" d="M278.6,676c-1.9,0-3.4-0.7-4.5-2c-1.1-1.4-1.6-3.2-1.6-5.5c0-2.4,0.6-4.3,1.7-5.7c1.1-1.4,2.7-2,4.6-2
		c1.9,0,3.4,0.7,4.5,2c1.1,1.4,1.6,3.2,1.6,5.4c0,2.4-0.6,4.3-1.7,5.7C282.1,675.3,280.5,676,278.6,676z M278.7,664.1
		c-0.8,0-1.5,0.4-2,1.1s-0.7,1.8-0.7,3.1c0,2.8,0.9,4.2,2.7,4.2c1.7,0,2.6-1.4,2.6-4.3C281.2,665.5,280.4,664.1,278.7,664.1z"/>
	<path class="st0" d="M297,675.6h-3.5v-2.2h-0.1c-0.9,1.7-2.1,2.6-3.5,2.6c-2.7,0-4-2-4-6.1V661h3.5v8.4c0,2.1,0.6,3.1,1.9,3.1
		c0.6,0,1.1-0.3,1.5-0.8s0.6-1.3,0.6-2.3V661h3.5V675.6z"/>
	<path class="st0" d="M311.6,657.5c-0.5-0.2-0.9-0.3-1.3-0.3c-1.1,0-1.7,0.8-1.7,2.3v1.6h2.6v3.3h-2.6v11.3h-3.5v-11.3h-1.9V661h1.9
		v-1.8c0-1.7,0.4-3,1.3-4s2-1.5,3.5-1.5c0.7,0,1.3,0.1,1.8,0.3V657.5z"/>
	<path class="st0" d="M317.3,676c-1.9,0-3.4-0.7-4.5-2c-1.1-1.4-1.6-3.2-1.6-5.5c0-2.4,0.6-4.3,1.7-5.7c1.1-1.4,2.7-2,4.6-2
		c1.9,0,3.4,0.7,4.5,2c1.1,1.4,1.6,3.2,1.6,5.4c0,2.4-0.6,4.3-1.7,5.7C320.8,675.3,319.3,676,317.3,676z M317.4,664.1
		c-0.8,0-1.5,0.4-2,1.1s-0.7,1.8-0.7,3.1c0,2.8,0.9,4.2,2.7,4.2c1.7,0,2.6-1.4,2.6-4.3C320,665.5,319.2,664.1,317.4,664.1z"/>
	<path class="st0" d="M332.3,665.1c-0.4-0.3-0.9-0.4-1.5-0.4c-0.8,0-1.4,0.4-1.8,1.1c-0.4,0.7-0.7,1.7-0.7,2.9v7h-3.6V661h3.6v2.7h0
		c0.6-2,1.6-3,3-3c0.4,0,0.7,0.1,0.9,0.2V665.1z"/>
	<path class="st0" d="M341.7,673.9L341.7,673.9l0,8.4h-3.6V661h3.6v2.2h0c0.9-1.7,2.1-2.5,3.7-2.5c1.5,0,2.6,0.6,3.5,1.9
		c0.8,1.3,1.2,3.1,1.2,5.3c0,2.4-0.5,4.4-1.4,5.8c-0.9,1.5-2.2,2.2-3.8,2.2C343.5,676,342.5,675.3,341.7,673.9z M341.6,667.9v1.2
		c0,1,0.2,1.8,0.6,2.5s1,1,1.7,1c0.8,0,1.4-0.4,1.9-1.2c0.4-0.8,0.7-1.9,0.7-3.4c0-2.6-0.8-3.8-2.4-3.8c-0.7,0-1.3,0.3-1.8,1
		S341.6,666.8,341.6,667.9z"/>
	<path class="st0" d="M354.9,675.6h-3.6V654h3.6V675.6z"/>
	<path class="st0" d="M366.3,675.6H363v-2.1h0c-0.8,1.6-1.9,2.4-3.4,2.4c-1.1,0-2-0.4-2.6-1.2c-0.6-0.8-1-1.9-1-3.2
		c0-2.8,1.3-4.5,4-4.9l3.1-0.5c0-1.6-0.7-2.4-2-2.4c-1.4,0-2.7,0.5-3.9,1.6v-3.4c0.5-0.3,1.2-0.6,2-0.9c0.9-0.2,1.6-0.4,2.3-0.4
		c3.3,0,4.9,2.1,4.9,6.2V675.6z M363,669.7v-1l-2.1,0.3c-1.2,0.2-1.7,0.8-1.7,2c0,0.5,0.1,0.9,0.4,1.3c0.3,0.3,0.7,0.5,1.1,0.5
		c0.7,0,1.2-0.3,1.6-0.9S363,670.6,363,669.7z"/>
	<path class="st0" d="M379,661l-4.7,15.7c-1.1,3.8-2.8,5.7-5.1,5.7c-0.9,0-1.6-0.1-2.1-0.4v-3.6c0.5,0.4,1,0.5,1.5,0.5
		c0.9,0,1.6-0.5,1.9-1.6l0.6-1.8l-4.7-14.5h3.9l2.1,8.9c0.1,0.5,0.2,1.2,0.3,1.9h0c0.1-0.5,0.2-1.2,0.4-1.9l2.2-8.9H379z"/>
	<path class="st0" d="M381.1,658.7c-0.6,0-1.1-0.2-1.5-0.7c-0.4-0.5-0.6-1-0.6-1.7c0-0.7,0.2-1.2,0.6-1.7c0.4-0.4,0.9-0.6,1.5-0.6
		c0.6,0,1.1,0.2,1.5,0.6c0.4,0.4,0.6,1,0.6,1.7c0,0.7-0.2,1.2-0.6,1.7C382.2,658.5,381.7,658.7,381.1,658.7z M382.9,675.6h-3.6V661
		h3.6V675.6z"/>
	<path class="st0" d="M395.9,675.6h-3.5v-8.1c0-2.3-0.6-3.4-1.9-3.4c-0.6,0-1.1,0.3-1.5,0.9c-0.4,0.6-0.6,1.4-0.6,2.3v8.3h-3.6V661
		h3.6v2.3h0c0.8-1.8,2.1-2.7,3.7-2.7c2.5,0,3.8,2,3.8,6V675.6z"/>
	<path class="st0" d="M408.9,673.9c0,2.7-0.6,4.8-1.9,6.3s-3,2.2-5.4,2.2c-1.6,0-2.8-0.3-3.7-0.8v-3.8c1.2,0.9,2.4,1.3,3.6,1.3
		c1.2,0,2.1-0.4,2.8-1.2c0.7-0.8,1-1.9,1-3.3v-1.2h0c-0.8,1.6-2,2.4-3.6,2.4c-1.5,0-2.6-0.7-3.5-2s-1.3-3.1-1.3-5.3
		c0-2.5,0.5-4.4,1.4-5.9s2.2-2.2,3.8-2.2c1.4,0,2.5,0.7,3.1,2h0V661h3.6V673.9z M405.4,668.6v-1.2c0-0.9-0.2-1.7-0.6-2.4
		c-0.4-0.6-1-1-1.7-1c-0.8,0-1.4,0.4-1.9,1.2c-0.4,0.8-0.7,1.9-0.7,3.3c0,1.2,0.2,2.2,0.6,2.9c0.4,0.7,1,1.1,1.8,1.1
		c0.7,0,1.3-0.4,1.8-1.1C405.2,670.7,405.4,669.8,405.4,668.6z"/>
	<path class="st0" d="M415.6,674.8v-4.6c0.7,0.7,1.4,1.2,2.1,1.6c0.8,0.3,1.5,0.5,2.3,0.5c0.5,0,0.9-0.1,1.2-0.2
		c0.3-0.1,0.6-0.2,0.9-0.4c0.2-0.2,0.4-0.4,0.5-0.7c0.1-0.3,0.2-0.5,0.2-0.8c0-0.4-0.1-0.8-0.3-1.1c-0.2-0.3-0.4-0.6-0.7-0.9
		c-0.3-0.3-0.7-0.5-1.1-0.8c-0.4-0.2-0.9-0.5-1.4-0.8c-1.3-0.7-2.2-1.5-2.8-2.4c-0.6-1-0.9-2.1-0.9-3.5c0-1.1,0.2-2,0.5-2.7
		c0.3-0.8,0.8-1.4,1.4-1.9s1.3-0.9,2-1.1s1.6-0.3,2.4-0.3c0.8,0,1.6,0.1,2.2,0.2c0.6,0.1,1.2,0.3,1.8,0.6v4.3
		c-0.3-0.2-0.6-0.4-0.9-0.6c-0.3-0.2-0.6-0.3-1-0.4c-0.3-0.1-0.7-0.2-1-0.3c-0.3-0.1-0.7-0.1-1-0.1c-0.4,0-0.8,0-1.1,0.1
		c-0.3,0.1-0.6,0.2-0.9,0.4c-0.2,0.2-0.4,0.4-0.5,0.6c-0.1,0.3-0.2,0.5-0.2,0.8c0,0.3,0.1,0.6,0.2,0.9s0.3,0.5,0.6,0.8
		c0.3,0.2,0.6,0.5,1,0.7s0.8,0.5,1.3,0.7c0.6,0.3,1.2,0.7,1.7,1.1s1,0.8,1.3,1.3c0.4,0.5,0.6,1,0.8,1.7s0.3,1.3,0.3,2.2
		c0,1.1-0.2,2.1-0.5,2.9c-0.3,0.8-0.8,1.4-1.4,1.9c-0.6,0.5-1.3,0.8-2,1c-0.8,0.2-1.6,0.3-2.5,0.3c-0.9,0-1.7-0.1-2.5-0.3
		S416.2,675.2,415.6,674.8z"/>
	<path class="st0" d="M433.3,676c-1.9,0-3.4-0.7-4.5-2c-1.1-1.4-1.6-3.2-1.6-5.5c0-2.4,0.6-4.3,1.7-5.7c1.1-1.4,2.7-2,4.6-2
		c1.9,0,3.4,0.7,4.5,2c1.1,1.4,1.6,3.2,1.6,5.4c0,2.4-0.6,4.3-1.7,5.7C436.8,675.3,435.2,676,433.3,676z M433.4,664.1
		c-0.8,0-1.5,0.4-2,1.1s-0.7,1.8-0.7,3.1c0,2.8,0.9,4.2,2.7,4.2c1.7,0,2.6-1.4,2.6-4.3C436,665.5,435.1,664.1,433.4,664.1z"/>
	<path class="st0" d="M450.4,675.6H447v-2.1h0c-0.8,1.6-1.9,2.4-3.4,2.4c-1.1,0-2-0.4-2.6-1.2c-0.6-0.8-1-1.9-1-3.2
		c0-2.8,1.3-4.5,4-4.9l3.1-0.5c0-1.6-0.7-2.4-2-2.4c-1.4,0-2.7,0.5-3.9,1.6v-3.4c0.5-0.3,1.2-0.6,2-0.9c0.9-0.2,1.6-0.4,2.3-0.4
		c3.3,0,4.9,2.1,4.9,6.2V675.6z M447,669.7v-1l-2.1,0.3c-1.2,0.2-1.7,0.8-1.7,2c0,0.5,0.1,0.9,0.4,1.3c0.3,0.3,0.7,0.5,1.1,0.5
		c0.7,0,1.2-0.3,1.6-0.9S447,670.6,447,669.7z"/>
	<path class="st0" d="M455.7,673.9L455.7,673.9l0,8.4h-3.6V661h3.6v2.2h0c0.9-1.7,2.1-2.5,3.7-2.5c1.5,0,2.6,0.6,3.5,1.9
		c0.8,1.3,1.2,3.1,1.2,5.3c0,2.4-0.5,4.4-1.4,5.8c-0.9,1.5-2.2,2.2-3.8,2.2C457.4,676,456.4,675.3,455.7,673.9z M455.6,667.9v1.2
		c0,1,0.2,1.8,0.6,2.5c0.4,0.6,1,1,1.7,1c0.8,0,1.4-0.4,1.9-1.2s0.7-1.9,0.7-3.4c0-2.6-0.8-3.8-2.4-3.8c-0.7,0-1.3,0.3-1.8,1
		S455.6,666.8,455.6,667.9z"/>
	<path class="st0" d="M482.4,674.9c-1.2,0.7-2.7,1.1-4.6,1.1c-2.5,0-4.4-0.9-5.8-2.8c-1.4-1.8-2.1-4.3-2.1-7.4
		c0-3.3,0.8-5.9,2.4-7.9c1.6-2,3.7-3,6.2-3c1.6,0,2.9,0.3,4,0.8v4.4c-1.1-0.8-2.3-1.2-3.7-1.2c-1.5,0-2.7,0.6-3.7,1.8
		c-0.9,1.2-1.4,2.8-1.4,4.9c0,2,0.4,3.5,1.3,4.7c0.9,1.2,2.1,1.8,3.5,1.8c1.4,0,2.7-0.4,3.9-1.3V674.9z"/>
	<path class="st0" d="M494.7,675.6h-3.5v-2.2h-0.1c-0.9,1.7-2.1,2.6-3.5,2.6c-2.7,0-4-2-4-6.1V661h3.5v8.4c0,2.1,0.6,3.1,1.9,3.1
		c0.6,0,1.1-0.3,1.5-0.8c0.4-0.6,0.6-1.3,0.6-2.3V661h3.5V675.6z"/>
	<path class="st0" d="M503.5,675.4c-0.5,0.4-1.3,0.5-2.4,0.5c-2.5,0-3.8-1.6-3.8-4.9v-6.7h-1.9V661h1.9v-3.1l3.5-1.3v4.4h2.6v3.3
		H501v5.9c0,1.5,0.5,2.3,1.4,2.3c0.4,0,0.8-0.1,1.2-0.4V675.4z"/>
	<path class="st0" d="M511.4,675.4c-0.5,0.4-1.3,0.5-2.4,0.5c-2.5,0-3.8-1.6-3.8-4.9v-6.7h-1.9V661h1.9v-3.1l3.5-1.3v4.4h2.6v3.3
		h-2.6v5.9c0,1.5,0.5,2.3,1.4,2.3c0.4,0,0.8-0.1,1.2-0.4V675.4z"/>
	<path class="st0" d="M514.1,658.7c-0.6,0-1.1-0.2-1.5-0.7c-0.4-0.5-0.6-1-0.6-1.7c0-0.7,0.2-1.2,0.6-1.7c0.4-0.4,0.9-0.6,1.5-0.6
		c0.6,0,1.1,0.2,1.5,0.6c0.4,0.4,0.6,1,0.6,1.7c0,0.7-0.2,1.2-0.6,1.7C515.2,658.5,514.7,658.7,514.1,658.7z M515.9,675.6h-3.6V661
		h3.6V675.6z"/>
	<path class="st0" d="M528.9,675.6h-3.5v-8.1c0-2.3-0.6-3.4-1.9-3.4c-0.6,0-1.1,0.3-1.5,0.9c-0.4,0.6-0.6,1.4-0.6,2.3v8.3h-3.6V661
		h3.6v2.3h0c0.8-1.8,2.1-2.7,3.7-2.7c2.5,0,3.8,2,3.8,6V675.6z"/>
	<path class="st0" d="M541.9,673.9c0,2.7-0.6,4.8-1.9,6.3s-3,2.2-5.4,2.2c-1.6,0-2.8-0.3-3.7-0.8v-3.8c1.2,0.9,2.4,1.3,3.6,1.3
		c1.2,0,2.1-0.4,2.8-1.2c0.7-0.8,1-1.9,1-3.3v-1.2h0c-0.8,1.6-2,2.4-3.6,2.4c-1.5,0-2.6-0.7-3.5-2s-1.3-3.1-1.3-5.3
		c0-2.5,0.5-4.4,1.4-5.9s2.2-2.2,3.8-2.2c1.4,0,2.5,0.7,3.1,2h0V661h3.6V673.9z M538.3,668.6v-1.2c0-0.9-0.2-1.7-0.6-2.4
		c-0.4-0.6-1-1-1.7-1c-0.8,0-1.4,0.4-1.9,1.2c-0.4,0.8-0.7,1.9-0.7,3.3c0,1.2,0.2,2.2,0.6,2.9c0.4,0.7,1,1.1,1.8,1.1
		c0.7,0,1.3-0.4,1.8-1.1C538.1,670.7,538.3,669.8,538.3,668.6z"/>
</g>
<g>
</g>
<g>
</g>
<g>
</g>
<g>
</g>
<g>
</g>
<g>
</g>
<g>
</g>
<g>
</g>
<g>
</g>
<g>
</g>
<g>
</g>
</svg>
