<?xml version="1.0" encoding="utf-8"?>
<!-- Generator: Adobe Illustrator 22.0.0, SVG Export Plug-In . SVG Version: 6.00 Build 0)  -->
<svg version="1.1" id="Layer_1" xmlns="http://www.w3.org/2000/svg" xmlns:xlink="http://www.w3.org/1999/xlink" x="0px" y="0px"
	 viewBox="0 0 750 1334" style="enable-background:new 0 0 750 1334;" xml:space="preserve">
<style type="text/css">
	.st0{fill:none;stroke:#FFFFFF;stroke-width:7;stroke-miterlimit:10;}
	.st1{fill:#FFFFFF;}
	.st2{fill:#AB91D1;}
</style>
<g>
	<path class="st0" d="M435.7,714.1H315.2c-26.2,0-47.5-21.3-47.5-47.5V666c0-26.2,21.3-47.5,47.5-47.5h120.5
		c26.2,0,47.5,21.3,47.5,47.5v0.6C483.2,692.8,461.9,714.1,435.7,714.1z"/>
	<path class="st1" d="M483.2,668v-3.4c0-25.5-22.3-46.1-49.8-46.1h-14.2c-20.9,7.2-35.8,25.9-35.8,47.8s14.9,40.6,35.8,47.8h14.2
		C460.9,714.1,483.2,693.5,483.2,668z"/>
	<g>
		<g>
			<ellipse class="st2" cx="303.7" cy="643.3" rx="2.1" ry="2"/>
			<ellipse class="st2" cx="309.4" cy="639.3" rx="2.1" ry="2"/>
			<ellipse class="st2" cx="315.2" cy="638" rx="2.1" ry="2"/>
			<ellipse class="st2" cx="320.9" cy="640.6" rx="2.1" ry="2"/>
			<path class="st2" d="M305.9,643.3v8.6c0,0.4,0.3,0.7,0.7,0.7c0.4,0,0.7-0.3,0.7-0.7v-12.6h4.3v11.3c0,0.4,0.3,0.7,0.7,0.7
				c0.4,0,0.7-0.3,0.7-0.7V638h4.3v12.6c0,0.4,0.3,0.7,0.7,0.7c0.4,0,0.7-0.3,0.7-0.7v-9.9h4.3v16.6l2.9-3.7
				c0.9-1.2,2.5-1.6,3.8-0.9c1.2,0.7,1.5,2.3,0.7,3.5c0,0-4.7,6.6-6.7,9.4c-2,2.8-5.2,5-11.3,5c-10,0-10.9-7.1-10.9-9.3
				c0-2.1,0-17.9,0-17.9H305.9z"/>
		</g>
		<g>
			<path class="st2" d="M308.7,691.6h-6.3v-12h2.4v9.8h3.9V691.6z"/>
			<path class="st2" d="M315.7,691.6h-6.3v-12h6.1v2.2h-3.7v2.7h3.4v2.2h-3.4v2.7h3.9V691.6z"/>
			<path class="st2" d="M322.8,681.8h-3.7v2.9h3.4v2.2h-3.4v4.7h-2.4v-12h6.1V681.8z"/>
			<path class="st2" d="M331.2,681.8h-3v9.8h-2.4v-9.8h-3v-2.2h8.4V681.8z"/>
		</g>
	</g>
</g>
<g>
</g>
<g>
</g>
<g>
</g>
<g>
</g>
<g>
</g>
<g>
</g>
<g>
</g>
<g>
</g>
<g>
</g>
<g>
</g>
<g>
</g>
</svg>
