<?xml version="1.0" encoding="utf-8"?>
<!-- Generator: Adobe Illustrator 22.0.0, SVG Export Plug-In . SVG Version: 6.00 Build 0)  -->
<svg version="1.1" id="Layer_1" xmlns="http://www.w3.org/2000/svg" xmlns:xlink="http://www.w3.org/1999/xlink" x="0px" y="0px"
	 viewBox="0 0 750 1334" style="enable-background:new 0 0 750 1334;" xml:space="preserve">
<style type="text/css">
	.st0{fill:none;stroke:#FFFFFF;stroke-width:5;stroke-miterlimit:10;}
	.st1{fill:none;stroke:#FFFFFF;stroke-width:3;stroke-miterlimit:10;}
	.st2{fill:#FFFFFF;}
</style>
<g>
	<ellipse class="st0" cx="374.7" cy="666.5" rx="59.1" ry="59.3"/>
	<g>
		<line class="st1" x1="348.2" y1="652.8" x2="348.2" y2="680.3"/>
		<line class="st1" x1="353.6" y1="646.3" x2="353.6" y2="686.8"/>
		<line class="st1" x1="401.3" y1="652.8" x2="401.3" y2="680.3"/>
		<line class="st1" x1="395.8" y1="646.3" x2="395.8" y2="686.8"/>
		<path class="st2" d="M384.6,631.6h-20.2c-4.3,0-7.8,3.2-7.8,7.2v55.5c0,4,3.5,7.2,7.8,7.2h20.2c4.3,0,7.8-3.2,7.8-7.2v-55.5
			C392.3,634.8,388.9,631.6,384.6,631.6z M388.4,689.9c0,1-0.9,1.9-2,1.9h-23.7c-1.1,0-2-0.8-2-1.9v-46.8c0-1,0.9-1.9,2-1.9h23.7
			c1.1,0,2,0.8,2,1.9V689.9z"/>
	</g>
</g>
<g>
</g>
<g>
</g>
<g>
</g>
<g>
</g>
<g>
</g>
<g>
</g>
<g>
</g>
<g>
</g>
<g>
</g>
<g>
</g>
<g>
</g>
</svg>
