<?xml version="1.0" encoding="utf-8"?>
<!-- Generator: Adobe Illustrator 22.0.0, SVG Export Plug-In . SVG Version: 6.00 Build 0)  -->
<svg version="1.1" id="Layer_1" xmlns="http://www.w3.org/2000/svg" xmlns:xlink="http://www.w3.org/1999/xlink" x="0px" y="0px"
	 viewBox="0 0 750 1334" style="enable-background:new 0 0 750 1334;" xml:space="preserve">
<style type="text/css">
	.st0{fill:url(#SVGID_1_);}
	.st1{fill:#FFFFFF;}
</style>
<linearGradient id="SVGID_1_" gradientUnits="userSpaceOnUse" x1="375.75" y1="703.5" x2="375.75" y2="629.5">
	<stop  offset="0" style="stop-color:#BF254F"/>
	<stop  offset="1" style="stop-color:#D12952"/>
</linearGradient>
<path class="st0" d="M417,629.5h-45.5c-20.4,0-37,16.6-37,37v0c0,20.4,16.6,37,37,37H417V629.5z"/>
<path class="st1" d="M417,702.5h-45.5c-19.9,0-36-16.1-36-36s16.1-36,36-36H417v-2h-45.5c-21,0-38,17-38,38s17,38,38,38H417V702.5z"
	/>
<g>
	<g>
		<path class="st1" d="M388.7,649.9h-1.3v-3.6c0-2-1.7-2.6-2.6-2.6h-11.3c-4.2,0-4.5,3.4-4.5,3.5v4.1l-3.1,1.2h18.5L388.7,649.9z
			 M373.1,644.7C373.1,644.7,373.1,644.7,373.1,644.7C373.1,644.7,373.1,644.7,373.1,644.7C373.1,644.7,373.1,644.7,373.1,644.7z
			 M372.5,650.1v-2.7c0-0.1,0.2-2.7,3.7-2.7c2,0,4.3,0,6,0c0.1,0,1.8,0,1.8,1.7l0,0l0,0c0,1.1,0,2.5,0,3.6h-11L372.5,650.1z"/>
		<path class="st1" d="M387.1,686.2l5.9-5.6l-2.2-30.5l-5.3,3.4L387.1,686.2z M387.6,662.6c0.2-0.2,0.5,0.4,0.5,1.3
			c0.1,0.9-0.1,1.8-0.3,2c-0.2,0.2-0.5-0.4-0.5-1.4C387.2,663.7,387.4,662.8,387.6,662.6z M387.9,667.3c0.2-0.2,0.5,0.4,0.5,1.4
			c0.1,1-0.1,1.9-0.3,2.1c-0.2,0.2-0.5-0.4-0.5-1.4C387.5,668.4,387.7,667.5,387.9,667.3z M388.2,672.1c0.2-0.2,0.5,0.4,0.6,1.4
			c0.1,1-0.1,2-0.3,2.2c-0.3,0.2-0.5-0.4-0.6-1.4C387.8,673.2,387.9,672.3,388.2,672.1z M389.2,665c-0.2,0.2-0.5-0.4-0.5-1.3
			c-0.1-0.9,0.1-1.8,0.3-2c0.2-0.2,0.5,0.4,0.5,1.3C389.5,663.9,389.4,664.8,389.2,665z M389.8,667.6c0.1,0.9-0.1,1.9-0.3,2.1
			c-0.2,0.2-0.5-0.4-0.5-1.4c-0.1-0.9,0.1-1.9,0.3-2C389.5,666,389.7,666.6,389.8,667.6z M388.7,680.8c-0.3,0.2-0.5-0.4-0.6-1.5
			c-0.1-1,0.1-2.1,0.4-2.3c0.3-0.2,0.5,0.4,0.6,1.5C389.1,679.6,388.9,680.6,388.7,680.8z M389.5,670.9c0.2-0.2,0.5,0.4,0.5,1.4
			c0.1,1-0.1,2-0.3,2.2c-0.2,0.2-0.5-0.4-0.6-1.4C389.1,672.1,389.3,671.1,389.5,670.9z M390.1,679.5c-0.2,0.2-0.5-0.4-0.6-1.5
			c-0.1-1,0.1-2,0.3-2.2c0.2-0.2,0.5,0.4,0.6,1.4C390.5,678.3,390.3,679.3,390.1,679.5z M391.4,678.3c-0.2,0.2-0.5-0.4-0.6-1.4
			c-0.1-1,0.1-2,0.3-2.2c0.2-0.2,0.5,0.4,0.6,1.4C391.8,677.1,391.7,678.1,391.4,678.3z M391.1,673.3c-0.2,0.2-0.5-0.4-0.6-1.4
			c-0.1-1,0.1-1.9,0.3-2.1c0.2-0.2,0.5,0.4,0.5,1.4C391.5,672.2,391.3,673.1,391.1,673.3z M390.8,668.6c-0.2,0.2-0.5-0.4-0.5-1.4
			c-0.1-0.9,0.1-1.8,0.3-2c0.2-0.2,0.5,0.4,0.5,1.3C391.1,667.5,391,668.4,390.8,668.6z M390.4,664c-0.2,0.2-0.5-0.4-0.5-1.3
			c-0.1-0.9,0.1-1.8,0.3-1.9c0.2-0.2,0.5,0.4,0.5,1.3C390.8,662.9,390.7,663.8,390.4,664z M390.1,659.5c-0.2,0.2-0.5-0.4-0.5-1.3
			c-0.1-0.9,0.1-1.7,0.3-1.8c0.2-0.2,0.5,0.4,0.5,1.3C390.5,658.5,390.4,659.4,390.1,659.5z M389.6,652.3c0.2-0.1,0.4,0.4,0.5,1.2
			c0.1,0.8-0.1,1.6-0.3,1.8c-0.2,0.2-0.5-0.4-0.5-1.2C389.3,653.2,389.4,652.4,389.6,652.3z M388.9,660.5c-0.2,0.2-0.5-0.4-0.5-1.3
			c-0.1-0.9,0.1-1.7,0.3-1.9c0.2-0.2,0.5,0.4,0.5,1.3C389.2,659.4,389.1,660.3,388.9,660.5z M388.4,653.1c0.2-0.1,0.5,0.4,0.5,1.2
			c0.1,0.8-0.1,1.7-0.3,1.8c-0.2,0.2-0.5-0.4-0.5-1.3C388,654,388.2,653.2,388.4,653.1z M387.6,661.4c-0.2,0.2-0.5-0.4-0.5-1.3
			c0-0.9,0.1-1.7,0.3-1.9c0.2-0.2,0.5,0.4,0.5,1.3C388,660.4,387.8,661.2,387.6,661.4z M387.7,655.2c0,0.9-0.1,1.7-0.3,1.8
			c-0.2,0.2-0.5-0.4-0.5-1.3c0-0.9,0.1-1.7,0.3-1.8C387.4,653.8,387.6,654.3,387.7,655.2z"/>
		<path class="st1" d="M383.6,654.3h-19.3l-2.8,32.5h23.7L383.6,654.3z M375.9,657c0.5,0,1,0.7,1,1.6c0,0.9-0.4,1.7-1,1.7
			s-1-0.8-1-1.7C374.9,657.7,375.3,657,375.9,657z M375.9,661.6c0.5,0,1,0.8,1,1.7c0,1-0.4,1.8-1,1.8c-0.6,0-1-0.8-1-1.8
			C374.9,662.4,375.3,661.6,375.9,661.6z M375.8,666.5c0.6,0,1,0.8,1,1.9c0,1-0.5,1.9-1,1.9c-0.6,0-1-0.9-1-1.9
			C374.8,667.3,375.3,666.5,375.8,666.5z M375.8,671.7c0.6,0,1.1,0.9,1.1,2c0,1.1-0.5,2-1.1,2c-0.6,0-1.1-0.9-1.1-2
			C374.8,672.6,375.2,671.7,375.8,671.7z M367.3,681.6c-0.6,0-1.1-1-1-2.2c0.1-1.2,0.6-2.1,1.2-2.1c0.6,0,1,0.9,1,2.1
			C368.4,680.6,367.9,681.6,367.3,681.6z M367.6,675.7c-0.6,0-1-0.9-1-2c0.1-1.1,0.6-2,1.2-2c0.6,0,1,0.9,1,2
			C368.7,674.8,368.2,675.7,367.6,675.7z M367.9,670.3c-0.6,0-1-0.9-0.9-1.9c0.1-1,0.6-1.9,1.1-1.9c0.6,0,1,0.8,0.9,1.9
			C369,669.4,368.5,670.3,367.9,670.3z M368.2,665.1c-0.6,0-1-0.8-0.9-1.8c0.1-1,0.5-1.7,1.1-1.7c0.5,0,0.9,0.8,0.9,1.7
			C369.2,664.3,368.7,665.1,368.2,665.1z M368.4,660.3c-0.5,0-0.9-0.8-0.9-1.7c0.1-0.9,0.5-1.6,1.1-1.6c0.5,0,0.9,0.7,0.9,1.6
			C369.4,659.6,369,660.3,368.4,660.3z M371.5,681.6c-0.6,0-1.1-1-1-2.2c0-1.2,0.6-2.1,1.2-2.1s1.1,0.9,1,2.1
			C372.7,680.6,372.1,681.6,371.5,681.6z M371.7,675.7c-0.6,0-1-0.9-1-2c0-1.1,0.5-2,1.1-2s1,0.9,1,2
			C372.8,674.8,372.3,675.7,371.7,675.7z M371.9,670.3c-0.6,0-1-0.9-1-1.9c0-1,0.5-1.9,1.1-1.9c0.6,0,1,0.8,1,1.9
			C372.9,669.4,372.4,670.3,371.9,670.3z M372,665.1c-0.6,0-1-0.8-0.9-1.8c0-1,0.5-1.7,1-1.7c0.5,0,1,0.8,0.9,1.7
			C373,664.3,372.6,665.1,372,665.1z M372.1,660.3c-0.5,0-0.9-0.8-0.9-1.7c0-0.9,0.5-1.6,1-1.6s0.9,0.7,0.9,1.6
			C373.1,659.6,372.7,660.3,372.1,660.3z M375.8,681.6c-0.6,0-1.1-1-1.1-2.2c0-1.2,0.5-2.1,1.1-2.1s1.1,0.9,1.1,2.1
			C376.9,680.6,376.4,681.6,375.8,681.6z M379.5,657c0.5,0,1,0.7,1,1.6c0,0.9-0.4,1.7-0.9,1.7c-0.5,0-1-0.8-1-1.7
			C378.6,657.7,379,657,379.5,657z M379.6,661.6c0.5,0,1,0.8,1,1.7c0,1-0.4,1.8-1,1.8c-0.6,0-1-0.8-1-1.8
			C378.6,662.4,379.1,661.6,379.6,661.6z M379.7,666.5c0.6,0,1,0.8,1.1,1.9c0,1-0.4,1.9-1,1.9c-0.6,0-1.1-0.9-1.1-1.9
			C378.7,667.3,379.2,666.5,379.7,666.5z M379.8,671.7c0.6,0,1.1,0.9,1.1,2c0,1.1-0.4,2-1,2c-0.6,0-1.1-0.9-1.1-2
			C378.8,672.6,379.2,671.7,379.8,671.7z M380,681.6c-0.6,0-1.1-1-1.1-2.2c0-1.2,0.5-2.1,1.1-2.1c0.6,0,1.1,0.9,1.1,2.1
			C381.1,680.6,380.7,681.6,380,681.6z"/>
	</g>
</g>
<g>
</g>
<g>
</g>
<g>
</g>
<g>
</g>
<g>
</g>
<g>
</g>
<g>
</g>
<g>
</g>
<g>
</g>
<g>
</g>
<g>
</g>
</svg>
