<?xml version="1.0" encoding="utf-8"?>
<!-- Generator: Adobe Illustrator 22.0.0, SVG Export Plug-In . SVG Version: 6.00 Build 0)  -->
<svg version="1.1" id="Layer_1" xmlns="http://www.w3.org/2000/svg" xmlns:xlink="http://www.w3.org/1999/xlink" x="0px" y="0px"
	 viewBox="0 0 750 1334" style="enable-background:new 0 0 750 1334;" xml:space="preserve">
<style type="text/css">
	.st0{fill:#FFFFFF;}
</style>
<g>
	<path class="st0" d="M299.1,678.8l-0.4-0.5c2.6,0.1,7.4-0.1,9.2-0.3c1.1-0.1,1.8,0.6,1.8,1.2c0,0.6-0.5,1.1-1.8,1
		c-0.9,0-2.3-0.1-3.7-0.1c-2.5,0-4.7,0.1-5.9,0.2c-0.7,0.1-1.6-0.3-1.6-1.3c0.3-4.4,0.3-11.7,0.3-18.8c0-6.5,0-10-0.5-13.7
		c-0.1-0.9,0.6-1.4,1.3-1.4c0.7,0,1.4,0.5,1.4,1.4C299.3,653.3,299.2,658.3,299.1,678.8z"/>
	<path class="st0" d="M317.9,645.2c0.6,0.1,1.6,0.2,3,0.2c1.4,0,3,0,4.4-0.2c1.1-0.1,1.7,0.6,1.7,1.2c0,0.6-0.5,1.1-1.7,1.1
		c-1.4-0.1-4.5-0.3-6.9-0.1l0.4-0.8c0,5.9-0.1,11.6-0.1,18.4l-0.4-0.6c0.9,0,4.1-0.1,5.3-0.2c1.1-0.1,1.6,0.3,1.6,0.9
		c0,0.5-0.3,1-1.5,1.1c-0.6,0.1-1.3,0-1.8,0c-0.8,0-2.9,0-3.8,0l0.6-0.7c0,5.5,0.1,11.9,0.1,13.2l-0.6-0.5c2.6,0,8.1-0.2,10-0.3
		c1.1-0.1,1.8,0.6,1.8,1.2c0,0.6-0.6,1.1-1.8,1c-0.9,0-2.3-0.1-3.7-0.1c-2.5,0-5.3,0.1-6.6,0.2c-0.8,0.1-1.6-0.3-1.6-1.3
		c0.3-4.4,0.3-11.7,0.3-18.8c0-6.6,0.1-10.1-0.2-13.7C316.2,645,317.5,645.2,317.9,645.2z"/>
	<path class="st0" d="M344.5,679.1c-0.2,0.8-0.8,1.1-1.5,1.1c-0.7,0-1.4-0.3-1.6-1.1c-0.7-1.9-4.7-21.4-8.1-32
		c-0.1-0.3-0.2-0.5-0.2-0.7c0-0.7,0.5-1.2,1.2-1.2s1.5,0.4,1.7,1.5c1.4,7.2,5.5,25.6,7.3,31l-0.8,0.1c1.1-2,3.2-11.6,4-15.7
		c1.2-6.6,2.4-10.8,3.1-15.1c0.2-1,0.6-1.8,1.4-1.8c0.8,0,1.6,0.6,1.2,1.7C351.1,651.6,347.4,669,344.5,679.1z"/>
	<path class="st0" d="M360.7,645.2c0.6,0.1,1.6,0.2,3,0.2c1.4,0,3,0,4.4-0.2c1.1-0.1,1.7,0.6,1.7,1.2c0,0.6-0.5,1.1-1.7,1.1
		c-1.4-0.1-4.5-0.3-6.9-0.1l0.4-0.8c0,5.9-0.1,11.6-0.1,18.4l-0.4-0.6c0.9,0,4.1-0.1,5.3-0.2c1.1-0.1,1.6,0.3,1.6,0.9
		c0,0.5-0.3,1-1.5,1.1c-0.6,0.1-1.3,0-1.8,0c-0.8,0-2.9,0-3.8,0l0.6-0.7c0,5.5,0.1,11.9,0.1,13.2l-0.6-0.5c2.6,0,8.1-0.2,10-0.3
		c1.1-0.1,1.8,0.6,1.8,1.2c0,0.6-0.6,1.1-1.8,1c-0.9,0-2.3-0.1-3.7-0.1c-2.5,0-5.3,0.1-6.6,0.2c-0.8,0.1-1.6-0.3-1.6-1.3
		c0.3-4.4,0.3-11.7,0.3-18.8c0-6.6,0.1-10.1-0.2-13.7C359,645,360.3,645.2,360.7,645.2z"/>
	<path class="st0" d="M381,678.8l-0.4-0.5c2.6,0.1,7.4-0.1,9.2-0.3c1.1-0.1,1.8,0.6,1.8,1.2c0,0.6-0.5,1.1-1.8,1
		c-0.9,0-2.3-0.1-3.7-0.1c-2.5,0-4.7,0.1-5.9,0.2c-0.7,0.1-1.6-0.3-1.6-1.3c0.3-4.4,0.3-11.7,0.3-18.8c0-6.5,0-10-0.5-13.7
		c-0.1-0.9,0.6-1.4,1.3-1.4s1.4,0.5,1.4,1.4C381.2,653.3,381.1,658.3,381,678.8z"/>
	<path class="st0" d="M422.8,663.1c-1.5,4.7-4.4,5.9-6.8,5.9c-5,0-7.8-4.2-7.8-12.7c0-4.1,2.2-11.1,8.1-11.1c6.2,0,8.4,4.4,8.4,15.5
		c0,12.5-1.8,20-7.9,20c-3.3,0-7.1-2.8-7.4-8.2c0-1,0.5-1.4,1.1-1.4c0.5,0,1.1,0.4,1.1,1.3c0.3,4.2,2.6,6.4,5.2,6.4
		c4.3,0,5.8-7.6,5.8-14c0-0.3,0-1.3,0-1.6L422.8,663.1z M416.4,647.1c-3.7,0-5.8,4.7-5.8,9.2c0,6.6,1.7,10.8,5.5,10.8
		c3.6,0,6.4-3.6,6.4-10C422.4,651.1,420.3,647.1,416.4,647.1z"/>
</g>
<g>
</g>
<g>
</g>
<g>
</g>
<g>
</g>
<g>
</g>
<g>
</g>
<g>
</g>
<g>
</g>
<g>
</g>
<g>
</g>
<g>
</g>
</svg>
