<?xml version="1.0" encoding="utf-8"?>
<!-- Generator: Adobe Illustrator 22.0.0, SVG Export Plug-In . SVG Version: 6.00 Build 0)  -->
<svg version="1.1" id="Layer_1" xmlns="http://www.w3.org/2000/svg" xmlns:xlink="http://www.w3.org/1999/xlink" x="0px" y="0px"
	 viewBox="0 0 750 1334" style="enable-background:new 0 0 750 1334;" xml:space="preserve">
<style type="text/css">
	.st0{fill:#FFFFFF;}
	.st1{fill:none;stroke:#FFFFFF;stroke-width:2;stroke-miterlimit:10;}
</style>
<g>
	<g>
		<g>
			<g>
				<path class="st0" d="M387.9,662.4l-0.2-0.1l-0.6-1.5l0.1-0.2c1.9-4.3,1.8-4.5,1.5-4.8l-2.5-2.5c-0.1-0.1-0.3-0.2-0.4-0.2
					c-0.1,0-0.6,0-4.3,1.7l-0.2,0.1l-1.6-0.6l-0.1-0.2c-1.8-4.4-1.9-4.4-2.4-4.4h-3.6c-0.4,0-0.6,0-2.3,4.4l-0.1,0.2l-1.5,0.6
					l-0.1-0.1c-2.5-1.1-4-1.6-4.4-1.6c-0.2,0-0.3,0.1-0.4,0.2l-2.5,2.5c-0.3,0.3-0.5,0.5,1.6,4.7l0.1,0.2l-0.6,1.5l-0.2,0.1
					c-4.5,1.7-4.5,1.9-4.5,2.4v3.5c0,0.5,0,0.6,4.5,2.2l0.2,0.1l0.6,1.5l-0.1,0.2c-1.9,4.3-1.8,4.4-1.5,4.8l2.5,2.5
					c0.1,0.1,0.3,0.2,0.4,0.2c0.1,0,0.6,0,4.3-1.7l0.2-0.1l1.6,0.6l0.1,0.2c1.8,4.4,2,4.4,2.4,4.4h3.6c0.5,0,0.6,0,2.3-4.4l0.1-0.2
					l1.5-0.6l0.1,0.1c2.5,1.1,4,1.6,4.4,1.6c0.2,0,0.3-0.1,0.4-0.2l2.6-2.5c0.3-0.3,0.5-0.5-1.6-4.7l-0.1-0.2l0.6-1.5l0.2-0.1
					c4.5-1.7,4.5-1.9,4.5-2.4v-3.5C392.4,664.2,392.4,664,387.9,662.4z M375.4,675.9c-5.3,0-9.6-4.2-9.6-9.4c0-5.2,4.3-9.4,9.6-9.4
					c5.3,0,9.6,4.2,9.6,9.4C385.1,671.6,380.7,675.9,375.4,675.9z"/>
			</g>
		</g>
	</g>
	<circle class="st1" cx="375.4" cy="666.4" r="27"/>
</g>
<g>
</g>
<g>
</g>
<g>
</g>
<g>
</g>
<g>
</g>
<g>
</g>
<g>
</g>
<g>
</g>
<g>
</g>
<g>
</g>
<g>
</g>
</svg>
