<?xml version="1.0" encoding="utf-8"?>
<!-- Generator: Adobe Illustrator 22.0.0, SVG Export Plug-In . SVG Version: 6.00 Build 0)  -->
<svg version="1.1" id="Layer_1" xmlns="http://www.w3.org/2000/svg" xmlns:xlink="http://www.w3.org/1999/xlink" x="0px" y="0px"
	 viewBox="0 0 750 1334" style="enable-background:new 0 0 750 1334;" xml:space="preserve">
<style type="text/css">
	.st0{fill:#D4BFEE;}
</style>
<g>
	<g>
		<path class="st0" d="M261.3,683.5V651h-7.8V649h18v2.1h-7.7v32.4H261.3z"/>
		<path class="st0" d="M277.6,675.8l-1.9,7.6h-2.3l8.3-34.5h3.7l8.5,34.5h-2.5l-1.9-7.6H277.6z M278,673.9h11.1l-5.6-22.3L278,673.9
			z"/>
		<path class="st0" d="M306.9,649c5.9,0,8.2,3.4,8.2,8.4v3.7c0,5.5-2.8,8.2-8.8,8.2h-4.7v14.2H299V649H306.9z M306.2,667.2
			c4.4,0,6.3-1.8,6.3-6v-4c0-3.7-1.4-6.2-5.7-6.2h-5.4v16.2H306.2z"/>
		<path class="st0" d="M336.5,683.5V651h-7.8V649h18v2.1H339v32.4H336.5z"/>
		<path class="st0" d="M351.1,657.4c0-5,2.6-8.7,8.3-8.7c5.9,0,8.4,3.7,8.4,8.7V675c0,5-2.6,8.7-8.4,8.7c-5.8,0-8.3-3.7-8.3-8.7
			V657.4z M353.6,675.2c0,3.7,1.6,6.5,5.8,6.5c4.3,0,5.9-2.8,5.9-6.5v-17.9c0-3.7-1.7-6.5-5.9-6.5c-4.2,0-5.8,2.8-5.8,6.5V675.2z"/>
		<path class="st0" d="M382.8,657.4c0-5,2.6-8.7,8.3-8.7c5.9,0,8.4,3.7,8.4,8.7V675c0,5-2.6,8.7-8.4,8.7c-5.8,0-8.3-3.7-8.3-8.7
			V657.4z M385.3,675.2c0,3.7,1.6,6.5,5.8,6.5c4.3,0,5.9-2.8,5.9-6.5v-17.9c0-3.7-1.7-6.5-5.9-6.5c-4.2,0-5.8,2.8-5.8,6.5V675.2z"/>
		<path class="st0" d="M412.9,649c5.9,0,8.2,3.4,8.2,8.4v3.7c0,5.5-2.8,8.2-8.8,8.2h-4.7v14.2H405V649H412.9z M412.3,667.2
			c4.4,0,6.3-1.8,6.3-6v-4c0-3.7-1.4-6.2-5.7-6.2h-5.4v16.2H412.3z"/>
		<path class="st0" d="M439.1,664.9v2.1h-10.4v14.4h12.5v2.1h-15V649h15v2.1h-12.5v13.9H439.1z"/>
		<path class="st0" d="M448.9,683.5h-2.3V649h3.3l11.4,29.1V649h2.3v34.5h-2.8l-11.9-30.8V683.5z"/>
	</g>
</g>
<g>
</g>
<g>
</g>
<g>
</g>
<g>
</g>
<g>
</g>
<g>
</g>
<g>
</g>
<g>
</g>
<g>
</g>
<g>
</g>
<g>
</g>
</svg>
