<?xml version="1.0" encoding="utf-8"?>
<!-- Generator: Adobe Illustrator 22.0.0, SVG Export Plug-In . SVG Version: 6.00 Build 0)  -->
<svg version="1.1" id="Layer_1" xmlns="http://www.w3.org/2000/svg" xmlns:xlink="http://www.w3.org/1999/xlink" x="0px" y="0px"
	 viewBox="0 0 750 1334" style="enable-background:new 0 0 750 1334;" xml:space="preserve">
<style type="text/css">
	.st0{fill:#FFFFFF;}
</style>
<g>
	<path class="st0" d="M350,655.7c-1,1.2-2.4,2-4.3,2.1v-1.5c2.7-0.2,4-1.7,4.7-3.6h1.4v25.5H350V655.7z"/>
	<path class="st0" d="M367.7,659.1c0,7.3-9.9,9.9-10.1,17.4v0.3h9.8v1.5h-11.6v-1.2c0-9,10.1-10.9,10.1-17.9c0-2.9-1.1-5-4.2-5
		c-3,0-4.1,2.2-4.1,4.9v1.7h-1.7v-1.6c0-3.7,1.7-6.5,5.9-6.5C366,652.7,367.7,655.4,367.7,659.1z"/>
	<path class="st0" d="M370.5,659.1c0-3.7,1.8-6.4,6-6.4c4.2,0,6,2.7,6,6.4v13c0,3.7-1.8,6.4-6,6.4c-4.2,0-6-2.7-6-6.4V659.1z
		 M372.3,672.2c0,2.8,1.2,4.8,4.2,4.8s4.2-2,4.2-4.8V659c0-2.8-1.2-4.8-4.2-4.8s-4.2,2-4.2,4.8V672.2z"/>
</g>
<g>
</g>
<g>
</g>
<g>
</g>
<g>
</g>
<g>
</g>
<g>
</g>
<g>
</g>
<g>
</g>
<g>
</g>
<g>
</g>
<g>
</g>
</svg>
