<?xml version="1.0" encoding="utf-8"?>
<!-- Generator: Adobe Illustrator 22.0.0, SVG Export Plug-In . SVG Version: 6.00 Build 0)  -->
<svg version="1.1" id="Layer_1" xmlns="http://www.w3.org/2000/svg" xmlns:xlink="http://www.w3.org/1999/xlink" x="0px" y="0px"
	 viewBox="0 0 750 1334" style="enable-background:new 0 0 750 1334;" xml:space="preserve">
<style type="text/css">
	.st0{fill:url(#SVGID_1_);}
	.st1{fill:url(#SVGID_2_);}
	.st2{fill:url(#SVGID_3_);}
	.st3{fill:url(#SVGID_4_);}
	.st4{fill:url(#SVGID_5_);}
	.st5{opacity:0.5;}
	.st6{fill:#A47B20;}
	.st7{fill:url(#SVGID_6_);}
	.st8{opacity:0.4;fill:url(#SVGID_7_);}
	.st9{fill:url(#SVGID_8_);}
	.st10{fill:url(#SVGID_9_);}
	.st11{opacity:0.75;fill:url(#SVGID_10_);}
	.st12{fill:url(#SVGID_11_);}
	.st13{opacity:0.6;}
</style>
<g>
	<g>
		
			<image style="overflow:visible;opacity:0.4;" width="65" height="64" xlink:href="9316B212.png"  transform="matrix(1 0 0 1 343 637)">
		</image>
		<g>
			<g>
				<linearGradient id="SVGID_1_" gradientUnits="userSpaceOnUse" x1="375.2258" y1="690.6367" x2="375.2258" y2="638.8561">
					<stop  offset="0" style="stop-color:#C99B14"/>
					<stop  offset="0.2137" style="stop-color:#B78817"/>
					<stop  offset="0.2223" style="stop-color:#B98B1B"/>
					<stop  offset="0.3396" style="stop-color:#D6B74E"/>
					<stop  offset="0.4418" style="stop-color:#EBD774"/>
					<stop  offset="0.524" style="stop-color:#F8EA8B"/>
					<stop  offset="0.5758" style="stop-color:#FDF193"/>
					<stop  offset="0.5784" style="stop-color:#F9EB8A"/>
					<stop  offset="0.589" style="stop-color:#ECD66B"/>
					<stop  offset="0.6011" style="stop-color:#E1C34F"/>
					<stop  offset="0.6146" style="stop-color:#D8B439"/>
					<stop  offset="0.6305" style="stop-color:#D1A928"/>
					<stop  offset="0.6501" style="stop-color:#CDA11D"/>
					<stop  offset="0.6776" style="stop-color:#CA9C16"/>
					<stop  offset="0.754" style="stop-color:#C99B14"/>
					<stop  offset="0.7571" style="stop-color:#C79814"/>
					<stop  offset="0.7907" style="stop-color:#AF7E15"/>
					<stop  offset="0.8275" style="stop-color:#9E6A16"/>
					<stop  offset="0.8692" style="stop-color:#915B17"/>
					<stop  offset="0.9192" style="stop-color:#895317"/>
					<stop  offset="1" style="stop-color:#875017"/>
				</linearGradient>
				<circle class="st0" cx="375.2" cy="666.9" r="25.9"/>
				<linearGradient id="SVGID_2_" gradientUnits="userSpaceOnUse" x1="375.2258" y1="689.7682" x2="375.2258" y2="639.8823">
					<stop  offset="0" style="stop-color:#875017"/>
					<stop  offset="8.081509e-02" style="stop-color:#895317"/>
					<stop  offset="0.1308" style="stop-color:#915B17"/>
					<stop  offset="0.1725" style="stop-color:#9E6A16"/>
					<stop  offset="0.2093" style="stop-color:#AF7E15"/>
					<stop  offset="0.2429" style="stop-color:#C79814"/>
					<stop  offset="0.246" style="stop-color:#C99B14"/>
					<stop  offset="0.3224" style="stop-color:#CA9C16"/>
					<stop  offset="0.3499" style="stop-color:#CDA11D"/>
					<stop  offset="0.3695" style="stop-color:#D1A928"/>
					<stop  offset="0.3854" style="stop-color:#D8B439"/>
					<stop  offset="0.3989" style="stop-color:#E1C34F"/>
					<stop  offset="0.411" style="stop-color:#ECD66B"/>
					<stop  offset="0.4216" style="stop-color:#F9EB8A"/>
					<stop  offset="0.4242" style="stop-color:#FDF193"/>
					<stop  offset="0.476" style="stop-color:#F8EA8B"/>
					<stop  offset="0.5582" style="stop-color:#EBD774"/>
					<stop  offset="0.6604" style="stop-color:#D6B74E"/>
					<stop  offset="0.7777" style="stop-color:#B98B1B"/>
					<stop  offset="0.7863" style="stop-color:#B78817"/>
					<stop  offset="1" style="stop-color:#C99B14"/>
				</linearGradient>
				<circle class="st1" cx="375.2" cy="666.9" r="24.9"/>
				<g>
					<linearGradient id="SVGID_3_" gradientUnits="userSpaceOnUse" x1="375.2258" y1="685.9675" x2="375.2258" y2="647.9755">
						<stop  offset="0" style="stop-color:#C99B14"/>
						<stop  offset="3.745796e-02" style="stop-color:#CFA523"/>
						<stop  offset="0.11" style="stop-color:#E0C14C"/>
						<stop  offset="0.2095" style="stop-color:#FAEC8C"/>
						<stop  offset="0.2195" style="stop-color:#FDF193"/>
						<stop  offset="0.2511" style="stop-color:#FAEC8B"/>
						<stop  offset="0.2989" style="stop-color:#F1DE77"/>
						<stop  offset="0.357" style="stop-color:#E3C754"/>
						<stop  offset="0.4227" style="stop-color:#D0A725"/>
						<stop  offset="0.4445" style="stop-color:#C99B14"/>
						<stop  offset="0.61" style="stop-color:#EDD66C"/>
						<stop  offset="0.6933" style="stop-color:#FDF193"/>
						<stop  offset="0.9055" style="stop-color:#B78817"/>
						<stop  offset="1" style="stop-color:#C99B14"/>
					</linearGradient>
					<circle class="st2" cx="375.2" cy="666.9" r="20"/>
					
						<linearGradient id="SVGID_4_" gradientUnits="userSpaceOnUse" x1="4816.2905" y1="561.7681" x2="4816.2905" y2="522.4974" gradientTransform="matrix(-1 0 0 -1 5191.5161 1210.6722)">
						<stop  offset="0" style="stop-color:#875017"/>
						<stop  offset="0.1072" style="stop-color:#9D6A17"/>
						<stop  offset="0.2475" style="stop-color:#B78817"/>
						<stop  offset="0.6677" style="stop-color:#FDF193"/>
						<stop  offset="0.7431" style="stop-color:#FCEF90"/>
						<stop  offset="0.8008" style="stop-color:#F8E886"/>
						<stop  offset="0.8526" style="stop-color:#F1DD76"/>
						<stop  offset="0.9009" style="stop-color:#E8CE5F"/>
						<stop  offset="0.9469" style="stop-color:#DBB941"/>
						<stop  offset="0.9905" style="stop-color:#CDA11D"/>
						<stop  offset="1" style="stop-color:#C99B14"/>
					</linearGradient>
					<circle class="st3" cx="375.2" cy="666.9" r="19.6"/>
					<linearGradient id="SVGID_5_" gradientUnits="userSpaceOnUse" x1="375.2258" y1="682.9247" x2="375.2258" y2="647.9699">
						<stop  offset="0" style="stop-color:#875017"/>
						<stop  offset="0.1072" style="stop-color:#9D6A17"/>
						<stop  offset="0.2475" style="stop-color:#B78817"/>
						<stop  offset="0.6677" style="stop-color:#FDF193"/>
						<stop  offset="0.7431" style="stop-color:#FCEF90"/>
						<stop  offset="0.8008" style="stop-color:#F8E886"/>
						<stop  offset="0.8526" style="stop-color:#F1DD76"/>
						<stop  offset="0.9009" style="stop-color:#E8CE5F"/>
						<stop  offset="0.9469" style="stop-color:#DBB941"/>
						<stop  offset="0.9905" style="stop-color:#CDA11D"/>
						<stop  offset="1" style="stop-color:#C99B14"/>
					</linearGradient>
					<circle class="st4" cx="375.2" cy="666.9" r="17.5"/>
				</g>
			</g>
		</g>
	</g>
	<g class="st5">
		<image style="overflow:visible;" width="125" height="124" xlink:href="9316B216.png"  transform="matrix(1 0 0 1 313 605)">
		</image>
	</g>
	<g>
		<g>
			<path class="st6" d="M368.1,672c0.2,0.8,0.3,1.4,0.3,2l7.6,0l7.6,0c0-0.7,0.1-1.2,0.3-2H368.1z"/>
			<path class="st6" d="M377.6,659.5c0,0.9-0.7,1.6-1.6,1.6s-1.6-0.7-1.6-1.6c0-0.9,0.7-1.6,1.6-1.6S377.6,658.6,377.6,659.5z"/>
			<path class="st6" d="M382.8,663c0,0.6-0.5,1.2-1.2,1.2c-0.6,0-1.2-0.5-1.2-1.2c0-0.6,0.5-1.2,1.2-1.2
				C382.2,661.9,382.8,662.4,382.8,663z"/>
			<circle class="st6" cx="387.1" cy="664.9" r="0.8"/>
			<circle class="st6" cx="364.8" cy="664.9" r="0.8"/>
			<path class="st6" d="M371.4,663c0,0.6-0.5,1.2-1.2,1.2c-0.6,0-1.2-0.5-1.2-1.2c0-0.6,0.5-1.2,1.2-1.2
				C370.9,661.9,371.4,662.4,371.4,663z"/>
			<g>
				<path class="st6" d="M384.6,669.9c1-2.9,2.5-5,2.5-5l-2.5,1.1c-1.2,0.6-2.6-0.2-2.7-1.5l-0.2-1.6l-1.5,1.4
					c-0.9,0.9-2.4,0.5-2.8-0.7l-1.4-4.2l-1.4,4.1c-0.4,1.2-1.9,1.5-2.8,0.7l-1.5-1.4l-0.2,1.5c-0.2,1.3-1.5,2-2.7,1.5l-2.5-1
					c0,0,1.5,2.1,2.5,5H384.6z"/>
				<path class="st6" d="M367.6,670.2c0.1,0.5,0.2,0.8,0.3,1.1H384c0.1-0.3,0.2-0.5,0.3-1.1H367.6z"/>
			</g>
		</g>
	</g>
	<g>
		<radialGradient id="SVGID_6_" cx="395.2643" cy="666.9035" r="7.8846" gradientUnits="userSpaceOnUse">
			<stop  offset="0" style="stop-color:#FFFFFF"/>
			<stop  offset="5.213898e-02" style="stop-color:#E1E1E1"/>
			<stop  offset="0.1544" style="stop-color:#ADADAD"/>
			<stop  offset="0.2611" style="stop-color:#7F7F7F"/>
			<stop  offset="0.3699" style="stop-color:#585858"/>
			<stop  offset="0.4816" style="stop-color:#383838"/>
			<stop  offset="0.5969" style="stop-color:#1F1F1F"/>
			<stop  offset="0.7175" style="stop-color:#0E0E0E"/>
			<stop  offset="0.8468" style="stop-color:#030303"/>
			<stop  offset="1" style="stop-color:#000000"/>
		</radialGradient>
		<path class="st7" d="M403.1,666.4c0.3,4.8-3.6,8.7-8.4,8.4c-3.9-0.2-7.1-3.4-7.4-7.4c-0.3-4.8,3.6-8.7,8.4-8.4
			C399.7,659.3,402.9,662.5,403.1,666.4z"/>
		<g>
			
				<radialGradient id="SVGID_7_" cx="208.4624" cy="399.573" r="72.7382" gradientTransform="matrix(-0.4837 0.2227 3.195533e-02 6.936332e-02 483.6216 593.3981)" gradientUnits="userSpaceOnUse">
				<stop  offset="0" style="stop-color:#FFC107"/>
				<stop  offset="2.610862e-03" style="stop-color:#FEC007"/>
				<stop  offset="0.1239" style="stop-color:#C39405"/>
				<stop  offset="0.2478" style="stop-color:#8F6C04"/>
				<stop  offset="0.3721" style="stop-color:#634B03"/>
				<stop  offset="0.4966" style="stop-color:#3F3002"/>
				<stop  offset="0.6213" style="stop-color:#241B01"/>
				<stop  offset="0.7463" style="stop-color:#100C00"/>
				<stop  offset="0.8722" style="stop-color:#040300"/>
				<stop  offset="1" style="stop-color:#000000"/>
			</radialGradient>
			<path class="st8" d="M367.6,679.7c1.6,3.5,15.3,0.6,30.6-6.4c15.3-7,26.4-15.6,24.8-19.1c-1.6-3.5-15.3-0.6-30.6,6.4
				C377.1,667.6,366,676.1,367.6,679.7z"/>
		</g>
	</g>
	<g>
		
			<radialGradient id="SVGID_8_" cx="-2506.6357" cy="-653.882" r="12.2696" gradientTransform="matrix(0.9974 -7.220000e-02 -7.220000e-02 -0.9974 2814.4338 -183.5032)" gradientUnits="userSpaceOnUse">
			<stop  offset="0" style="stop-color:#E0342E"/>
			<stop  offset="7.914821e-03" style="stop-color:#D8322C"/>
			<stop  offset="6.051940e-02" style="stop-color:#A62722"/>
			<stop  offset="0.1157" style="stop-color:#791D19"/>
			<stop  offset="0.1726" style="stop-color:#541411"/>
			<stop  offset="0.2314" style="stop-color:#350D0B"/>
			<stop  offset="0.293" style="stop-color:#1E0806"/>
			<stop  offset="0.3584" style="stop-color:#0D0403"/>
			<stop  offset="0.4303" style="stop-color:#030201"/>
			<stop  offset="0.5212" style="stop-color:#000100"/>
		</radialGradient>
		<path class="st9" d="M373.8,648.8c-0.5-6.8-6.4-11.8-13.1-11.4c-6.8,0.5-11.8,6.4-11.4,13.1c0.5,6.8,6.4,11.8,13.1,11.4
			C369.2,661.4,374.3,655.5,373.8,648.8z"/>
		
			<radialGradient id="SVGID_9_" cx="-2506.6357" cy="-653.882" r="12.2696" gradientTransform="matrix(0.9974 -7.220000e-02 -7.220000e-02 -0.9974 2814.4338 -183.5032)" gradientUnits="userSpaceOnUse">
			<stop  offset="0" style="stop-color:#E0342E"/>
			<stop  offset="7.914821e-03" style="stop-color:#D8322C"/>
			<stop  offset="6.051940e-02" style="stop-color:#A62722"/>
			<stop  offset="0.1157" style="stop-color:#791D19"/>
			<stop  offset="0.1726" style="stop-color:#541411"/>
			<stop  offset="0.2314" style="stop-color:#350D0B"/>
			<stop  offset="0.293" style="stop-color:#1E0806"/>
			<stop  offset="0.3584" style="stop-color:#0D0403"/>
			<stop  offset="0.4303" style="stop-color:#030201"/>
			<stop  offset="0.5212" style="stop-color:#000100"/>
		</radialGradient>
		<path class="st10" d="M373.8,648.8c-0.5-6.8-6.4-11.8-13.1-11.4c-6.8,0.5-11.8,6.4-11.4,13.1c0.5,6.8,6.4,11.8,13.1,11.4
			C369.2,661.4,374.3,655.5,373.8,648.8z"/>
		
			<radialGradient id="SVGID_10_" cx="-261.2742" cy="-189.5988" r="7.5898" gradientTransform="matrix(0.8289 0.8224 2.1743 -2.1912 990.3408 449.081)" gradientUnits="userSpaceOnUse">
			<stop  offset="0" style="stop-color:#FFEC87;stop-opacity:0.99"/>
			<stop  offset="8.484850e-02" style="stop-color:#FFEC87"/>
			<stop  offset="0.1369" style="stop-color:#C6B769"/>
			<stop  offset="0.1914" style="stop-color:#92884D"/>
			<stop  offset="0.2468" style="stop-color:#655E36"/>
			<stop  offset="0.3021" style="stop-color:#413D22"/>
			<stop  offset="0.3572" style="stop-color:#242313"/>
			<stop  offset="0.4122" style="stop-color:#101009"/>
			<stop  offset="0.4669" style="stop-color:#040502"/>
			<stop  offset="0.5212" style="stop-color:#000100"/>
		</radialGradient>
		<path class="st11" d="M367.8,655.9c9.1-9.2,13.7-19.4,10.2-22.9c-3.5-3.4-13.7,1.2-22.8,10.4c-9.1,9.2-13.7,19.4-10.2,22.9
			C348.5,669.7,358.7,665.1,367.8,655.9z"/>
		
			<radialGradient id="SVGID_11_" cx="-2506.6357" cy="-653.882" r="8.8847" gradientTransform="matrix(0.9974 -7.220000e-02 -7.220000e-02 -0.9974 2814.4338 -183.5032)" gradientUnits="userSpaceOnUse">
			<stop  offset="0" style="stop-color:#FFFFFF"/>
			<stop  offset="3.438386e-02" style="stop-color:#D8D8D8"/>
			<stop  offset="8.427510e-02" style="stop-color:#A6A6A6"/>
			<stop  offset="0.1366" style="stop-color:#797A79"/>
			<stop  offset="0.1905" style="stop-color:#545554"/>
			<stop  offset="0.2464" style="stop-color:#353635"/>
			<stop  offset="0.3048" style="stop-color:#1E1F1E"/>
			<stop  offset="0.3668" style="stop-color:#0D0E0D"/>
			<stop  offset="0.435" style="stop-color:#030403"/>
			<stop  offset="0.5212" style="stop-color:#000100"/>
		</radialGradient>
		<path class="st12" d="M370.4,649c-0.4-4.9-4.6-8.6-9.5-8.2c-4.9,0.4-8.6,4.6-8.2,9.5c0.4,4.9,4.6,8.6,9.5,8.2
			C367.1,658.2,370.7,653.9,370.4,649z"/>
	</g>
	<g class="st13">
		<image style="overflow:visible;" width="172" height="172" xlink:href="9316B211.png"  transform="matrix(1 0 0 1 289 581)">
		</image>
	</g>
</g>
<g>
</g>
<g>
</g>
<g>
</g>
<g>
</g>
<g>
</g>
<g>
</g>
<g>
</g>
<g>
</g>
<g>
</g>
<g>
</g>
<g>
</g>
</svg>
