<?xml version="1.0" encoding="utf-8"?>
<!-- Generator: Adobe Illustrator 22.0.0, SVG Export Plug-In . SVG Version: 6.00 Build 0)  -->
<svg version="1.1" id="Layer_1" xmlns="http://www.w3.org/2000/svg" xmlns:xlink="http://www.w3.org/1999/xlink" x="0px" y="0px"
	 viewBox="0 0 750 1334" style="enable-background:new 0 0 750 1334;" xml:space="preserve">
<style type="text/css">
	.st0{fill:url(#SVGID_1_);}
	.st1{fill:url(#SVGID_2_);}
	.st2{fill:url(#SVGID_3_);}
	.st3{fill:url(#SVGID_4_);}
	.st4{fill:url(#SVGID_5_);}
	.st5{fill:url(#SVGID_6_);}
	.st6{fill:url(#SVGID_7_);}
	.st7{fill:url(#SVGID_8_);}
	.st8{fill:url(#SVGID_9_);}
	.st9{fill:url(#SVGID_10_);}
</style>
<g>
	<linearGradient id="SVGID_1_" gradientUnits="userSpaceOnUse" x1="212.913" y1="639.0213" x2="212.913" y2="693.3365">
		<stop  offset="0" style="stop-color:#E7D04E"/>
		<stop  offset="0.3316" style="stop-color:#DEC757"/>
	</linearGradient>
	<path class="st0" d="M192.9,693.3V639h11.7l8.4,41.6l8.4-41.6h11.7v54.3h-8.4v-42.9l-8.4,42.9h-6.3l-8.4-42.9v42.9H192.9z"/>
	<linearGradient id="SVGID_2_" gradientUnits="userSpaceOnUse" x1="253.9045" y1="639.0213" x2="253.9045" y2="693.3365">
		<stop  offset="0" style="stop-color:#E7D04E"/>
		<stop  offset="0.3316" style="stop-color:#DEC757"/>
	</linearGradient>
	<path class="st1" d="M249.7,693.3v-17.5L237,639h8.4l8.4,27.2l8.4-27.2h8.4l-12.6,36.9v17.5H249.7z"/>
	<linearGradient id="SVGID_3_" gradientUnits="userSpaceOnUse" x1="289.1835" y1="638.4761" x2="289.1835" y2="693.8823">
		<stop  offset="0" style="stop-color:#E7D04E"/>
		<stop  offset="0.3316" style="stop-color:#DEC757"/>
	</linearGradient>
	<path class="st2" d="M290.3,693.9c-5.3,0-9.4-1.4-12.2-4.3c-2.8-2.9-4.4-6.8-4.7-11.8l8.4-1.9c0.4,7.8,3.2,11.6,8.4,11.6
		c4.2,0,6.3-1.9,6.3-5.8c0-1.2-0.2-2.2-0.5-3.2c-0.3-1-0.9-1.9-1.6-2.7c-0.7-0.8-1.3-1.5-1.9-2c-0.6-0.5-1.3-1.1-2.3-1.8l-10.5-7.8
		c-1.9-1.4-3.5-3.2-4.6-5.3c-1.2-2.2-1.7-4.6-1.7-7.4c0-4,1.3-7.2,4-9.5c2.7-2.4,6.3-3.5,10.7-3.5c4.8,0,8.6,1.1,11.4,3.2
		c2.8,2.2,4.6,5.2,5.2,9.1c0.1,0.4,0.1,1,0.2,1.8l-8.4,1.9c0-0.3-0.1-0.9-0.2-1.5c-0.4-2.5-1.2-4.4-2.5-5.9
		c-1.3-1.5-3.2-2.2-5.7-2.2c-2,0-3.6,0.5-4.7,1.6c-1.1,1-1.6,2.5-1.6,4.3c0,3.1,1.4,5.6,4.2,7.7l10.5,7.8c5.6,4.2,8.4,9.2,8.4,15
		c0,4-1.3,7.1-4,9.3C298.3,692.8,294.8,693.9,290.3,693.9z"/>
	<linearGradient id="SVGID_4_" gradientUnits="userSpaceOnUse" x1="321.6643" y1="639.0213" x2="321.6643" y2="693.3365">
		<stop  offset="0" style="stop-color:#E7D04E"/>
		<stop  offset="0.3316" style="stop-color:#DEC757"/>
	</linearGradient>
	<path class="st3" d="M317.4,693.3v-47.4h-10.5V639h29.5v6.9h-10.5v47.4H317.4z"/>
	<linearGradient id="SVGID_5_" gradientUnits="userSpaceOnUse" x1="352.1854" y1="639.0213" x2="352.1854" y2="693.3365">
		<stop  offset="0" style="stop-color:#E7D04E"/>
		<stop  offset="0.3316" style="stop-color:#DEC757"/>
	</linearGradient>
	<path class="st4" d="M340.6,693.3V639h23.2v5.8H349v17.5h10.5v5.8H349v19.4h14.8v5.8H340.6z"/>
	<linearGradient id="SVGID_6_" gradientUnits="userSpaceOnUse" x1="384.7481" y1="639.0213" x2="384.7481" y2="693.3365">
		<stop  offset="0" style="stop-color:#E7D04E"/>
		<stop  offset="0.3316" style="stop-color:#DEC757"/>
	</linearGradient>
	<path class="st5" d="M368.9,693.3V639h10.5c6.3,0,11,1.1,14.2,3.4s4.8,6,4.8,11.2c0,3.2-0.6,5.9-1.9,8.1c-1.3,2.2-3.1,3.7-5.5,4.5
		l9.5,27.2h-8.4l-8.5-25.2h-6.3v25.2H368.9z M377.4,662.3h2.1c3.5,0,6.1-0.7,7.9-2c1.8-1.4,2.6-3.6,2.6-6.7s-0.9-5.3-2.6-6.7
		c-1.8-1.4-4.4-2-7.9-2h-2.1V662.3z"/>
	<linearGradient id="SVGID_7_" gradientUnits="userSpaceOnUse" x1="416.9489" y1="639.0213" x2="416.9489" y2="693.3365">
		<stop  offset="0" style="stop-color:#E7D04E"/>
		<stop  offset="0.3316" style="stop-color:#DEC757"/>
	</linearGradient>
	<path class="st6" d="M412.7,693.3v-17.5L400.1,639h8.4l8.4,27.2l8.4-27.2h8.4l-12.6,36.9v17.5H412.7z"/>
	<linearGradient id="SVGID_8_" gradientUnits="userSpaceOnUse" x1="467.4227" y1="639.0213" x2="467.4227" y2="693.3365">
		<stop  offset="0" style="stop-color:#E7D04E"/>
		<stop  offset="0.3316" style="stop-color:#DEC757"/>
	</linearGradient>
	<path class="st7" d="M451.6,693.3V639h12.6c2.7,0,5.2,0.3,7.3,0.8c2.2,0.5,4,1.3,5.6,2.4c1.6,1.1,2.9,2.5,3.7,4.2
		c0.9,1.8,1.3,3.8,1.3,6.2c0,3.4-0.8,6-2.3,7.7s-4,3.1-7.2,3.9c3.5,1.1,6.1,2.6,7.9,4.7c1.8,2.1,2.6,5,2.6,8.9
		c0,4.8-1.5,8.6-4.5,11.4c-3,2.8-7.1,4.2-12.3,4.2H451.6z M460,662.3h4.2c7,0,10.5-3.2,10.5-9.7c0-1.1-0.1-2-0.4-2.8
		c-0.3-0.8-0.6-1.5-1-2c-0.4-0.5-1-1-1.8-1.4c-0.8-0.4-1.5-0.7-2.2-0.9c-0.7-0.2-1.6-0.3-2.8-0.4s-2.2-0.1-3-0.2c-0.8,0-2,0-3.5,0
		V662.3z M460,687.5h4.2c3.6,0,6.3-0.8,8-2.3c1.7-1.5,2.5-4,2.5-7.4c0-3.4-0.8-5.8-2.5-7.4c-1.7-1.5-4.4-2.3-8-2.3H460V687.5z"/>
	<linearGradient id="SVGID_9_" gradientUnits="userSpaceOnUse" x1="504.5621" y1="638.4761" x2="504.5621" y2="693.8823">
		<stop  offset="0" style="stop-color:#E7D04E"/>
		<stop  offset="0.3316" style="stop-color:#DEC757"/>
	</linearGradient>
	<path class="st8" d="M504.6,693.9c-3,0-5.5-0.4-7.6-1.2c-2.1-0.8-3.8-2-5.1-3.6c-1.3-1.6-2.2-3.5-2.7-5.6c-0.6-2.2-0.9-4.7-0.9-7.5
		v-19.7c0-2.8,0.3-5.3,0.9-7.5c0.6-2.1,1.5-4,2.7-5.5c1.3-1.6,2.9-2.7,5.1-3.5c2.1-0.8,4.7-1.2,7.6-1.2c5.8,0,9.9,1.5,12.4,4.5
		c2.5,3,3.8,7.4,3.8,13.2v19.7c0,2.8-0.3,5.3-0.9,7.4c-0.6,2.2-1.5,4-2.7,5.6c-1.3,1.6-2.9,2.8-5.1,3.7
		C510,693.5,507.5,693.9,504.6,693.9z M498.4,685.1c1.1,1.6,3.2,2.5,6.1,2.5s5-0.8,6.1-2.5c1.1-1.6,1.7-4.1,1.7-7.2v-23.6
		c0-3.2-0.6-5.5-1.7-7.1c-1.1-1.6-3.2-2.3-6.2-2.3c-3,0-5,0.8-6.2,2.3c-1.1,1.6-1.7,3.9-1.7,7.1v23.6
		C496.7,681,497.3,683.4,498.4,685.1z"/>
	<linearGradient id="SVGID_10_" gradientUnits="userSpaceOnUse" x1="541.1425" y1="639.0213" x2="541.1425" y2="693.3365">
		<stop  offset="0" style="stop-color:#E7D04E"/>
		<stop  offset="0.3316" style="stop-color:#DEC757"/>
	</linearGradient>
	<path class="st9" d="M524.4,693.3l10.5-28.2L524.3,639h8.4l8.4,21.3l8.4-21.3h8.4l-10.5,26l10.4,28.3h-8.4l-8.4-23.3l-8.4,23.3
		H524.4z"/>
</g>
<g>
</g>
<g>
</g>
<g>
</g>
<g>
</g>
<g>
</g>
<g>
</g>
<g>
</g>
<g>
</g>
<g>
</g>
<g>
</g>
<g>
</g>
</svg>
