<?xml version="1.0" encoding="utf-8"?>
<!-- Generator: Adobe Illustrator 22.0.0, SVG Export Plug-In . SVG Version: 6.00 Build 0)  -->
<svg version="1.1" id="Layer_1" xmlns="http://www.w3.org/2000/svg" xmlns:xlink="http://www.w3.org/1999/xlink" x="0px" y="0px"
	 viewBox="0 0 750 1334" style="enable-background:new 0 0 750 1334;" xml:space="preserve">
<style type="text/css">
	.st0{fill:#FFFFFF;}
</style>
<g>
	<path class="st0" d="M281.5,682.8c-3.8,0-6.6-1.1-8.2-3.2c-1.6-2.2-2.5-5.3-2.5-9.5h6.2v1c0,0.8,0,1.5,0.1,2.1
		c0.1,0.6,0.2,1.2,0.3,1.9c0.2,0.6,0.4,1.1,0.7,1.5c0.3,0.4,0.7,0.7,1.2,1c0.5,0.3,1.1,0.4,1.8,0.4c0.6,0,1.1-0.1,1.5-0.2
		c0.5-0.1,0.8-0.3,1.2-0.5c0.3-0.2,0.6-0.5,0.9-0.9c0.3-0.4,0.5-0.7,0.6-1.1c0.2-0.3,0.3-0.8,0.4-1.4c0.1-0.6,0.2-1.1,0.3-1.5
		s0.1-0.9,0.1-1.7s0-1.3,0-1.7s0-1,0-1.8c0-0.4,0-0.6,0-0.8c0-0.7,0-1.3,0-1.8s-0.1-1-0.1-1.6c-0.1-0.6-0.2-1-0.3-1.4
		c-0.1-0.4-0.3-0.8-0.5-1.2c-0.2-0.4-0.5-0.7-0.8-0.9c-0.3-0.2-0.7-0.4-1.2-0.5s-1-0.2-1.6-0.2c-1.1,0-2,0.4-2.8,1.1
		c-0.8,0.7-1.4,1.5-1.8,2.5h-5.2v-23.2h19v6.2h-13.5l-0.4,10.4c1.7-1,3.8-1.5,6.2-1.5c1.4,0,2.6,0.2,3.7,0.6c1.1,0.4,1.9,1,2.6,1.7
		c0.7,0.7,1.3,1.7,1.7,2.7c0.4,1.1,0.8,2.2,0.9,3.5c0.2,1.2,0.3,2.6,0.3,4.1c0,1.8-0.1,3.5-0.3,5c-0.2,1.5-0.5,2.9-1,4.3
		c-0.5,1.4-1.1,2.5-1.9,3.5c-0.8,0.9-1.8,1.7-3.1,2.2C284.7,682.5,283.2,682.8,281.5,682.8z"/>
	<path class="st0" d="M309,682.8c-2.3,0-4.3-0.6-6-1.7c-1.6-1.1-2.9-2.6-3.6-4.5c-0.8-1.9-1.2-4.1-1.2-6.6v-18.5
		c0-4,0.9-7.1,2.7-9.3c1.8-2.3,4.5-3.4,8.1-3.4c3.6,0,6.3,1.1,8.1,3.4c1.8,2.3,2.7,5.4,2.7,9.3V670c0,3.9-0.9,7-2.8,9.3
		C315.1,681.6,312.5,682.8,309,682.8z M309,677.7c3.1,0,4.6-2.6,4.6-7.7v-18.5c0-0.9,0-1.6-0.1-2.3c-0.1-0.7-0.2-1.4-0.4-2.1
		c-0.2-0.7-0.5-1.3-0.8-1.7c-0.3-0.5-0.8-0.8-1.3-1.1c-0.6-0.3-1.2-0.4-2-0.4c-0.8,0-1.4,0.1-2,0.4c-0.6,0.3-1,0.7-1.3,1.1
		c-0.3,0.5-0.6,1-0.8,1.7c-0.2,0.7-0.3,1.4-0.4,2.1c-0.1,0.7-0.1,1.5-0.1,2.3V670c0,1,0.1,1.9,0.2,2.8c0.1,0.8,0.4,1.7,0.7,2.4
		c0.3,0.8,0.8,1.4,1.4,1.8C307.3,677.5,308.1,677.7,309,677.7z"/>
	<path class="st0" d="M350.2,682.8c-1.8,0-3.4-0.3-4.8-0.8c-1.4-0.5-2.5-1.2-3.4-2.1c-0.9-0.9-1.6-2-2.2-3.4
		c-0.6-1.4-0.9-2.8-1.2-4.3c-0.2-1.5-0.3-3.3-0.3-5.2v-12.3c0-1.9,0.1-3.7,0.3-5.2c0.2-1.5,0.6-3,1.2-4.3c0.6-1.4,1.3-2.5,2.2-3.4
		c0.9-0.9,2-1.6,3.4-2.1c1.4-0.5,3-0.8,4.8-0.8c2,0,3.7,0.3,5.2,0.9c1.5,0.6,2.6,1.5,3.5,2.6c0.9,1.2,1.5,2.5,2,4
		c0.4,1.5,0.7,3.3,0.8,5.3c0,0.3,0,0.8,0,1.4h-6.2v-1.4c0-0.8,0-1.6-0.1-2.2c0-0.6-0.1-1.2-0.3-1.9c-0.1-0.6-0.3-1.2-0.6-1.6
		c-0.2-0.4-0.6-0.8-0.9-1.2c-0.4-0.4-0.9-0.6-1.4-0.8c-0.6-0.2-1.2-0.3-2-0.3c-1,0-1.8,0.2-2.6,0.5c-0.7,0.3-1.3,0.7-1.7,1.2
		c-0.4,0.5-0.7,1.2-0.9,2c-0.2,0.8-0.4,1.7-0.4,2.5c-0.1,0.8-0.1,1.8-0.1,3v15.4c0,1,0,2,0.1,2.8c0.1,0.8,0.3,1.7,0.5,2.5
		c0.3,0.8,0.6,1.5,1,2.1c0.4,0.6,1,1,1.6,1.4c0.7,0.3,1.5,0.5,2.4,0.5c0.9,0,1.7-0.2,2.4-0.5c0.7-0.4,1.2-0.8,1.6-1.3
		s0.7-1.2,0.9-2.1c0.2-0.8,0.4-1.7,0.4-2.5c0.1-0.8,0.1-1.7,0.1-2.8v-1.5h6.2v1.5c0,2.2-0.2,4.2-0.6,5.9c-0.4,1.7-1,3.2-1.9,4.5
		c-0.9,1.3-2.1,2.3-3.6,2.9C354.1,682.4,352.3,682.8,350.2,682.8z"/>
	<path class="st0" d="M383.3,679.9c-1.4,1.9-3.8,2.9-7.1,2.9s-5.7-1-7.1-2.9c-1.4-1.9-2.1-4.7-2.1-8.3v-9.2c0-3.6,0.7-6.4,2.1-8.3
		c1.4-1.9,3.8-2.9,7.1-2.9s5.7,1,7.1,2.9s2.1,4.7,2.1,8.3v9.2C385.4,675.2,384.7,678,383.3,679.9z M375,677.5
		c0.3,0.1,0.7,0.2,1.1,0.2s0.8-0.1,1.1-0.2c0.3-0.1,0.6-0.3,0.8-0.5c0.2-0.2,0.4-0.5,0.5-0.8c0.1-0.4,0.3-0.7,0.3-0.9
		s0.1-0.7,0.2-1.2s0.1-0.9,0.1-1.2c0-0.3,0-0.7,0-1.3v-9.2c0-0.6,0-1,0-1.3c0-0.3,0-0.7-0.1-1.2c0-0.5-0.1-0.9-0.2-1.2
		c-0.1-0.3-0.2-0.6-0.3-0.9c-0.1-0.4-0.3-0.6-0.5-0.8c-0.2-0.2-0.5-0.3-0.8-0.5c-0.3-0.1-0.7-0.2-1.1-0.2s-0.8,0.1-1.1,0.2
		c-0.3,0.1-0.6,0.3-0.8,0.5c-0.2,0.2-0.4,0.5-0.5,0.8c-0.1,0.4-0.3,0.7-0.3,0.9c-0.1,0.3-0.1,0.7-0.2,1.2c0,0.5-0.1,0.9-0.1,1.2
		c0,0.3,0,0.7,0,1.3v9.2c0,0.6,0,1,0,1.3c0,0.3,0,0.7,0.1,1.2s0.1,0.9,0.2,1.2c0.1,0.3,0.2,0.6,0.3,0.9c0.1,0.4,0.3,0.6,0.5,0.8
		C374.4,677.2,374.7,677.4,375,677.5z"/>
	<path class="st0" d="M392.7,646.9v-6.2h6.2v6.2H392.7z M392.7,682.3v-30.8h6.2v30.8H392.7z"/>
	<path class="st0" d="M406.8,682.3v-30.8h6.2v3.3c0.9-0.8,1.7-1.5,2.2-1.9c0.6-0.4,1.4-0.9,2.4-1.2s2.1-0.6,3.3-0.6
		c1.3,0,2.4,0.5,3.2,1.4s1.2,2.1,1.2,3.5v26.2h-6.2v-23.1c0-1.1-0.2-1.9-0.5-2.3c-0.3-0.5-0.9-0.7-1.9-0.7c-0.5,0-1.1,0.1-1.6,0.3
		s-0.9,0.4-1.2,0.6c-0.3,0.2-0.6,0.5-1.1,0.9v24.3H406.8z"/>
	<path class="st0" d="M440.7,682.8c-2.5,0-4.6-0.8-6.1-2.3c-1.5-1.5-2.6-3.5-3.1-5.9l4.6-1.5c1.1,3.1,2.6,4.6,4.6,4.6
		c1,0,1.7-0.3,2.3-0.8c0.5-0.5,0.8-1.3,0.8-2.3c0-1.4-0.5-2.6-1.5-3.6l-6.2-4.6c-0.7-0.5-1.3-0.9-1.7-1.3c-0.5-0.4-0.9-0.9-1.4-1.5
		c-0.5-0.6-0.8-1.3-1.1-2c-0.2-0.7-0.4-1.5-0.4-2.4c0-2.6,0.8-4.6,2.5-6s3.9-2.1,6.7-2.1c1.3,0,2.5,0.2,3.6,0.6c1.1,0.4,2,1,2.7,1.8
		c0.7,0.8,1.3,1.6,1.8,2.6c0.5,0.9,0.8,2,1.1,3.1l-4.6,1.5c-0.2-0.6-0.4-1.1-0.7-1.6s-0.5-0.9-0.9-1.4c-0.4-0.5-0.8-0.9-1.3-1.2
		c-0.5-0.3-1.1-0.4-1.7-0.4c-1,0-1.7,0.3-2.3,0.8c-0.5,0.5-0.8,1.3-0.8,2.3c0,1,0.5,1.8,1.5,2.6l6.2,4.6c0.7,0.5,1.3,1.1,1.8,1.6
		c0.5,0.5,1,1.1,1.4,1.8c0.5,0.7,0.8,1.4,1.1,2.2c0.2,0.8,0.4,1.7,0.4,2.6c0,2.6-0.8,4.6-2.5,6C445.8,682.1,443.5,682.8,440.7,682.8
		z"/>
</g>
<g>
</g>
<g>
</g>
<g>
</g>
<g>
</g>
<g>
</g>
<g>
</g>
<g>
</g>
<g>
</g>
<g>
</g>
<g>
</g>
<g>
</g>
</svg>
