<?xml version="1.0" encoding="utf-8"?>
<!-- Generator: Adobe Illustrator 22.0.0, SVG Export Plug-In . SVG Version: 6.00 Build 0)  -->
<svg version="1.1" id="Layer_1" xmlns="http://www.w3.org/2000/svg" xmlns:xlink="http://www.w3.org/1999/xlink" x="0px" y="0px"
	 viewBox="0 0 750 1334" style="enable-background:new 0 0 750 1334;" xml:space="preserve">
<style type="text/css">
	.st0{fill:url(#SVGID_1_);}
	.st1{fill:url(#SVGID_2_);}
	.st2{fill:url(#SVGID_3_);}
	.st3{fill:url(#SVGID_4_);}
	.st4{fill:url(#SVGID_5_);}
	.st5{opacity:0.5;}
	.st6{fill:#A47B20;}
	.st7{fill:url(#SVGID_6_);}
	.st8{opacity:0.4;fill:url(#SVGID_7_);}
	.st9{fill:url(#SVGID_8_);}
	.st10{fill:url(#SVGID_9_);}
	.st11{opacity:0.75;fill:url(#SVGID_10_);}
	.st12{fill:url(#SVGID_11_);}
	.st13{opacity:0.6;}
</style>
<g>
	<g>
		
			<image style="overflow:visible;opacity:0.4;" width="66" height="66" xlink:href="1B55443D.png"  transform="matrix(1 0 0 1 342 636)">
		</image>
		<g>
			<g>
				<linearGradient id="SVGID_1_" gradientUnits="userSpaceOnUse" x1="375.2303" y1="691.1094" x2="375.2303" y2="638.2933">
					<stop  offset="0" style="stop-color:#C99B14"/>
					<stop  offset="0.2137" style="stop-color:#B78817"/>
					<stop  offset="0.2223" style="stop-color:#B98B1B"/>
					<stop  offset="0.3396" style="stop-color:#D6B74E"/>
					<stop  offset="0.4418" style="stop-color:#EBD774"/>
					<stop  offset="0.524" style="stop-color:#F8EA8B"/>
					<stop  offset="0.5758" style="stop-color:#FDF193"/>
					<stop  offset="0.5784" style="stop-color:#F9EB8A"/>
					<stop  offset="0.589" style="stop-color:#ECD66B"/>
					<stop  offset="0.6011" style="stop-color:#E1C34F"/>
					<stop  offset="0.6146" style="stop-color:#D8B439"/>
					<stop  offset="0.6305" style="stop-color:#D1A928"/>
					<stop  offset="0.6501" style="stop-color:#CDA11D"/>
					<stop  offset="0.6776" style="stop-color:#CA9C16"/>
					<stop  offset="0.754" style="stop-color:#C99B14"/>
					<stop  offset="0.7571" style="stop-color:#C79814"/>
					<stop  offset="0.7907" style="stop-color:#AF7E15"/>
					<stop  offset="0.8275" style="stop-color:#9E6A16"/>
					<stop  offset="0.8692" style="stop-color:#915B17"/>
					<stop  offset="0.9192" style="stop-color:#895317"/>
					<stop  offset="1" style="stop-color:#875017"/>
				</linearGradient>
				<circle class="st0" cx="375.2" cy="666.9" r="26.4"/>
				<linearGradient id="SVGID_2_" gradientUnits="userSpaceOnUse" x1="375.2303" y1="690.2236" x2="375.2303" y2="639.34">
					<stop  offset="0" style="stop-color:#875017"/>
					<stop  offset="8.081509e-02" style="stop-color:#895317"/>
					<stop  offset="0.1308" style="stop-color:#915B17"/>
					<stop  offset="0.1725" style="stop-color:#9E6A16"/>
					<stop  offset="0.2093" style="stop-color:#AF7E15"/>
					<stop  offset="0.2429" style="stop-color:#C79814"/>
					<stop  offset="0.246" style="stop-color:#C99B14"/>
					<stop  offset="0.3224" style="stop-color:#CA9C16"/>
					<stop  offset="0.3499" style="stop-color:#CDA11D"/>
					<stop  offset="0.3695" style="stop-color:#D1A928"/>
					<stop  offset="0.3854" style="stop-color:#D8B439"/>
					<stop  offset="0.3989" style="stop-color:#E1C34F"/>
					<stop  offset="0.411" style="stop-color:#ECD66B"/>
					<stop  offset="0.4216" style="stop-color:#F9EB8A"/>
					<stop  offset="0.4242" style="stop-color:#FDF193"/>
					<stop  offset="0.476" style="stop-color:#F8EA8B"/>
					<stop  offset="0.5582" style="stop-color:#EBD774"/>
					<stop  offset="0.6604" style="stop-color:#D6B74E"/>
					<stop  offset="0.7777" style="stop-color:#B98B1B"/>
					<stop  offset="0.7863" style="stop-color:#B78817"/>
					<stop  offset="1" style="stop-color:#C99B14"/>
				</linearGradient>
				<circle class="st1" cx="375.2" cy="666.9" r="25.4"/>
				<g>
					<linearGradient id="SVGID_3_" gradientUnits="userSpaceOnUse" x1="375.2303" y1="686.3469" x2="375.2303" y2="647.595">
						<stop  offset="0" style="stop-color:#C99B14"/>
						<stop  offset="3.745796e-02" style="stop-color:#CFA523"/>
						<stop  offset="0.11" style="stop-color:#E0C14C"/>
						<stop  offset="0.2095" style="stop-color:#FAEC8C"/>
						<stop  offset="0.2195" style="stop-color:#FDF193"/>
						<stop  offset="0.2511" style="stop-color:#FAEC8B"/>
						<stop  offset="0.2989" style="stop-color:#F1DE77"/>
						<stop  offset="0.357" style="stop-color:#E3C754"/>
						<stop  offset="0.4227" style="stop-color:#D0A725"/>
						<stop  offset="0.4445" style="stop-color:#C99B14"/>
						<stop  offset="0.61" style="stop-color:#EDD66C"/>
						<stop  offset="0.6933" style="stop-color:#FDF193"/>
						<stop  offset="0.9055" style="stop-color:#B78817"/>
						<stop  offset="1" style="stop-color:#C99B14"/>
					</linearGradient>
					<circle class="st2" cx="375.2" cy="666.9" r="20.4"/>
					
						<linearGradient id="SVGID_4_" gradientUnits="userSpaceOnUse" x1="4816.2856" y1="562.1299" x2="4816.2856" y2="522.0739" gradientTransform="matrix(-1 0 0 -1 5191.5161 1210.6722)">
						<stop  offset="0" style="stop-color:#875017"/>
						<stop  offset="0.1072" style="stop-color:#9D6A17"/>
						<stop  offset="0.2475" style="stop-color:#B78817"/>
						<stop  offset="0.6677" style="stop-color:#FDF193"/>
						<stop  offset="0.7431" style="stop-color:#FCEF90"/>
						<stop  offset="0.8008" style="stop-color:#F8E886"/>
						<stop  offset="0.8526" style="stop-color:#F1DD76"/>
						<stop  offset="0.9009" style="stop-color:#E8CE5F"/>
						<stop  offset="0.9469" style="stop-color:#DBB941"/>
						<stop  offset="0.9905" style="stop-color:#CDA11D"/>
						<stop  offset="1" style="stop-color:#C99B14"/>
					</linearGradient>
					<circle class="st3" cx="375.2" cy="666.9" r="20"/>
					<linearGradient id="SVGID_5_" gradientUnits="userSpaceOnUse" x1="375.2303" y1="683.2433" x2="375.2303" y2="647.5893">
						<stop  offset="0" style="stop-color:#875017"/>
						<stop  offset="0.1072" style="stop-color:#9D6A17"/>
						<stop  offset="0.2475" style="stop-color:#B78817"/>
						<stop  offset="0.6677" style="stop-color:#FDF193"/>
						<stop  offset="0.7431" style="stop-color:#FCEF90"/>
						<stop  offset="0.8008" style="stop-color:#F8E886"/>
						<stop  offset="0.8526" style="stop-color:#F1DD76"/>
						<stop  offset="0.9009" style="stop-color:#E8CE5F"/>
						<stop  offset="0.9469" style="stop-color:#DBB941"/>
						<stop  offset="0.9905" style="stop-color:#CDA11D"/>
						<stop  offset="1" style="stop-color:#C99B14"/>
					</linearGradient>
					<circle class="st4" cx="375.2" cy="666.9" r="17.8"/>
				</g>
			</g>
		</g>
	</g>
	<g class="st5">
		<image style="overflow:visible;" width="126" height="126" xlink:href="1B55443F.png"  transform="matrix(1 0 0 1 312 604)">
		</image>
	</g>
	<g>
		<g>
			<path class="st6" d="M367.9,672.1c0.2,0.8,0.3,1.4,0.3,2l7.8,0l7.8,0c0-0.7,0.1-1.3,0.3-2.1H367.9z"/>
			<path class="st6" d="M377.6,659.4c0,0.9-0.7,1.7-1.7,1.7s-1.7-0.7-1.7-1.7s0.7-1.7,1.7-1.7S377.6,658.4,377.6,659.4z"/>
			<path class="st6" d="M382.9,663c0,0.7-0.5,1.2-1.2,1.2c-0.7,0-1.2-0.5-1.2-1.2c0-0.7,0.5-1.2,1.2-1.2
				C382.4,661.8,382.9,662.3,382.9,663z"/>
			<circle class="st6" cx="387.3" cy="664.9" r="0.8"/>
			<circle class="st6" cx="364.6" cy="664.9" r="0.8"/>
			<path class="st6" d="M371.4,663c0,0.7-0.5,1.2-1.2,1.2s-1.2-0.5-1.2-1.2c0-0.7,0.5-1.2,1.2-1.2S371.4,662.3,371.4,663z"/>
			<g>
				<path class="st6" d="M384.8,670c1.1-3,2.6-5.1,2.6-5.1l-2.6,1.1c-1.2,0.6-2.6-0.2-2.8-1.6l-0.2-1.6l-1.5,1.4
					c-0.9,0.9-2.4,0.5-2.8-0.7l-1.5-4.2l-1.5,4.2c-0.4,1.2-1.9,1.5-2.8,0.7l-1.5-1.5l-0.2,1.6c-0.2,1.3-1.6,2.1-2.8,1.5l-2.6-1.1
					c0,0,1.5,2.2,2.6,5.1H384.8z"/>
				<path class="st6" d="M367.4,670.2c0.1,0.5,0.2,0.8,0.3,1.1h16.5c0.1-0.3,0.2-0.5,0.3-1.1H367.4z"/>
			</g>
		</g>
	</g>
	<g>
		<radialGradient id="SVGID_6_" cx="395.6696" cy="666.9016" r="8.0423" gradientUnits="userSpaceOnUse">
			<stop  offset="0" style="stop-color:#FFFFFF"/>
			<stop  offset="5.213898e-02" style="stop-color:#E1E1E1"/>
			<stop  offset="0.1544" style="stop-color:#ADADAD"/>
			<stop  offset="0.2611" style="stop-color:#7F7F7F"/>
			<stop  offset="0.3699" style="stop-color:#585858"/>
			<stop  offset="0.4816" style="stop-color:#383838"/>
			<stop  offset="0.5969" style="stop-color:#1F1F1F"/>
			<stop  offset="0.7175" style="stop-color:#0E0E0E"/>
			<stop  offset="0.8468" style="stop-color:#030303"/>
			<stop  offset="1" style="stop-color:#000000"/>
		</radialGradient>
		<path class="st7" d="M403.7,666.4c0.3,4.9-3.7,8.9-8.5,8.5c-4-0.3-7.3-3.5-7.5-7.5c-0.3-4.9,3.7-8.9,8.5-8.5
			C400.2,659.1,403.4,662.4,403.7,666.4z"/>
		<g>
			
				<radialGradient id="SVGID_7_" cx="207.7696" cy="399.6315" r="74.1929" gradientTransform="matrix(-0.4837 0.2227 3.195533e-02 6.936332e-02 483.6957 593.5591)" gradientUnits="userSpaceOnUse">
				<stop  offset="0" style="stop-color:#FFC107"/>
				<stop  offset="2.610862e-03" style="stop-color:#FEC007"/>
				<stop  offset="0.1239" style="stop-color:#C39405"/>
				<stop  offset="0.2478" style="stop-color:#8F6C04"/>
				<stop  offset="0.3721" style="stop-color:#634B03"/>
				<stop  offset="0.4966" style="stop-color:#3F3002"/>
				<stop  offset="0.6213" style="stop-color:#241B01"/>
				<stop  offset="0.7463" style="stop-color:#100C00"/>
				<stop  offset="0.8722" style="stop-color:#040300"/>
				<stop  offset="1" style="stop-color:#000000"/>
			</radialGradient>
			<path class="st8" d="M367.4,679.9c1.6,3.6,15.6,0.7,31.2-6.5c15.6-7.2,26.9-15.9,25.2-19.5c-1.6-3.6-15.6-0.7-31.2,6.5
				C377.1,667.6,365.8,676.3,367.4,679.9z"/>
		</g>
	</g>
	<g>
		
			<radialGradient id="SVGID_8_" cx="-2506.8794" cy="-653.5166" r="12.515" gradientTransform="matrix(0.9974 -7.220000e-02 -7.220000e-02 -0.9974 2814.4338 -183.5032)" gradientUnits="userSpaceOnUse">
			<stop  offset="0" style="stop-color:#E0342E"/>
			<stop  offset="7.914821e-03" style="stop-color:#D8322C"/>
			<stop  offset="6.051940e-02" style="stop-color:#A62722"/>
			<stop  offset="0.1157" style="stop-color:#791D19"/>
			<stop  offset="0.1726" style="stop-color:#541411"/>
			<stop  offset="0.2314" style="stop-color:#350D0B"/>
			<stop  offset="0.293" style="stop-color:#1E0806"/>
			<stop  offset="0.3584" style="stop-color:#0D0403"/>
			<stop  offset="0.4303" style="stop-color:#030201"/>
			<stop  offset="0.5212" style="stop-color:#000100"/>
		</radialGradient>
		<path class="st9" d="M373.7,648.4c-0.5-6.9-6.5-12.1-13.4-11.6c-6.9,0.5-12.1,6.5-11.6,13.4c0.5,6.9,6.5,12.1,13.4,11.6
			C369.1,661.3,374.2,655.3,373.7,648.4z"/>
		
			<radialGradient id="SVGID_9_" cx="-2506.8794" cy="-653.5167" r="12.515" gradientTransform="matrix(0.9974 -7.220000e-02 -7.220000e-02 -0.9974 2814.4338 -183.5032)" gradientUnits="userSpaceOnUse">
			<stop  offset="0" style="stop-color:#E0342E"/>
			<stop  offset="7.914821e-03" style="stop-color:#D8322C"/>
			<stop  offset="6.051940e-02" style="stop-color:#A62722"/>
			<stop  offset="0.1157" style="stop-color:#791D19"/>
			<stop  offset="0.1726" style="stop-color:#541411"/>
			<stop  offset="0.2314" style="stop-color:#350D0B"/>
			<stop  offset="0.293" style="stop-color:#1E0806"/>
			<stop  offset="0.3584" style="stop-color:#0D0403"/>
			<stop  offset="0.4303" style="stop-color:#030201"/>
			<stop  offset="0.5212" style="stop-color:#000100"/>
		</radialGradient>
		<path class="st10" d="M373.7,648.4c-0.5-6.9-6.5-12.1-13.4-11.6c-6.9,0.5-12.1,6.5-11.6,13.4c0.5,6.9,6.5,12.1,13.4,11.6
			C369.1,661.3,374.2,655.3,373.7,648.4z"/>
		
			<radialGradient id="SVGID_10_" cx="-261.6472" cy="-189.5806" r="7.7416" gradientTransform="matrix(0.8289 0.8224 2.1743 -2.1912 990.3408 449.081)" gradientUnits="userSpaceOnUse">
			<stop  offset="0" style="stop-color:#FFEC87;stop-opacity:0.99"/>
			<stop  offset="8.484850e-02" style="stop-color:#FFEC87"/>
			<stop  offset="0.1369" style="stop-color:#C6B769"/>
			<stop  offset="0.1914" style="stop-color:#92884D"/>
			<stop  offset="0.2468" style="stop-color:#655E36"/>
			<stop  offset="0.3021" style="stop-color:#413D22"/>
			<stop  offset="0.3572" style="stop-color:#242313"/>
			<stop  offset="0.4122" style="stop-color:#101009"/>
			<stop  offset="0.4669" style="stop-color:#040502"/>
			<stop  offset="0.5212" style="stop-color:#000100"/>
		</radialGradient>
		<path class="st11" d="M367.7,655.7c9.3-9.4,14-19.8,10.4-23.3c-3.5-3.5-14,1.2-23.2,10.6c-9.3,9.4-14,19.8-10.4,23.3
			C348,669.8,358.4,665,367.7,655.7z"/>
		
			<radialGradient id="SVGID_11_" cx="-2506.8794" cy="-653.5166" r="9.0624" gradientTransform="matrix(0.9974 -7.220000e-02 -7.220000e-02 -0.9974 2814.4338 -183.5032)" gradientUnits="userSpaceOnUse">
			<stop  offset="0" style="stop-color:#FFFFFF"/>
			<stop  offset="3.438386e-02" style="stop-color:#D8D8D8"/>
			<stop  offset="8.427510e-02" style="stop-color:#A6A6A6"/>
			<stop  offset="0.1366" style="stop-color:#797A79"/>
			<stop  offset="0.1905" style="stop-color:#545554"/>
			<stop  offset="0.2464" style="stop-color:#353635"/>
			<stop  offset="0.3048" style="stop-color:#1E1F1E"/>
			<stop  offset="0.3668" style="stop-color:#0D0E0D"/>
			<stop  offset="0.435" style="stop-color:#030403"/>
			<stop  offset="0.5212" style="stop-color:#000100"/>
		</radialGradient>
		<path class="st12" d="M370.3,648.7c-0.4-5-4.7-8.7-9.7-8.4c-5,0.4-8.7,4.7-8.4,9.7c0.4,5,4.7,8.7,9.7,8.4
			C366.9,658,370.7,653.6,370.3,648.7z"/>
	</g>
	<g class="st13">
		<image style="overflow:visible;" width="174" height="174" xlink:href="1B55443A.png"  transform="matrix(1 0 0 1 288 580)">
		</image>
	</g>
</g>
<g>
</g>
<g>
</g>
<g>
</g>
<g>
</g>
<g>
</g>
<g>
</g>
<g>
</g>
<g>
</g>
<g>
</g>
<g>
</g>
<g>
</g>
</svg>
