<?xml version="1.0" encoding="utf-8"?>
<!-- Generator: Adobe Illustrator 22.0.0, SVG Export Plug-In . SVG Version: 6.00 Build 0)  -->
<svg version="1.1" id="Layer_1" xmlns="http://www.w3.org/2000/svg" xmlns:xlink="http://www.w3.org/1999/xlink" x="0px" y="0px"
	 viewBox="0 0 750 1334" style="enable-background:new 0 0 750 1334;" xml:space="preserve">
<style type="text/css">
	.st0{fill:#FFFFFF;}
</style>
<g>
	<path class="st0" d="M275.8,682.3v-13.8l-9.2-29.2h6.2l6.2,21.5l6.2-21.5h6.2l-9.2,29.2v13.8H275.8z"/>
	<path class="st0" d="M311.4,679.9c-1.4,1.9-3.8,2.9-7.1,2.9c-3.3,0-5.7-1-7.1-2.9c-1.4-1.9-2.1-4.7-2.1-8.3v-9.2
		c0-3.6,0.7-6.4,2.1-8.3c1.4-1.9,3.8-2.9,7.1-2.9c3.3,0,5.7,1,7.1,2.9c1.4,1.9,2.1,4.7,2.1,8.3v9.2
		C313.5,675.2,312.8,678,311.4,679.9z M303.2,677.5c0.3,0.1,0.7,0.2,1.1,0.2s0.8-0.1,1.1-0.2c0.3-0.1,0.6-0.3,0.8-0.5
		c0.2-0.2,0.4-0.5,0.5-0.8c0.1-0.4,0.3-0.7,0.3-0.9c0.1-0.3,0.1-0.7,0.2-1.2c0-0.5,0.1-0.9,0.1-1.2c0-0.3,0-0.7,0-1.3v-9.2
		c0-0.6,0-1,0-1.3c0-0.3,0-0.7-0.1-1.2c0-0.5-0.1-0.9-0.2-1.2c-0.1-0.3-0.2-0.6-0.3-0.9s-0.3-0.6-0.5-0.8c-0.2-0.2-0.5-0.3-0.8-0.5
		c-0.3-0.1-0.7-0.2-1.1-0.2s-0.8,0.1-1.1,0.2c-0.3,0.1-0.6,0.3-0.8,0.5c-0.2,0.2-0.4,0.5-0.5,0.8c-0.1,0.4-0.3,0.7-0.3,0.9
		c-0.1,0.3-0.1,0.7-0.2,1.2c0,0.5-0.1,0.9-0.1,1.2c0,0.3,0,0.7,0,1.3v9.2c0,0.6,0,1,0,1.3c0,0.3,0,0.7,0.1,1.2
		c0,0.5,0.1,0.9,0.2,1.2s0.2,0.6,0.3,0.9c0.1,0.4,0.3,0.6,0.5,0.8C302.6,677.2,302.8,677.4,303.2,677.5z"/>
	<path class="st0" d="M326.8,682.8c-1.3,0-2.4-0.5-3.2-1.4c-0.8-1-1.2-2.1-1.2-3.5v-26.2h6.2v24.3c0,0.6,0.2,1.2,0.6,1.6
		c0.4,0.4,0.9,0.6,1.5,0.6c0.3,0,0.7,0,1-0.1c0.3-0.1,0.6-0.2,0.9-0.4s0.6-0.4,0.7-0.5c0.2-0.1,0.4-0.3,0.8-0.6
		c0.3-0.3,0.5-0.5,0.6-0.5v-24.3h6.2v30.8h-6.2V679c-0.6,0.5-1.1,0.9-1.3,1.2c-0.3,0.2-0.7,0.6-1.3,1c-0.6,0.4-1.1,0.7-1.5,0.9
		c-0.4,0.2-1,0.4-1.6,0.5C328.1,682.7,327.5,682.8,326.8,682.8z"/>
	<path class="st0" d="M368.8,682.3l-7.7-43.1h6.2l3.1,20l1.6,12.3l1.5-12.3l3.1-20h6.2l3.1,20l1.5,12.3l1.6-12.3l3.1-20h6.2
		l-7.7,43.1h-6.2l-3.1-20l-1.5-12.3l-1.5,12.3l-3.1,20H368.8z"/>
	<path class="st0" d="M419.4,679.9c-1.4,1.9-3.8,2.9-7.1,2.9s-5.7-1-7.1-2.9c-1.4-1.9-2.1-4.7-2.1-8.3v-9.2c0-3.6,0.7-6.4,2.1-8.3
		c1.4-1.9,3.8-2.9,7.1-2.9s5.7,1,7.1,2.9s2.1,4.7,2.1,8.3v9.2C421.5,675.2,420.8,678,419.4,679.9z M411.1,677.5
		c0.3,0.1,0.7,0.2,1.1,0.2s0.8-0.1,1.1-0.2c0.3-0.1,0.6-0.3,0.8-0.5c0.2-0.2,0.4-0.5,0.5-0.8c0.1-0.4,0.3-0.7,0.3-0.9
		s0.1-0.7,0.2-1.2s0.1-0.9,0.1-1.2c0-0.3,0-0.7,0-1.3v-9.2c0-0.6,0-1,0-1.3c0-0.3,0-0.7-0.1-1.2c0-0.5-0.1-0.9-0.2-1.2
		c-0.1-0.3-0.2-0.6-0.3-0.9c-0.1-0.4-0.3-0.6-0.5-0.8c-0.2-0.2-0.5-0.3-0.8-0.5c-0.3-0.1-0.7-0.2-1.1-0.2s-0.8,0.1-1.1,0.2
		c-0.3,0.1-0.6,0.3-0.8,0.5c-0.2,0.2-0.4,0.5-0.5,0.8c-0.1,0.4-0.3,0.7-0.3,0.9c-0.1,0.3-0.1,0.7-0.2,1.2c0,0.5-0.1,0.9-0.1,1.2
		c0,0.3,0,0.7,0,1.3v9.2c0,0.6,0,1,0,1.3c0,0.3,0,0.7,0.1,1.2s0.1,0.9,0.2,1.2c0.1,0.3,0.2,0.6,0.3,0.9c0.1,0.4,0.3,0.6,0.5,0.8
		C410.5,677.2,410.8,677.4,411.1,677.5z"/>
	<path class="st0" d="M430.3,682.3v-30.8h6.2v3.3c0.9-0.8,1.7-1.5,2.2-1.9c0.6-0.4,1.4-0.9,2.4-1.2s2.1-0.6,3.3-0.6
		c1.3,0,2.4,0.5,3.2,1.4s1.2,2.1,1.2,3.5v26.2h-6.2v-23.1c0-1.1-0.2-1.9-0.5-2.3c-0.3-0.5-0.9-0.7-1.9-0.7c-0.5,0-1.1,0.1-1.6,0.3
		s-0.9,0.4-1.2,0.6c-0.3,0.2-0.6,0.5-1.1,0.9v24.3H430.3z"/>
</g>
<g>
</g>
<g>
</g>
<g>
</g>
<g>
</g>
<g>
</g>
<g>
</g>
<g>
</g>
<g>
</g>
<g>
</g>
<g>
</g>
<g>
</g>
</svg>
