<?xml version="1.0" encoding="utf-8"?>
<!-- Generator: Adobe Illustrator 22.0.0, SVG Export Plug-In . SVG Version: 6.00 Build 0)  -->
<svg version="1.1" id="Layer_1" xmlns="http://www.w3.org/2000/svg" xmlns:xlink="http://www.w3.org/1999/xlink" x="0px" y="0px"
	 viewBox="0 0 750 1334" style="enable-background:new 0 0 750 1334;" xml:space="preserve">
<style type="text/css">
	.st0{fill:#FFFFFF;stroke:#FFFFFF;stroke-width:2;stroke-miterlimit:10;}
</style>
<g>
	<path class="st0" d="M190.8,678.8v-27.2c0-7.8,4.1-12.5,11.7-12.5s11.7,4.6,11.7,12.5v5.4h-7.5v-5.9c0-3.3-1.6-4.7-4-4.7
		s-4,1.4-4,4.7v28.3c0,3.3,1.6,4.6,4,4.6s4-1.3,4-4.6v-7.7h7.5v7.2c0,7.8-4.1,12.5-11.7,12.5S190.8,686.6,190.8,678.8z"/>
	<path class="st0" d="M224.8,678.5v-26.6c0-8.1,4.3-12.7,12.1-12.7c7.8,0,12.1,4.6,12.1,12.7v26.6c0,8.1-4.3,12.7-12.1,12.7
		C229.1,691.2,224.8,686.6,224.8,678.5z M241,679v-27.7c0-3.6-1.6-5-4.1-5s-4.1,1.4-4.1,5V679c0,3.6,1.6,5,4.1,5S241,682.6,241,679z
		"/>
	<path class="st0" d="M260.5,639.8h11.4l5.1,36.3h0.1l5.1-36.3h11.4v50.7H286v-38.4h-0.1l-5.8,38.4h-6.7l-5.8-38.4h-0.1v38.4h-7
		V639.8z"/>
	<path class="st0" d="M305.6,639.8h11.7c8,0,11.9,4.4,11.9,12.5v5c0,8.1-3.9,12.5-11.9,12.5h-3.8v20.6h-8V639.8z M317.3,662.6
		c2.5,0,3.9-1.2,3.9-4.8v-6c0-3.6-1.4-4.8-3.9-4.8h-3.8v15.6H317.3z"/>
	<path class="st0" d="M339.7,639.8h8v43.4h13.1v7.2h-21.1V639.8z"/>
	<path class="st0" d="M370.7,639.8h21.7v7.2h-13.8v13.4h10.9v7.2h-10.9v15.6h13.8v7.2h-21.7V639.8z"/>
	<path class="st0" d="M409.4,647.1h-8.3v-7.2h24.6v7.2h-8.3v43.4h-8V647.1z"/>
	<path class="st0" d="M435.7,639.8h21.7v7.2h-13.8v13.4h10.9v7.2h-10.9v15.6h13.8v7.2h-21.7V639.8z"/>
	<path class="st0" d="M468.1,639.8h12.2c8,0,11.9,4.4,11.9,12.5V678c0,8.1-3.9,12.5-11.9,12.5h-12.2V639.8z M480.1,683.3
		c2.5,0,4.1-1.3,4.1-4.9V652c0-3.6-1.5-4.9-4.1-4.9h-4.1v36.2H480.1z"/>
	<path class="st0" d="M504.3,661v-21.1h8V661l-1,16.1h-5.9L504.3,661z M504.5,682.8h7.7v7.7h-7.7V682.8z"/>
</g>
<g>
</g>
<g>
</g>
<g>
</g>
<g>
</g>
<g>
</g>
<g>
</g>
<g>
</g>
<g>
</g>
<g>
</g>
<g>
</g>
<g>
</g>
</svg>
