<?xml version="1.0" encoding="utf-8"?>
<!-- Generator: Adobe Illustrator 22.0.0, SVG Export Plug-In . SVG Version: 6.00 Build 0)  -->
<svg version="1.1" id="Layer_1" xmlns="http://www.w3.org/2000/svg" xmlns:xlink="http://www.w3.org/1999/xlink" x="0px" y="0px"
	 viewBox="0 0 750 1334" style="enable-background:new 0 0 750 1334;" xml:space="preserve">
<style type="text/css">
	.st0{fill:url(#SVGID_1_);}
	.st1{fill:none;stroke:#FFFFFF;stroke-width:3;stroke-miterlimit:10;}
	.st2{fill:#FFFFFF;}
</style>
<g>
	<g>
		<linearGradient id="SVGID_1_" gradientUnits="userSpaceOnUse" x1="375" y1="704" x2="375" y2="630">
			<stop  offset="0" style="stop-color:#037DF9"/>
			<stop  offset="1" style="stop-color:#01A2FC"/>
		</linearGradient>
		<path class="st0" d="M525,704H225c-20.4,0-37-16.6-37-37v0c0-20.4,16.6-37,37-37h300c20.4,0,37,16.6,37,37v0
			C562,687.4,545.4,704,525,704z"/>
		<path class="st1" d="M525,704H225c-20.4,0-37-16.6-37-37v0c0-20.4,16.6-37,37-37h300c20.4,0,37,16.6,37,37v0
			C562,687.4,545.4,704,525,704z"/>
	</g>
	<g>
		<path class="st2" d="M267.1,676.1v-15.8c0-4.2,2.5-7,6.2-7c3.7,0,6.2,2.8,6.2,7v15.8c0,4.2-2.5,7-6.2,7
			C269.5,683.1,267.1,680.3,267.1,676.1z M275.5,676.1v-15.8c0-1.8-0.9-2.9-2.3-2.9c-1.4,0-2.3,1-2.3,2.9v15.8
			c0,1.8,0.9,2.9,2.3,2.9C274.6,679,275.5,677.9,275.5,676.1z"/>
		<path class="st2" d="M286.3,653.7h6c3.7,0,6,2.7,6,6.9v3.4c0,4.2-2.4,6.9-6,6.9h-2.2v11.8h-3.8V653.7z M292.2,666.8
			c1.5,0,2.4-1,2.4-2.7v-3.6c0-1.7-0.9-2.7-2.4-2.7h-2v9H292.2z"/>
		<path class="st2" d="M304.7,653.7h10.9v4.1h-7.1v8.1h5.6v4.1h-5.6v8.5h7.1v4.1h-10.9V653.7z"/>
		<path class="st2" d="M321.9,653.7h4.2l4.9,19.5v-19.5h3.8v29h-4.1l-5.1-18.6v18.6h-3.8V653.7z"/>
		<path class="st2" d="M364.9,673.4v2.4c0,4.2-2.4,6.9-6,6.9h-6.4v-29h6.1c3.7,0,6,2.7,6,6.9v1.5c0,2.6-0.9,4.5-2.6,5.6
			C363.8,668.7,364.9,670.7,364.9,673.4z M356.3,657.8v7.9h1.7c1.8,0,2.7-1,2.7-3.1v-2.1c0-1.7-0.9-2.7-2.4-2.7H356.3z M361,673
			c0-2.1-0.9-3.1-2.7-3.1h-2v8.7h2.4c1.5,0,2.4-1,2.4-2.7V673z"/>
		<path class="st2" d="M371.1,676.1v-15.8c0-4.2,2.5-7,6.2-7c3.7,0,6.2,2.8,6.2,7v15.8c0,4.2-2.5,7-6.2,7
			C373.6,683.1,371.1,680.3,371.1,676.1z M379.6,676.1v-15.8c0-1.8-0.9-2.9-2.3-2.9c-1.4,0-2.3,1-2.3,2.9v15.8
			c0,1.8,0.9,2.9,2.3,2.9C378.7,679,379.6,677.9,379.6,676.1z"/>
		<path class="st2" d="M399,682.7l-3.3-10.1l-3.1,10.1h-4l5-15l-4.7-14h4.1l3,9.3l2.8-9.3h4l-4.8,14.2l5,14.8H399z"/>
	</g>
	<path class="st2" d="M493.1,648h-49.2c-2.7,0-4.9,2.2-4.9,4.9v31.2c0,2.7,2.2,4.9,4.9,4.9h49.2c2.7,0,4.9-2.2,4.9-4.9v-31.2
		C498,650.2,495.8,648,493.1,648z M446,685c-1.7,0-3-1.3-3-3s1.3-3,3-3s3,1.3,3,3S447.7,685,446,685z M446,676c-1.7,0-3-1.3-3-3
		s1.3-3,3-3s3,1.3,3,3S447.7,676,446,676z M446,667c-1.7,0-3-1.3-3-3s1.3-3,3-3s3,1.3,3,3S447.7,667,446,667z M446,658
		c-1.7,0-3-1.3-3-3s1.3-3,3-3s3,1.3,3,3S447.7,658,446,658z M476.8,670.2l-13.9,7.7c-0.9,0.5-2-0.1-2-1.1v-14.6c0-1,1-1.6,1.9-1.2
		l13.9,6.9C477.7,668.4,477.7,669.7,476.8,670.2z M491,685c-1.7,0-3-1.3-3-3s1.3-3,3-3s3,1.3,3,3S492.7,685,491,685z M491,676
		c-1.7,0-3-1.3-3-3s1.3-3,3-3s3,1.3,3,3S492.7,676,491,676z M491,667c-1.7,0-3-1.3-3-3s1.3-3,3-3s3,1.3,3,3S492.7,667,491,667z
		 M491,658c-1.7,0-3-1.3-3-3s1.3-3,3-3s3,1.3,3,3S492.7,658,491,658z"/>
</g>
<g>
</g>
<g>
</g>
<g>
</g>
<g>
</g>
<g>
</g>
<g>
</g>
<g>
</g>
<g>
</g>
<g>
</g>
<g>
</g>
<g>
</g>
</svg>
