<?xml version="1.0" encoding="utf-8"?>
<!-- Generator: Adobe Illustrator 22.0.0, SVG Export Plug-In . SVG Version: 6.00 Build 0)  -->
<svg version="1.1" id="Layer_1" xmlns="http://www.w3.org/2000/svg" xmlns:xlink="http://www.w3.org/1999/xlink" x="0px" y="0px"
	 viewBox="0 0 750 1334" style="enable-background:new 0 0 750 1334;" xml:space="preserve">
<style type="text/css">
	.st0{fill:#290F55;}
	.st1{fill:#FFFFFF;}
</style>
<g>
	<path class="st0" d="M438.4,735H312.6c-2.6,0-4.6-2.1-4.6-4.6V603.6c0-2.6,2.1-4.6,4.6-4.6h125.8c2.6,0,4.6,2.1,4.6,4.6v126.8
		C443,732.9,440.9,735,438.4,735z"/>
	<g>
		<circle class="st1" cx="375" cy="686" r="4"/>
		<path class="st1" d="M366,659c0,2,4,2,4,0c0-5,2.1-7.2,4.5-8.4c6.5-2.6,10.1,7.9,3.5,12.4c-5,4-5,8-5,13c0,1,4,1,4,0c0-4,0-7,4-10
			c5.7-4.1,5-14,2-17C376,642,366,648,366,659z"/>
	</g>
</g>
<g>
</g>
<g>
</g>
<g>
</g>
<g>
</g>
<g>
</g>
<g>
</g>
<g>
</g>
<g>
</g>
<g>
</g>
<g>
</g>
<g>
</g>
</svg>
