<?xml version="1.0" encoding="utf-8"?>
<!-- Generator: Adobe Illustrator 22.0.0, SVG Export Plug-In . SVG Version: 6.00 Build 0)  -->
<svg version="1.1" id="Layer_1" xmlns="http://www.w3.org/2000/svg" xmlns:xlink="http://www.w3.org/1999/xlink" x="0px" y="0px"
	 viewBox="0 0 750 1334" style="enable-background:new 0 0 750 1334;" xml:space="preserve">
<style type="text/css">
	.st0{fill:#FFFFFF;stroke:#FFFFFF;stroke-miterlimit:10;}
</style>
<g>
	<path class="st0" d="M190.4,672.4c0.3-1.5,0.7-5,0.5-5.8l0.6,0.7c-3.6-0.2-5,0.2-6.1,0.2c-1,0-1.5-0.6-1.5-1.2
		c0-0.6,0.5-1.2,1.5-1.1c1,0.1,2,0.1,2.9,0.1c1.9,0,2.7-0.2,3.6-0.2c0.7,0,1.3,0.3,1.3,1.3c0,9.4-3.2,15.2-8.5,15.2
		c-6.4,0-9.4-6-9.4-19.6c0-11,3.1-17.4,9.9-17.7c4.9-0.2,7.8,2.7,7.8,10.5c0,1-0.4,1.5-1.1,1.5c-0.6,0-1.3-0.4-1.3-1.3
		c0-6.8-2.1-8.7-5.6-8.5c-5.3,0.4-7.3,7.2-7.3,16c0,14.3,3.4,16.9,7.2,16.9C187.7,679.2,189.6,676.9,190.4,672.4z"/>
	<path class="st0" d="M203.1,680.8c-0.6,0-1.2-0.5-1.2-1.4c0-3.4,0-11.9,0-16.9c0-8.5-0.2-11.3-0.5-15.8c-0.1-1.6,1.1-1.5,1.6-1.7
		c2.4-0.6,4.4-0.9,6.3-0.9c5.2,0,8.8,2.7,8.8,8.6c0,8-7.6,14.5-14.8,18.1l0-2.2c4.7-2.2,12.5-8.6,12.5-15.8c0-4.6-2.7-6.9-6.4-7
		c-1.1,0-4.4,0.3-6,1.4l0.7-1.1c-0.2,3.9-0.4,12.7-0.4,16.4c0,3.6,0.1-0.4,0.7,16.8C204.5,680.3,203.8,680.8,203.1,680.8z
		 M216.2,680.8c-0.5,0-1-0.3-1.3-0.9c-2.1-5.6-3.2-10.2-5.3-14.8l1.6-1.8c1.8,5.2,3.9,10.7,6.2,15.6
		C217.9,680,217.1,680.8,216.2,680.8z"/>
	<path class="st0" d="M232.7,646h0.7c-2.3,10.1-5.9,25.5-7.5,33.9c-0.2,0.8-0.8,1.1-1.3,1.1c-0.8,0-1.6-0.7-1.3-1.7
		c1.6-4.6,6-24.8,8-33.2c0.3-1.1,1.1-1.8,1.9-1.8c0.8,0,1.5,0.6,1.8,1.8c1.5,7.8,5.7,25.2,8.2,33.1c0.3,1.1-0.3,1.8-1.1,1.8
		c-0.5,0-1-0.3-1.2-1C239,672.5,234.4,653.7,232.7,646z M239.5,669.4c-1.1-0.1-3.5-0.2-5.9-0.2s-5,0-6.4,0.2v-2.3
		c1.2,0.1,3.7,0.2,6.1,0.2c2.8,0,5.4,0,6.3-0.2V669.4z"/>
	<path class="st0" d="M264.8,645.5c0,0.5-0.5,1-1.5,1c-3.3-0.1-4.8-0.2-7-0.2l0.7-0.7c-0.1,3.2-0.2,9.7-0.2,15.7
		c0,7.4,0.1,12.6,0.2,18.1c0,1-0.6,1.5-1.3,1.5c-0.6,0-1.4-0.5-1.4-1.4c0-0.9,0-1.9,0-3c0-7.5,0.2-14.1,0.2-21.5
		c0-3.5,0-7.3-0.2-9.4l0.5,0.8c-2.1,0-3.8,0.1-6.7,0.3c-1,0-1.6-0.5-1.6-1.1c0-0.6,0.5-1.3,1.6-1.3c3.8,0.2,3.5,0.2,6.3,0.2
		c2.7,0,3.4,0,8.8-0.2C264.3,644.3,264.8,645,264.8,645.5z"/>
	<path class="st0" d="M272.3,644.3c0.6,0.1,1.7,0.2,3.2,0.2c1.5,0,3.2,0,4.6-0.2c1.2-0.1,1.8,0.6,1.8,1.3c0,0.6-0.6,1.2-1.8,1.1
		c-1.5-0.1-4.7-0.3-7.2-0.1l0.4-0.8c0,6.2-0.1,12.2-0.1,19.3l-0.4-0.7c1,0,4.3-0.1,5.6-0.2c1.2-0.1,1.7,0.3,1.7,1
		c0,0.5-0.4,1-1.6,1.1c-0.6,0.1-1.3,0-1.9,0c-0.9,0-3.1,0-4,0l0.6-0.7c0,5.7,0.1,12.5,0.1,13.9l-0.7-0.5c2.7,0,8.5-0.2,10.5-0.3
		c1.1-0.1,1.9,0.6,1.9,1.3c0,0.6-0.6,1.2-1.9,1.1c-1,0-2.4-0.1-3.9-0.1c-2.6,0-5.6,0.1-6.9,0.2c-0.8,0.1-1.7-0.3-1.7-1.4
		c0.3-4.6,0.4-12.3,0.4-19.7c0-6.9,0.1-10.6-0.2-14.4C270.5,644.1,271.8,644.2,272.3,644.3z"/>
	<path class="st0" d="M292.6,680.8c-0.6,0-1.2-0.5-1.2-1.4c0-3.4,0-11.9,0-16.9c0-8.5-0.2-11.3-0.5-15.8c-0.1-1.6,1.1-1.5,1.6-1.7
		c2.4-0.6,4.4-0.9,6.3-0.9c5.2,0,8.8,2.7,8.8,8.6c0,8-7.6,14.5-14.8,18.1l0-2.2c4.7-2.2,12.5-8.6,12.5-15.8c0-4.6-2.7-6.9-6.4-7
		c-1.1,0-4.4,0.3-6,1.4l0.7-1.1c-0.2,3.9-0.4,12.7-0.4,16.4c0,3.6,0.1-0.4,0.7,16.8C294,680.3,293.3,680.8,292.6,680.8z
		 M305.7,680.8c-0.5,0-1-0.3-1.3-0.9c-2.1-5.6-3.2-10.2-5.3-14.8l1.6-1.8c1.8,5.2,3.9,10.7,6.2,15.6
		C307.4,680,306.6,680.8,305.7,680.8z"/>
	<path class="st0" d="M341,670c0.8,0,1.4,0.5,1.3,1.4c-0.3,6.2-3.9,10-8.5,10c-5.1,0-9.2-4.1-9.2-17.5c0-11,3.2-19.5,10-19.5
		c4.9,0,7.5,3.2,7.5,12.4c0,1-0.6,1.5-1.3,1.5c-0.6,0-1.1-0.4-1.1-1.3c0-7.7-1.6-10.5-5.3-10.5c-5.4,0-7.6,9-7.6,17.8
		c0,12.6,3.5,14.9,7.1,14.9c2.8,0,5.6-2.2,5.6-7.6C339.7,670.6,340.3,670,341,670z"/>
	<path class="st0" d="M349,662.2c0-9.5,3.9-18,10.5-18c7,0,10.1,6.7,10.1,18c0,12.3-4,19.2-10.7,19.2
		C352.1,681.4,349,674.8,349,662.2z M351.4,662.7c0,13.3,3.9,16.6,7.8,16.6c4.1,0,8.2-3.8,8.2-16.8c0-7.8-1.9-16.3-7.8-16.3
		C354.3,646.1,351.4,654.7,351.4,662.7z"/>
	<path class="st0" d="M380.1,679.5l-0.4-0.5c2.8,0.1,7.7-0.1,9.7-0.3c1.2-0.1,1.9,0.6,1.9,1.3c0,0.6-0.6,1.2-1.9,1.1
		c-1,0-2.4-0.1-3.8-0.1c-2.6,0-4.9,0.1-6.2,0.2c-0.8,0.1-1.7-0.3-1.6-1.4c0.3-4.7,0.3-12.3,0.3-19.7c0-6.9,0-10.5-0.5-14.3
		c-0.1-0.9,0.6-1.4,1.4-1.4s1.5,0.5,1.5,1.4C380.4,652.8,380.2,658,380.1,679.5z"/>
	<path class="st0" d="M400.7,679.5l-0.4-0.5c2.8,0.1,7.7-0.1,9.7-0.3c1.2-0.1,1.9,0.6,1.9,1.3c0,0.6-0.6,1.2-1.9,1.1
		c-1,0-2.4-0.1-3.8-0.1c-2.6,0-4.9,0.1-6.2,0.2c-0.8,0.1-1.7-0.3-1.6-1.4c0.3-4.7,0.3-12.3,0.3-19.7c0-6.9,0-10.5-0.5-14.3
		c-0.1-0.9,0.6-1.4,1.4-1.4s1.5,0.5,1.5,1.4C400.9,652.8,400.8,658,400.7,679.5z"/>
	<path class="st0" d="M420.4,644.3c0.6,0.1,1.7,0.2,3.2,0.2c1.5,0,3.2,0,4.6-0.2c1.2-0.1,1.8,0.6,1.8,1.3c0,0.6-0.6,1.2-1.8,1.1
		c-1.5-0.1-4.7-0.3-7.2-0.1l0.4-0.8c0,6.2-0.1,12.2-0.1,19.3l-0.4-0.7c1,0,4.3-0.1,5.6-0.2c1.2-0.1,1.7,0.3,1.7,1
		c0,0.5-0.4,1-1.6,1.1c-0.6,0.1-1.3,0-1.9,0c-0.9,0-3.1,0-4,0l0.6-0.7c0,5.7,0.1,12.5,0.1,13.9l-0.7-0.5c2.7,0,8.5-0.2,10.5-0.3
		c1.1-0.1,1.9,0.6,1.9,1.3c0,0.6-0.6,1.2-1.9,1.1c-1,0-2.4-0.1-3.9-0.1c-2.6,0-5.6,0.1-6.9,0.2c-0.8,0.1-1.7-0.3-1.7-1.4
		c0.3-4.6,0.4-12.3,0.4-19.7c0-6.9,0.1-10.6-0.2-14.4C418.6,644.1,419.9,644.2,420.4,644.3z"/>
	<path class="st0" d="M454.1,670c0.8,0,1.4,0.5,1.3,1.4c-0.3,6.2-3.9,10-8.5,10c-5.1,0-9.2-4.1-9.2-17.5c0-11,3.2-19.5,10-19.5
		c4.9,0,7.5,3.2,7.5,12.4c0,1-0.6,1.5-1.3,1.5c-0.6,0-1.1-0.4-1.1-1.3c0-7.7-1.6-10.5-5.3-10.5c-5.4,0-7.6,9-7.6,17.8
		c0,12.6,3.5,14.9,7.1,14.9c2.8,0,5.6-2.2,5.6-7.6C452.8,670.6,453.4,670,454.1,670z"/>
	<path class="st0" d="M478.2,645.5c0,0.5-0.5,1-1.5,1c-3.3-0.1-4.8-0.2-7-0.2l0.7-0.7c-0.1,3.2-0.2,9.7-0.2,15.7
		c0,7.4,0.1,12.6,0.2,18.1c0,1-0.6,1.5-1.3,1.5c-0.6,0-1.4-0.5-1.4-1.4c0-0.9,0-1.9,0-3c0-7.5,0.2-14.1,0.2-21.5
		c0-3.5,0-7.3-0.2-9.4l0.5,0.8c-2.1,0-3.8,0.1-6.7,0.3c-1,0-1.6-0.5-1.6-1.1c0-0.6,0.5-1.3,1.6-1.3c3.8,0.2,3.5,0.2,6.3,0.2
		c2.7,0,3.4,0,8.8-0.2C477.6,644.3,478.2,645,478.2,645.5z"/>
	<path class="st0" d="M486,680.9c-0.7,0-1.3-0.5-1.3-1.4c0.2-4.3,0.3-11.2,0.3-18.1c0-7.3,0-11.7-0.3-15.8c-0.1-0.9,0.4-1.4,1.2-1.4
		s1.5,0.5,1.5,1.4c-0.1,2.5-0.2,3.9-0.2,8.7c0,8.4,0.1,18.7,0.3,25C487.5,680.4,486.7,680.9,486,680.9z"/>
	<path class="st0" d="M496.2,662.2c0-9.5,3.9-18,10.5-18c7,0,10.1,6.7,10.1,18c0,12.3-4,19.2-10.7,19.2
		C499.3,681.4,496.2,674.8,496.2,662.2z M498.5,662.7c0,13.3,3.9,16.6,7.8,16.6c4.1,0,8.2-3.8,8.2-16.8c0-7.8-1.9-16.3-7.8-16.3
		C501.5,646.1,498.5,654.7,498.5,662.7z"/>
	<path class="st0" d="M526,645.3h1c0,15.1,0.3,30,0.3,34.3c0,0.9-0.6,1.4-1.3,1.4c-0.7,0-1.4-0.5-1.3-1.5c0.2-4.9,0.2-11.5,0.2-20.1
		c0-5.2,0-10.1,0-13.4c0-1.1,0.9-1.7,1.8-1.7c0.7,0,1.4,0.3,1.7,1.1c2.5,6.7,12.9,31.2,14,34h-0.7c-0.4-7.2-0.5-21.1-1-33.8
		c0-0.9,0.7-1.4,1.3-1.4c0.7,0,1.3,0.5,1.3,1.4c0,5-0.1,10.4-0.1,18.3c0,6,0,11.7,0.2,15.4c0,1-0.9,1.6-1.7,1.6
		c-0.7,0-1.3-0.4-1.6-1.1C535.6,667.6,530.7,658.8,526,645.3z"/>
</g>
<g>
</g>
<g>
</g>
<g>
</g>
<g>
</g>
<g>
</g>
<g>
</g>
<g>
</g>
<g>
</g>
<g>
</g>
<g>
</g>
<g>
</g>
</svg>
