<?xml version="1.0" encoding="utf-8"?>
<!-- Generator: Adobe Illustrator 22.0.0, SVG Export Plug-In . SVG Version: 6.00 Build 0)  -->
<svg version="1.1" id="Layer_1" xmlns="http://www.w3.org/2000/svg" xmlns:xlink="http://www.w3.org/1999/xlink" x="0px" y="0px"
	 viewBox="0 0 750 1334" style="enable-background:new 0 0 750 1334;" xml:space="preserve">
<style type="text/css">
	.st0{fill:url(#SVGID_1_);}
	.st1{fill:none;stroke:#FFFFFF;stroke-width:3;stroke-miterlimit:10;}
	.st2{fill:#FFFFFF;}
	.st3{fill:url(#SVGID_2_);}
	.st4{fill:url(#SVGID_3_);}
	.st5{fill:url(#SVGID_4_);}
	.st6{fill:url(#SVGID_5_);}
	.st7{fill:url(#SVGID_6_);}
	.st8{opacity:0.5;}
	.st9{fill:#A47B20;}
	.st10{fill:url(#SVGID_7_);}
	.st11{opacity:0.4;fill:url(#SVGID_8_);}
	.st12{fill:url(#SVGID_9_);}
	.st13{fill:url(#SVGID_10_);}
	.st14{opacity:0.75;fill:url(#SVGID_11_);}
	.st15{fill:url(#SVGID_12_);}
	.st16{opacity:0.6;}
	.st17{opacity:0.75;stroke:#000000;stroke-width:3;stroke-miterlimit:10;}
</style>
<g>
	<g>
		<g>
			<linearGradient id="SVGID_1_" gradientUnits="userSpaceOnUse" x1="375.5" y1="719.4003" x2="375.5" y2="615.5195">
				<stop  offset="0" style="stop-color:#037DF9"/>
				<stop  offset="1" style="stop-color:#01A2FC"/>
			</linearGradient>
			<path class="st0" d="M542.1,719.4H208.9c-28.7,0-51.9-23.3-51.9-51.9v0c0-28.7,23.3-51.9,51.9-51.9h333.1
				c28.7,0,51.9,23.3,51.9,51.9v0C594,696.1,570.7,719.4,542.1,719.4z"/>
			<path class="st1" d="M542.1,719.4H208.9c-28.7,0-51.9-23.3-51.9-51.9v0c0-28.7,23.3-51.9,51.9-51.9h333.1
				c28.7,0,51.9,23.3,51.9,51.9v0C594,696.1,570.7,719.4,542.1,719.4z"/>
		</g>
		<g>
			<g>
				<path class="st2" d="M222.8,674c0,2.9,1.2,5.1,4.3,5.1c3.2,0,4.3-2.2,4.3-5.1v-20.3h1.8V674c0,3.8-1.7,6.8-6.2,6.8
					s-6.2-3-6.2-6.8v-20.3h1.9V674z"/>
				<path class="st2" d="M239.8,680.5h-1.7v-26.8h2.5l8.7,22.6v-22.6h1.7v26.8h-2.1l-9.1-23.9V680.5z"/>
				<path class="st2" d="M255.9,680.5v-26.8h1.9v25.2h9.1v1.6H255.9z"/>
				<path class="st2" d="M271.3,660.2c0-3.9,1.9-6.8,6.3-6.8c4.5,0,6.4,2.9,6.4,6.8V674c0,3.9-1.9,6.8-6.4,6.8
					c-4.4,0-6.3-2.9-6.3-6.8V660.2z M273.2,674.1c0,2.9,1.2,5.1,4.4,5.1c3.2,0,4.5-2.1,4.5-5.1v-13.9c0-2.9-1.3-5.1-4.5-5.1
					c-3.2,0-4.4,2.1-4.4,5.1V674.1z"/>
				<path class="st2" d="M301.1,660.2v2.2h-1.8v-2.3c0-2.9-1.2-5.1-4.4-5.1c-3.2,0-4.4,2.2-4.4,5.1v13.9c0,2.9,1.2,5,4.4,5
					c3.2,0,4.4-2.1,4.4-5v-3.2h1.8v3.1c0,3.9-1.8,6.8-6.2,6.8s-6.2-2.9-6.2-6.8v-13.7c0-3.9,1.8-6.8,6.2-6.8
					S301.1,656.4,301.1,660.2z"/>
				<path class="st2" d="M309.8,667.9l-2,2.9v9.7h-1.9v-26.8h1.9v14.2l9.4-14.2h2l-8.3,12.5l8.8,14.3h-2L309.8,667.9z"/>
				<path class="st2" d="M338.3,653.7c4.4,0,6.2,2.3,6.2,6.1v2.3c0,3.1-1.3,4.9-4.2,5.6c3,0.6,4.2,2.6,4.2,5.5v4.2
					c0,1.1,0.1,2.3,0.7,3.2h-2c-0.5-0.8-0.6-1.8-0.6-3.2v-4.2c0-3.6-2.1-4.6-5.4-4.6h-3v12h-1.9v-26.8H338.3z M337.2,666.9
					c3.4,0,5.4-0.9,5.4-4.5v-2.5c0-2.9-1.2-4.6-4.3-4.6h-4.1v11.6H337.2z"/>
				<path class="st2" d="M352.6,674.6l-1.4,5.9h-1.7l6.3-26.9h2.8l6.5,26.9h-1.9l-1.4-5.9H352.6z M352.9,673h8.4l-4.3-17.4
					L352.9,673z"/>
				<path class="st2" d="M371.2,680.5h-1.7v-26.8h2.5l8.7,22.6v-22.6h1.7v26.8h-2.1l-9.1-23.9V680.5z"/>
				<path class="st2" d="M393.6,653.7c4.5,0,6.4,2.7,6.4,6.7v13.5c0,3.9-1.9,6.7-6.4,6.7h-6.4v-26.8H393.6z M393.6,678.9
					c3.2,0,4.6-2,4.6-5v-13.6c0-3-1.4-5-4.6-5h-4.4v23.6H393.6z"/>
				<path class="st2" d="M404.7,660.2c0-3.9,1.9-6.8,6.3-6.8c4.5,0,6.4,2.9,6.4,6.8V674c0,3.9-1.9,6.8-6.4,6.8
					c-4.4,0-6.3-2.9-6.3-6.8V660.2z M406.6,674.1c0,2.9,1.2,5.1,4.4,5.1c3.2,0,4.5-2.1,4.5-5.1v-13.9c0-2.9-1.3-5.1-4.5-5.1
					c-3.2,0-4.4,2.1-4.4,5.1V674.1z"/>
				<path class="st2" d="M431.9,680.5H430l-6.1-23.7v23.8h-1.7v-26.8h2.7l6.1,23.7l6-23.7h2.7v26.8H438v-23.8L431.9,680.5z"/>
			</g>
		</g>
		<g>
			<g>
				<path class="st2" d="M508.1,664.9c1-1.5,2.5-2.1,4.7-2.1c4,0,5.6,2.8,5.6,6.6v4.6c0,3.9-1.9,6.8-6.3,6.8c-4.4,0-6.2-2.9-6.2-6.8
					v-1.5h1.8v1.5c0,2.9,1.2,5.1,4.4,5.1c3.2,0,4.4-2.2,4.4-5.1v-4.5c0-2.9-1.2-5.1-4.4-5.1c-2.1,0-3.6,1.1-4.1,3.1v0.5h-1.8
					l0.7-14.3h10.9v1.6h-9.1L508.1,664.9z"/>
				<path class="st2" d="M523.1,660.2c0-3.9,1.9-6.8,6.4-6.8s6.4,2.8,6.4,6.8V674c0,3.9-1.9,6.8-6.4,6.8s-6.4-2.9-6.4-6.8V660.2z
					 M525,674c0,3,1.3,5.1,4.5,5.1c3.2,0,4.5-2.1,4.5-5.1v-13.9c0-2.9-1.3-5.1-4.5-5.1c-3.2,0-4.5,2.1-4.5,5.1V674z"/>
			</g>
		</g>
		<g>
			<g>
				
					<image style="overflow:visible;opacity:0.4;" width="54" height="54" xlink:href="58C5815B.png"  transform="matrix(1 0 0 1 453 642)">
				</image>
				<g>
					<g>
						<linearGradient id="SVGID_2_" gradientUnits="userSpaceOnUse" x1="480.1806" y1="685.9092" x2="480.1806" y2="644.4849">
							<stop  offset="0" style="stop-color:#C99B14"/>
							<stop  offset="0.2137" style="stop-color:#B78817"/>
							<stop  offset="0.2223" style="stop-color:#B98B1B"/>
							<stop  offset="0.3396" style="stop-color:#D6B74E"/>
							<stop  offset="0.4418" style="stop-color:#EBD774"/>
							<stop  offset="0.524" style="stop-color:#F8EA8B"/>
							<stop  offset="0.5758" style="stop-color:#FDF193"/>
							<stop  offset="0.5784" style="stop-color:#F9EB8A"/>
							<stop  offset="0.589" style="stop-color:#ECD66B"/>
							<stop  offset="0.6011" style="stop-color:#E1C34F"/>
							<stop  offset="0.6146" style="stop-color:#D8B439"/>
							<stop  offset="0.6305" style="stop-color:#D1A928"/>
							<stop  offset="0.6501" style="stop-color:#CDA11D"/>
							<stop  offset="0.6776" style="stop-color:#CA9C16"/>
							<stop  offset="0.754" style="stop-color:#C99B14"/>
							<stop  offset="0.7571" style="stop-color:#C79814"/>
							<stop  offset="0.7907" style="stop-color:#AF7E15"/>
							<stop  offset="0.8275" style="stop-color:#9E6A16"/>
							<stop  offset="0.8692" style="stop-color:#915B17"/>
							<stop  offset="0.9192" style="stop-color:#895317"/>
							<stop  offset="1" style="stop-color:#875017"/>
						</linearGradient>
						<circle class="st3" cx="480.2" cy="666.9" r="20.7"/>
						<linearGradient id="SVGID_3_" gradientUnits="userSpaceOnUse" x1="480.1806" y1="685.2145" x2="480.1806" y2="645.3058">
							<stop  offset="0" style="stop-color:#875017"/>
							<stop  offset="8.081509e-02" style="stop-color:#895317"/>
							<stop  offset="0.1308" style="stop-color:#915B17"/>
							<stop  offset="0.1725" style="stop-color:#9E6A16"/>
							<stop  offset="0.2093" style="stop-color:#AF7E15"/>
							<stop  offset="0.2429" style="stop-color:#C79814"/>
							<stop  offset="0.246" style="stop-color:#C99B14"/>
							<stop  offset="0.3224" style="stop-color:#CA9C16"/>
							<stop  offset="0.3499" style="stop-color:#CDA11D"/>
							<stop  offset="0.3695" style="stop-color:#D1A928"/>
							<stop  offset="0.3854" style="stop-color:#D8B439"/>
							<stop  offset="0.3989" style="stop-color:#E1C34F"/>
							<stop  offset="0.411" style="stop-color:#ECD66B"/>
							<stop  offset="0.4216" style="stop-color:#F9EB8A"/>
							<stop  offset="0.4242" style="stop-color:#FDF193"/>
							<stop  offset="0.476" style="stop-color:#F8EA8B"/>
							<stop  offset="0.5582" style="stop-color:#EBD774"/>
							<stop  offset="0.6604" style="stop-color:#D6B74E"/>
							<stop  offset="0.7777" style="stop-color:#B98B1B"/>
							<stop  offset="0.7863" style="stop-color:#B78817"/>
							<stop  offset="1" style="stop-color:#C99B14"/>
						</linearGradient>
						<circle class="st4" cx="480.2" cy="666.9" r="20"/>
						<g>
							<linearGradient id="SVGID_4_" gradientUnits="userSpaceOnUse" x1="480.1806" y1="682.174" x2="480.1806" y2="651.7805">
								<stop  offset="0" style="stop-color:#C99B14"/>
								<stop  offset="3.745796e-02" style="stop-color:#CFA523"/>
								<stop  offset="0.11" style="stop-color:#E0C14C"/>
								<stop  offset="0.2095" style="stop-color:#FAEC8C"/>
								<stop  offset="0.2195" style="stop-color:#FDF193"/>
								<stop  offset="0.2511" style="stop-color:#FAEC8B"/>
								<stop  offset="0.2989" style="stop-color:#F1DE77"/>
								<stop  offset="0.357" style="stop-color:#E3C754"/>
								<stop  offset="0.4227" style="stop-color:#D0A725"/>
								<stop  offset="0.4445" style="stop-color:#C99B14"/>
								<stop  offset="0.61" style="stop-color:#EDD66C"/>
								<stop  offset="0.6933" style="stop-color:#FDF193"/>
								<stop  offset="0.9055" style="stop-color:#B78817"/>
								<stop  offset="1" style="stop-color:#C99B14"/>
							</linearGradient>
							<circle class="st5" cx="480.2" cy="666.9" r="16"/>
							
								<linearGradient id="SVGID_5_" gradientUnits="userSpaceOnUse" x1="4711.3354" y1="558.1489" x2="4711.3354" y2="526.7324" gradientTransform="matrix(-1 0 0 -1 5191.5161 1210.6722)">
								<stop  offset="0" style="stop-color:#875017"/>
								<stop  offset="0.1072" style="stop-color:#9D6A17"/>
								<stop  offset="0.2475" style="stop-color:#B78817"/>
								<stop  offset="0.6677" style="stop-color:#FDF193"/>
								<stop  offset="0.7431" style="stop-color:#FCEF90"/>
								<stop  offset="0.8008" style="stop-color:#F8E886"/>
								<stop  offset="0.8526" style="stop-color:#F1DD76"/>
								<stop  offset="0.9009" style="stop-color:#E8CE5F"/>
								<stop  offset="0.9469" style="stop-color:#DBB941"/>
								<stop  offset="0.9905" style="stop-color:#CDA11D"/>
								<stop  offset="1" style="stop-color:#C99B14"/>
							</linearGradient>
							<circle class="st6" cx="480.2" cy="666.9" r="15.7"/>
							<linearGradient id="SVGID_6_" gradientUnits="userSpaceOnUse" x1="480.1806" y1="679.7397" x2="480.1806" y2="651.7759">
								<stop  offset="0" style="stop-color:#875017"/>
								<stop  offset="0.1072" style="stop-color:#9D6A17"/>
								<stop  offset="0.2475" style="stop-color:#B78817"/>
								<stop  offset="0.6677" style="stop-color:#FDF193"/>
								<stop  offset="0.7431" style="stop-color:#FCEF90"/>
								<stop  offset="0.8008" style="stop-color:#F8E886"/>
								<stop  offset="0.8526" style="stop-color:#F1DD76"/>
								<stop  offset="0.9009" style="stop-color:#E8CE5F"/>
								<stop  offset="0.9469" style="stop-color:#DBB941"/>
								<stop  offset="0.9905" style="stop-color:#CDA11D"/>
								<stop  offset="1" style="stop-color:#C99B14"/>
							</linearGradient>
							<circle class="st7" cx="480.2" cy="666.9" r="14"/>
						</g>
					</g>
				</g>
			</g>
			<g class="st8">
				<image style="overflow:visible;" width="114" height="114" xlink:href="58C58159.png"  transform="matrix(1 0 0 1 423 610)">
				</image>
			</g>
			<g>
				<g>
					<path class="st9" d="M474.4,671c0.1,0.6,0.2,1.1,0.2,1.6l6.1,0l6.1,0c0-0.5,0.1-1,0.2-1.6H474.4z"/>
					<path class="st9" d="M482.1,661c0,0.7-0.6,1.3-1.3,1.3c-0.7,0-1.3-0.6-1.3-1.3s0.6-1.3,1.3-1.3
						C481.5,659.7,482.1,660.3,482.1,661z"/>
					<path class="st9" d="M486.2,663.8c0,0.5-0.4,0.9-0.9,0.9c-0.5,0-0.9-0.4-0.9-0.9c0-0.5,0.4-0.9,0.9-0.9
						C485.8,662.9,486.2,663.3,486.2,663.8z"/>
					<circle class="st9" cx="489.7" cy="665.3" r="0.7"/>
					<circle class="st9" cx="471.9" cy="665.3" r="0.7"/>
					<path class="st9" d="M477.2,663.8c0,0.5-0.4,0.9-0.9,0.9s-0.9-0.4-0.9-0.9c0-0.5,0.4-0.9,0.9-0.9S477.2,663.3,477.2,663.8z"/>
					<g>
						<path class="st9" d="M487.7,669.3c0.8-2.3,2-4,2-4l-2,0.9c-0.9,0.4-2-0.2-2.2-1.2l-0.2-1.3l-1.2,1.1c-0.7,0.7-1.9,0.4-2.2-0.5
							l-1.1-3.3l-1.1,3.3c-0.3,0.9-1.5,1.2-2.2,0.5l-1.2-1.1l-0.2,1.2c-0.1,1-1.2,1.6-2.2,1.2l-2-0.8c0,0,1.2,1.7,2,4H487.7z"/>
						<path class="st9" d="M474,669.5c0.1,0.4,0.2,0.6,0.3,0.8h12.9c0.1-0.2,0.2-0.4,0.3-0.8H474z"/>
					</g>
				</g>
			</g>
			<g>
				<radialGradient id="SVGID_7_" cx="496.2114" cy="666.9228" r="6.3077" gradientUnits="userSpaceOnUse">
					<stop  offset="0" style="stop-color:#FFFFFF"/>
					<stop  offset="5.213898e-02" style="stop-color:#E1E1E1"/>
					<stop  offset="0.1544" style="stop-color:#ADADAD"/>
					<stop  offset="0.2611" style="stop-color:#7F7F7F"/>
					<stop  offset="0.3699" style="stop-color:#585858"/>
					<stop  offset="0.4816" style="stop-color:#383838"/>
					<stop  offset="0.5969" style="stop-color:#1F1F1F"/>
					<stop  offset="0.7175" style="stop-color:#0E0E0E"/>
					<stop  offset="0.8468" style="stop-color:#030303"/>
					<stop  offset="1" style="stop-color:#000000"/>
				</radialGradient>
				<path class="st10" d="M502.5,666.5c0.2,3.8-2.9,6.9-6.7,6.7c-3.1-0.2-5.7-2.7-5.9-5.9c-0.2-3.8,2.9-6.9,6.7-6.7
					C499.8,660.8,502.3,663.4,502.5,666.5z"/>
				<g>
					
						<radialGradient id="SVGID_8_" cx="36.3001" cy="413.1418" r="58.1905" gradientTransform="matrix(-0.4837 0.2227 3.195533e-02 6.936332e-02 500.8017 630.6898)" gradientUnits="userSpaceOnUse">
						<stop  offset="0" style="stop-color:#FFC107"/>
						<stop  offset="2.610862e-03" style="stop-color:#FEC007"/>
						<stop  offset="0.1239" style="stop-color:#C39405"/>
						<stop  offset="0.2478" style="stop-color:#8F6C04"/>
						<stop  offset="0.3721" style="stop-color:#634B03"/>
						<stop  offset="0.4966" style="stop-color:#3F3002"/>
						<stop  offset="0.6213" style="stop-color:#241B01"/>
						<stop  offset="0.7463" style="stop-color:#100C00"/>
						<stop  offset="0.8722" style="stop-color:#040300"/>
						<stop  offset="1" style="stop-color:#000000"/>
					</radialGradient>
					<path class="st11" d="M474.1,677.1c1.3,2.8,12.3,0.5,24.5-5.1c12.2-5.6,21.1-12.5,19.8-15.3c-1.3-2.8-12.3-0.5-24.5,5.1
						C481.6,667.5,472.8,674.3,474.1,677.1z"/>
				</g>
			</g>
			<g>
				
					<radialGradient id="SVGID_9_" cx="-2399.4734" cy="-665.1168" r="9.8157" gradientTransform="matrix(0.9974 -7.220000e-02 -7.220000e-02 -0.9974 2814.4338 -183.5032)" gradientUnits="userSpaceOnUse">
					<stop  offset="0" style="stop-color:#E0342E"/>
					<stop  offset="7.914821e-03" style="stop-color:#D8322C"/>
					<stop  offset="6.051940e-02" style="stop-color:#A62722"/>
					<stop  offset="0.1157" style="stop-color:#791D19"/>
					<stop  offset="0.1726" style="stop-color:#541411"/>
					<stop  offset="0.2314" style="stop-color:#350D0B"/>
					<stop  offset="0.293" style="stop-color:#1E0806"/>
					<stop  offset="0.3584" style="stop-color:#0D0403"/>
					<stop  offset="0.4303" style="stop-color:#030201"/>
					<stop  offset="0.5212" style="stop-color:#000100"/>
				</radialGradient>
				<path class="st12" d="M479,652.4c-0.4-5.4-5.1-9.5-10.5-9.1c-5.4,0.4-9.5,5.1-9.1,10.5c0.4,5.4,5.1,9.5,10.5,9.1
					C475.3,662.5,479.4,657.8,479,652.4z"/>
				
					<radialGradient id="SVGID_10_" cx="-2399.4734" cy="-665.1168" r="9.8156" gradientTransform="matrix(0.9974 -7.220000e-02 -7.220000e-02 -0.9974 2814.4338 -183.5032)" gradientUnits="userSpaceOnUse">
					<stop  offset="0" style="stop-color:#E0342E"/>
					<stop  offset="7.914821e-03" style="stop-color:#D8322C"/>
					<stop  offset="6.051940e-02" style="stop-color:#A62722"/>
					<stop  offset="0.1157" style="stop-color:#791D19"/>
					<stop  offset="0.1726" style="stop-color:#541411"/>
					<stop  offset="0.2314" style="stop-color:#350D0B"/>
					<stop  offset="0.293" style="stop-color:#1E0806"/>
					<stop  offset="0.3584" style="stop-color:#0D0403"/>
					<stop  offset="0.4303" style="stop-color:#030201"/>
					<stop  offset="0.5212" style="stop-color:#000100"/>
				</radialGradient>
				<path class="st13" d="M479,652.4c-0.4-5.4-5.1-9.5-10.5-9.1c-5.4,0.4-9.5,5.1-9.1,10.5c0.4,5.4,5.1,9.5,10.5,9.1
					C475.3,662.5,479.4,657.8,479,652.4z"/>
				
					<radialGradient id="SVGID_11_" cx="-193.7123" cy="-165.8244" r="6.0718" gradientTransform="matrix(0.8289 0.8224 2.1743 -2.1912 990.3408 449.081)" gradientUnits="userSpaceOnUse">
					<stop  offset="0" style="stop-color:#FFEC87;stop-opacity:0.99"/>
					<stop  offset="8.484850e-02" style="stop-color:#FFEC87"/>
					<stop  offset="0.1369" style="stop-color:#C6B769"/>
					<stop  offset="0.1914" style="stop-color:#92884D"/>
					<stop  offset="0.2468" style="stop-color:#655E36"/>
					<stop  offset="0.3021" style="stop-color:#413D22"/>
					<stop  offset="0.3572" style="stop-color:#242313"/>
					<stop  offset="0.4122" style="stop-color:#101009"/>
					<stop  offset="0.4669" style="stop-color:#040502"/>
					<stop  offset="0.5212" style="stop-color:#000100"/>
				</radialGradient>
				<path class="st14" d="M474.3,658.1c7.3-7.3,10.9-15.5,8.2-18.3c-2.8-2.8-10.9,1-18.2,8.3c-7.3,7.3-10.9,15.5-8.2,18.3
					C458.8,669.2,467,665.5,474.3,658.1z"/>
				
					<radialGradient id="SVGID_12_" cx="-2399.4734" cy="-665.1168" r="7.1078" gradientTransform="matrix(0.9974 -7.220000e-02 -7.220000e-02 -0.9974 2814.4338 -183.5032)" gradientUnits="userSpaceOnUse">
					<stop  offset="0" style="stop-color:#FFFFFF"/>
					<stop  offset="3.438386e-02" style="stop-color:#D8D8D8"/>
					<stop  offset="8.427510e-02" style="stop-color:#A6A6A6"/>
					<stop  offset="0.1366" style="stop-color:#797A79"/>
					<stop  offset="0.1905" style="stop-color:#545554"/>
					<stop  offset="0.2464" style="stop-color:#353635"/>
					<stop  offset="0.3048" style="stop-color:#1E1F1E"/>
					<stop  offset="0.3668" style="stop-color:#0D0E0D"/>
					<stop  offset="0.435" style="stop-color:#030403"/>
					<stop  offset="0.5212" style="stop-color:#000100"/>
				</radialGradient>
				<path class="st15" d="M476.3,652.6c-0.3-3.9-3.7-6.9-7.6-6.6c-3.9,0.3-6.9,3.7-6.6,7.6c0.3,3.9,3.7,6.9,7.6,6.6
					C473.7,659.9,476.6,656.5,476.3,652.6z"/>
			</g>
			<g class="st16">
				<image style="overflow:visible;" width="152" height="152" xlink:href="58C5815F.png"  transform="matrix(1 0 0 1 404 591)">
				</image>
			</g>
		</g>
	</g>
	<path class="st17" d="M542.1,719.4H208.9c-28.7,0-51.9-23.3-51.9-51.9v0c0-28.7,23.3-51.9,51.9-51.9h333.1
		c28.7,0,51.9,23.3,51.9,51.9v0C594,696.1,570.7,719.4,542.1,719.4z"/>
</g>
<g>
</g>
<g>
</g>
<g>
</g>
<g>
</g>
<g>
</g>
<g>
</g>
<g>
</g>
<g>
</g>
<g>
</g>
<g>
</g>
<g>
</g>
</svg>
