<?xml version="1.0" encoding="utf-8"?>
<!-- Generator: Adobe Illustrator 22.0.0, SVG Export Plug-In . SVG Version: 6.00 Build 0)  -->
<svg version="1.1" id="Layer_1" xmlns="http://www.w3.org/2000/svg" xmlns:xlink="http://www.w3.org/1999/xlink" x="0px" y="0px"
	 viewBox="0 0 750 1334" style="enable-background:new 0 0 750 1334;" xml:space="preserve">
<style type="text/css">
	.st0{fill:#D3C3E7;}
</style>
<g>
	<g>
		<path class="st0" d="M335.5,658.9v2.2h-1.8v-2.3c0-2.9-1.2-5.1-4.4-5.1s-4.4,2.2-4.4,5.1v13.9c0,2.9,1.2,5,4.4,5s4.4-2.1,4.4-5
			v-3.2h1.8v3.1c0,3.9-1.8,6.8-6.2,6.8s-6.2-2.9-6.2-6.8v-13.7c0-3.9,1.8-6.8,6.2-6.8S335.5,655,335.5,658.9z"/>
		<path class="st0" d="M340.2,679.1v-26.8h1.9v25.2h9.1v1.6H340.2z"/>
		<path class="st0" d="M355.6,658.9c0-3.9,1.9-6.8,6.3-6.8c4.5,0,6.4,2.9,6.4,6.8v13.7c0,3.9-1.9,6.8-6.4,6.8
			c-4.4,0-6.3-2.9-6.3-6.8V658.9z M357.5,672.7c0,2.9,1.2,5.1,4.4,5.1c3.2,0,4.5-2.1,4.5-5.1v-13.9c0-2.9-1.3-5.1-4.5-5.1
			c-3.2,0-4.4,2.1-4.4,5.1V672.7z"/>
		<path class="st0" d="M385.3,658.8v0.6h-1.8v-0.7c0-2.8-1.2-5-4.3-5c-3.1,0-4.3,2.1-4.3,4.9c0,6.5,10.5,6.6,10.5,14
			c0,3.9-1.8,6.7-6.2,6.7c-4.4,0-6.2-2.8-6.2-6.7v-1.4h1.8v1.5c0,2.9,1.2,4.9,4.4,4.9s4.4-2.1,4.4-4.9c0-6.4-10.5-6.6-10.5-14
			c0-4,1.9-6.6,6.2-6.7C383.5,652.1,385.3,654.9,385.3,658.8z"/>
		<path class="st0" d="M399.8,664.7v1.6h-7.9v11.2h9.5v1.6H390v-26.8h11.4v1.6h-9.5v10.8H399.8z"/>
	</g>
</g>
<g>
</g>
<g>
</g>
<g>
</g>
<g>
</g>
<g>
</g>
<g>
</g>
<g>
</g>
<g>
</g>
<g>
</g>
<g>
</g>
<g>
</g>
</svg>
