<?xml version="1.0" encoding="utf-8"?>
<!-- Generator: Adobe Illustrator 22.0.0, SVG Export Plug-In . SVG Version: 6.00 Build 0)  -->
<svg version="1.1" id="Layer_1" xmlns="http://www.w3.org/2000/svg" xmlns:xlink="http://www.w3.org/1999/xlink" x="0px" y="0px"
	 viewBox="0 0 750 1334" style="enable-background:new 0 0 750 1334;" xml:space="preserve">
<style type="text/css">
	.st0{fill:#F4F4F6;stroke:#F4F4F6;stroke-width:0.5;stroke-miterlimit:10;}
</style>
<g>
	<g>
		<path class="st0" d="M271.8,647.3c6,0,8.4,3.5,8.4,8.8v3.9c0,5.7-2.8,8.6-9,8.6h-4.9v14.9h-2.6v-36.2H271.8z M271.2,666.4
			c4.5,0,6.5-1.9,6.5-6.3V656c0-3.9-1.5-6.5-5.8-6.5h-5.5v17H271.2z"/>
		<path class="st0" d="M288.4,647.3v36.2h-2.6v-36.2H288.4z"/>
		<path class="st0" d="M311.1,656.2v3h-2.5V656c0-3.9-1.6-6.8-5.9-6.8c-4.3,0-5.9,2.9-5.9,6.8v18.8c0,3.9,1.6,6.8,5.9,6.8
			c4.3,0,5.9-2.9,5.9-6.8v-4.3h2.5v4.1c0,5.2-2.5,9.1-8.4,9.1c-6,0-8.4-3.9-8.4-9.1v-18.5c0-5.2,2.5-9.1,8.4-9.1
			C308.7,647,311.1,650.9,311.1,656.2z"/>
		<path class="st0" d="M322.2,666.5l-2.7,3.9v13.1h-2.6v-36.2h2.6v19.1l12.7-19.1h2.7l-11.2,16.8l11.9,19.3H333L322.2,666.5z"/>
		<path class="st0" d="M355.1,675.5l-2,8h-2.3l8.5-36.2h3.7l8.7,36.2h-2.6l-2-8H355.1z M355.5,673.4h11.4l-5.8-23.4L355.5,673.4z"/>
		<path class="st0" d="M395.8,647.3c5.9,0,8,2.7,8,7.7v2.1c0,3.9-1.2,6.4-5.1,7.1c4.2,0.8,5.9,3.7,5.9,7.8v3.2
			c0,5.2-2.6,8.4-8.5,8.4h-8.4v-36.2H395.8z M394.5,663.3c4.6,0,6.7-1.1,6.7-5.7v-2.3c0-3.8-1.3-5.7-5.5-5.7h-5.6v13.8H394.5z
			 M396,681.3c4.3,0,6-2.2,6-6.3v-3.3c0-4.7-2.3-6.4-6.9-6.4h-4.9v15.9H396z"/>
		<path class="st0" d="M410.2,656.2c0-5.3,2.6-9.1,8.5-9.1c6,0,8.7,3.9,8.7,9.1v18.5c0,5.3-2.6,9.1-8.7,9.1c-5.9,0-8.5-3.9-8.5-9.1
			V656.2z M412.7,674.8c0,3.9,1.7,6.8,6,6.8c4.4,0,6.1-2.9,6.1-6.8V656c0-3.9-1.7-6.8-6.1-6.8c-4.3,0-6,2.9-6,6.8V674.8z"/>
		<path class="st0" d="M442.3,666.7l-7.9,16.8h-2.5l8.8-18.8l-8.2-17.4h2.7l7.4,15.6l7.4-15.6h2.5l-8.2,17.4l8.8,18.8h-2.7
			L442.3,666.7z"/>
	</g>
</g>
<g>
</g>
<g>
</g>
<g>
</g>
<g>
</g>
<g>
</g>
<g>
</g>
<g>
</g>
<g>
</g>
<g>
</g>
<g>
</g>
<g>
</g>
</svg>
