<?xml version="1.0" encoding="utf-8"?>
<!-- Generator: Adobe Illustrator 22.0.0, SVG Export Plug-In . SVG Version: 6.00 Build 0)  -->
<svg version="1.1" id="Layer_1" xmlns="http://www.w3.org/2000/svg" xmlns:xlink="http://www.w3.org/1999/xlink" x="0px" y="0px"
	 viewBox="0 0 750 1334" style="enable-background:new 0 0 750 1334;" xml:space="preserve">
<style type="text/css">
	.st0{fill:#F4F4F6;stroke:#F4F4F6;stroke-width:0.5;stroke-miterlimit:10;}
</style>
<g>
	<g>
		<path class="st0" d="M231.8,647.3c6,0,8.4,3.5,8.4,8.8v3.9c0,5.7-2.8,8.6-9,8.6h-4.9v14.9h-2.6v-36.2H231.8z M231.2,666.4
			c4.5,0,6.5-1.9,6.5-6.3V656c0-3.9-1.5-6.5-5.8-6.5h-5.5v17H231.2z"/>
		<path class="st0" d="M254.9,647.3c6,0,8.4,3,8.4,8.2v3.2c0,4.2-1.8,6.7-5.6,7.5c4,0.8,5.6,3.5,5.6,7.4v5.6c0,1.5,0.1,3.2,0.9,4.3
			h-2.7c-0.7-1.1-0.8-2.4-0.8-4.3v-5.7c0-4.8-2.8-6.2-7.3-6.2h-4.1v16.2h-2.6v-36.2H254.9z M253.4,665.2c4.6,0,7.3-1.2,7.3-6v-3.4
			c0-3.9-1.6-6.2-5.9-6.2h-5.5v15.7H253.4z"/>
		<path class="st0" d="M273.4,647.3v36.2h-2.6v-36.2H273.4z"/>
		<path class="st0" d="M297.7,683.5h-17.6v-2.2l15.1-31.8h-14.4v-2.2h17.1v2.2l-15.1,31.8h14.9V683.5z"/>
		<path class="st0" d="M317.9,664.1v2.2h-10.7v15.1h12.8v2.2h-15.4v-36.2h15.4v2.2h-12.8v14.6H317.9z"/>
		<path class="st0" d="M351.2,683.5h-2.6l-8.3-32v32h-2.3v-36.2h3.7l8.2,32l8.2-32h3.7v36.2h-2.5v-32.1L351.2,683.5z"/>
		<path class="st0" d="M372.6,675.5l-2,8h-2.3l8.5-36.2h3.7l8.7,36.2h-2.6l-2-8H372.6z M373,673.4h11.4l-5.8-23.4L373,673.4z"/>
		<path class="st0" d="M412.4,656.2v3H410V656c0-3.9-1.6-6.8-5.9-6.8c-4.3,0-5.9,2.9-5.9,6.8v18.8c0,3.9,1.6,6.8,5.9,6.8
			c4.3,0,5.9-2.9,5.9-6.8v-4.3h2.5v4.1c0,5.2-2.5,9.1-8.4,9.1c-6,0-8.4-3.9-8.4-9.1v-18.5c0-5.2,2.5-9.1,8.4-9.1
			C410,647,412.4,650.9,412.4,656.2z"/>
		<path class="st0" d="M421.8,666.5v17h-2.6v-36.2h2.6v17h12.2v-17h2.6v36.2h-2.6v-17H421.8z"/>
		<path class="st0" d="M446.2,647.3v36.2h-2.6v-36.2H446.2z"/>
		<path class="st0" d="M455.5,683.5h-2.3v-36.2h3.3l11.7,30.5v-30.5h2.3v36.2h-2.8l-12.2-32.2V683.5z"/>
		<path class="st0" d="M490.8,664.1v2.2h-10.7v15.1H493v2.2h-15.4v-36.2H493v2.2h-12.8v14.6H490.8z"/>
	</g>
</g>
<g>
</g>
<g>
</g>
<g>
</g>
<g>
</g>
<g>
</g>
<g>
</g>
<g>
</g>
<g>
</g>
<g>
</g>
<g>
</g>
<g>
</g>
</svg>
