<?xml version="1.0" encoding="utf-8"?>
<!-- Generator: Adobe Illustrator 22.0.0, SVG Export Plug-In . SVG Version: 6.00 Build 0)  -->
<svg version="1.1" id="Layer_1" xmlns="http://www.w3.org/2000/svg" xmlns:xlink="http://www.w3.org/1999/xlink" x="0px" y="0px"
	 viewBox="0 0 750 1334" style="enable-background:new 0 0 750 1334;" xml:space="preserve">
<style type="text/css">
	.st0{fill:#FFFFFF;}
</style>
<g>
	<path class="st0" d="M346.1,654.5c-1.2,1.4-2.9,2.3-5,2.5v-1.7c3.2-0.2,4.7-2,5.5-4.2h1.7V681h-2.1V654.5z"/>
	<path class="st0" d="M366.8,658.5c0,8.6-11.7,11.6-11.8,20.4v0.3h11.5v1.8h-13.6v-1.5c0-10.5,11.8-12.8,11.8-21
		c0-3.5-1.2-5.9-4.9-5.9c-3.6,0-4.8,2.6-4.8,5.8v2h-2v-1.9c0-4.3,2-7.7,7-7.7C364.9,650.9,366.8,654.1,366.8,658.5z"/>
	<path class="st0" d="M370.1,658.5c0-4.4,2.2-7.6,7.1-7.6c4.9,0,7.1,3.2,7.1,7.6v15.3c0,4.4-2.2,7.6-7.1,7.6c-4.9,0-7.1-3.2-7.1-7.6
		V658.5z M372.3,673.8c0,3.3,1.4,5.7,5,5.7s5-2.4,5-5.7v-15.5c0-3.2-1.4-5.6-5-5.6s-5,2.4-5,5.6V673.8z"/>
</g>
<g>
</g>
<g>
</g>
<g>
</g>
<g>
</g>
<g>
</g>
<g>
</g>
<g>
</g>
<g>
</g>
<g>
</g>
<g>
</g>
<g>
</g>
</svg>
