<?xml version="1.0" encoding="utf-8"?>
<!-- Generator: Adobe Illustrator 22.0.0, SVG Export Plug-In . SVG Version: 6.00 Build 0)  -->
<svg version="1.1" id="Layer_1" xmlns="http://www.w3.org/2000/svg" xmlns:xlink="http://www.w3.org/1999/xlink" x="0px" y="0px"
	 viewBox="0 0 750 1334" style="enable-background:new 0 0 750 1334;" xml:space="preserve">
<style type="text/css">
	.st0{fill:#FFFFFF;}
</style>
<g>
	<path class="st0" d="M265.9,676.5v-22.2c0-7.2,3.3-11.2,10.3-11.2c6.6,0,10.1,3.9,10.1,10.8v0.8h-6.4v-1.2c0-3.1-1.4-4.2-3.5-4.2
		c-2.4,0-3.7,1.2-3.7,5.3v8.2h0.1c1.2-2.5,3.1-3.7,6.1-3.7c5,0,7.5,3.5,7.5,9.8v7.7c0,6.9-3.6,10.8-10.2,10.8
		C269.5,687.3,265.9,683.4,265.9,676.5z M279.6,677v-7.6c0-2.9-1.2-4.2-3.5-4.2c-2.3,0-3.5,1.4-3.5,4.2v7.6c0,2.8,1.2,4.2,3.5,4.2
		C278.4,681.2,279.6,679.9,279.6,677z"/>
	<path class="st0" d="M292.7,676.5V654c0-6.9,3.6-10.8,10.2-10.8c6.6,0,10.2,3.9,10.2,10.8v22.6c0,6.9-3.6,10.8-10.2,10.8
		C296.3,687.3,292.7,683.4,292.7,676.5z M306.4,677v-23.4c0-3.1-1.4-4.2-3.5-4.2c-2.1,0-3.5,1.2-3.5,4.2V677c0,3.1,1.4,4.2,3.5,4.2
		C305.1,681.2,306.4,680,306.4,677z"/>
	<path class="st0" d="M332,676.8v-23.1c0-6.6,3.4-10.6,9.9-10.6s9.9,3.9,9.9,10.6v4.5h-6.4v-5c0-2.8-1.4-4-3.4-4s-3.4,1.2-3.4,4v24
		c0,2.8,1.4,3.9,3.4,3.9s3.4-1.1,3.4-3.9v-6.6h6.4v6.1c0,6.6-3.4,10.6-9.9,10.6S332,683.4,332,676.8z"/>
	<path class="st0" d="M358.1,676.5V654c0-6.9,3.6-10.8,10.2-10.8s10.2,3.9,10.2,10.8v22.6c0,6.9-3.6,10.8-10.2,10.8
		S358.1,683.4,358.1,676.5z M371.8,677v-23.4c0-3.1-1.3-4.2-3.5-4.2c-2.1,0-3.5,1.2-3.5,4.2V677c0,3.1,1.4,4.2,3.5,4.2
		C370.5,681.2,371.8,680,371.8,677z"/>
	<path class="st0" d="M385.6,643.8h6.8v43h-6.8V643.8z"/>
	<path class="st0" d="M399.8,643.8h8.5l6.6,25.7h0.1v-25.7h6v43H414l-8.1-31.4h-0.1v31.4h-6V643.8z"/>
	<path class="st0" d="M427.3,676.5v-2.5h6.4v2.9c0,3.1,1.4,4.2,3.5,4.2c2.1,0,3.5-1.1,3.5-4.3c0-3.6-1.4-5.8-5.8-9.7
		c-5.6-5-7.5-8.5-7.5-13.4c0-6.8,3.5-10.7,10.1-10.7c6.6,0,9.8,3.9,9.8,10.8v1.8h-6.4v-2.2c0-3.1-1.2-4.2-3.4-4.2
		c-2.1,0-3.4,1.2-3.4,4.1c0,3.1,1.4,5.4,5.8,9.3c5.6,5,7.4,8.4,7.4,13.7c0,7-3.6,10.9-10.2,10.9S427.3,683.4,427.3,676.5z"/>
</g>
<g>
</g>
<g>
</g>
<g>
</g>
<g>
</g>
<g>
</g>
<g>
</g>
<g>
</g>
<g>
</g>
<g>
</g>
<g>
</g>
<g>
</g>
</svg>
