<?xml version="1.0" encoding="utf-8"?>
<!-- Generator: Adobe Illustrator 22.0.0, SVG Export Plug-In . SVG Version: 6.00 Build 0)  -->
<svg version="1.1" id="Layer_1" xmlns="http://www.w3.org/2000/svg" xmlns:xlink="http://www.w3.org/1999/xlink" x="0px" y="0px"
	 viewBox="0 0 750 1334" style="enable-background:new 0 0 750 1334;" xml:space="preserve">
<style type="text/css">
	.st0{fill:#FFFFFF;}
</style>
<g>
	<path class="st0" d="M233.7,676.8v-23.1c0-6.6,3.4-10.6,9.9-10.6s9.9,3.9,9.9,10.6v4.5h-6.4v-5c0-2.8-1.4-4-3.4-4s-3.4,1.2-3.4,4
		v24c0,2.8,1.4,3.9,3.4,3.9s3.4-1.1,3.4-3.9v-6.6h6.4v6.1c0,6.6-3.4,10.6-9.9,10.6S233.7,683.4,233.7,676.8z"/>
	<path class="st0" d="M260.7,676.5V654c0-6.9,3.6-10.8,10.2-10.8c6.6,0,10.2,3.9,10.2,10.8v22.6c0,6.9-3.6,10.8-10.2,10.8
		C264.3,687.3,260.7,683.4,260.7,676.5z M274.4,677v-23.4c0-3.1-1.4-4.2-3.5-4.2c-2.1,0-3.5,1.2-3.5,4.2V677c0,3.1,1.4,4.2,3.5,4.2
		C273.1,681.2,274.4,680,274.4,677z"/>
	<path class="st0" d="M289.1,643.8h6.8v36.8H307v6.1h-17.9V643.8z"/>
	<path class="st0" d="M313.6,643.8h6.8v36.8h11.1v6.1h-17.9V643.8z"/>
	<path class="st0" d="M338.1,643.8h18.4v6.1h-11.7v11.4h9.3v6.1h-9.3v13.2h11.7v6.1h-18.4V643.8z"/>
	<path class="st0" d="M363.3,676.8v-23.1c0-6.6,3.4-10.6,9.9-10.6c6.5,0,9.9,3.9,9.9,10.6v4.5h-6.4v-5c0-2.8-1.3-4-3.4-4
		s-3.4,1.2-3.4,4v24c0,2.8,1.4,3.9,3.4,3.9s3.4-1.1,3.4-3.9v-6.6h6.4v6.1c0,6.6-3.4,10.6-9.9,10.6
		C366.7,687.3,363.3,683.4,363.3,676.8z"/>
	<path class="st0" d="M395.9,649.9h-7.1v-6.1h20.9v6.1h-7.1v36.8h-6.8V649.9z"/>
	<path class="st0" d="M416.3,643.8h18.4v6.1h-11.7v11.4h9.3v6.1h-9.3v13.2h11.7v6.1h-18.4V643.8z"/>
	<path class="st0" d="M442,643.8h10.3c6.8,0,10.1,3.7,10.1,10.6v21.7c0,6.9-3.3,10.6-10.1,10.6H442V643.8z M452.2,680.6
		c2.1,0,3.4-1.1,3.4-4.2v-22.3c0-3.1-1.3-4.2-3.4-4.2h-3.4v30.7H452.2z"/>
	<path class="st0" d="M470.8,661.7v-17.9h6.8v17.9l-0.9,13.7h-5L470.8,661.7z M471,680.2h6.5v6.5H471V680.2z"/>
</g>
<g>
</g>
<g>
</g>
<g>
</g>
<g>
</g>
<g>
</g>
<g>
</g>
<g>
</g>
<g>
</g>
<g>
</g>
<g>
</g>
<g>
</g>
</svg>
