<?xml version="1.0" encoding="utf-8"?>
<!-- Generator: Adobe Illustrator 22.0.0, SVG Export Plug-In . SVG Version: 6.00 Build 0)  -->
<svg version="1.1" id="Layer_1" xmlns="http://www.w3.org/2000/svg" xmlns:xlink="http://www.w3.org/1999/xlink" x="0px" y="0px"
	 viewBox="0 0 750 1334" style="enable-background:new 0 0 750 1334;" xml:space="preserve">
<style type="text/css">
	.st0{fill:url(#SVGID_1_);}
	.st1{fill:none;stroke:#FFFFFF;stroke-width:3;stroke-miterlimit:10;}
	.st2{fill:#FFFFFF;}
	.st3{opacity:0.75;stroke:#000000;stroke-width:3;stroke-miterlimit:10;}
</style>
<g>
	<linearGradient id="SVGID_1_" gradientUnits="userSpaceOnUse" x1="375" y1="704" x2="375" y2="630">
		<stop  offset="0" style="stop-color:#037DF9"/>
		<stop  offset="1" style="stop-color:#01A2FC"/>
	</linearGradient>
	<path class="st0" d="M525,704H225c-20.4,0-37-16.6-37-37v0c0-20.4,16.6-37,37-37h300c20.4,0,37,16.6,37,37v0
		C562,687.4,545.4,704,525,704z"/>
	<path class="st1" d="M525,704H225c-20.4,0-37-16.6-37-37v0c0-20.4,16.6-37,37-37h300c20.4,0,37,16.6,37,37v0
		C562,687.4,545.4,704,525,704z"/>
	<g>
		<path class="st2" d="M242.1,682.3V653h5.7c2.7,0,4.6,0.6,5.7,1.9c1.1,1.3,1.7,3.4,1.7,6.5v11.5c0,3.2-0.6,5.6-1.7,7.1
			c-1.1,1.5-3,2.3-5.7,2.3H242.1z M245.8,679.2h2c0.6,0,1.1-0.1,1.5-0.2c0.4-0.1,0.8-0.4,1-0.7s0.5-0.6,0.6-1s0.3-0.8,0.3-1.4
			c0.1-0.6,0.1-1.2,0.1-1.6c0-0.4,0-1,0-1.9c0-0.3,0-0.5,0-0.6v-9.4c0-0.5,0-1,0-1.3c0-0.3,0-0.7,0-1.1s-0.1-0.8-0.1-1
			c0-0.3-0.1-0.5-0.2-0.8s-0.2-0.6-0.3-0.7c-0.1-0.2-0.3-0.4-0.5-0.5c-0.2-0.2-0.4-0.3-0.6-0.4s-0.5-0.2-0.9-0.2
			c-0.3-0.1-0.7-0.1-1.1-0.1h-1.9V679.2z"/>
		<path class="st2" d="M270.7,680.6c-0.9,1.3-2.3,2-4.2,2s-3.4-0.7-4.2-2c-0.9-1.3-1.3-3.2-1.3-5.7v-6.3c0-2.5,0.4-4.4,1.3-5.7
			c0.9-1.3,2.3-2,4.2-2s3.4,0.7,4.2,2c0.9,1.3,1.3,3.2,1.3,5.7v6.3C271.9,677.4,271.5,679.3,270.7,680.6z M265.8,679
			c0.2,0.1,0.4,0.1,0.7,0.1c0.3,0,0.5,0,0.7-0.1c0.2-0.1,0.4-0.2,0.5-0.3c0.1-0.1,0.2-0.3,0.3-0.6c0.1-0.2,0.2-0.5,0.2-0.6
			s0.1-0.5,0.1-0.8c0-0.3,0-0.6,0-0.8s0-0.5,0-0.9v-6.3c0-0.4,0-0.7,0-0.9s0-0.5,0-0.8c0-0.3-0.1-0.6-0.1-0.8s-0.1-0.4-0.2-0.6
			c-0.1-0.2-0.2-0.4-0.3-0.6s-0.3-0.2-0.5-0.3c-0.2-0.1-0.4-0.1-0.7-0.1c-0.3,0-0.5,0-0.7,0.1c-0.2,0.1-0.4,0.2-0.5,0.3
			s-0.2,0.3-0.3,0.6c-0.1,0.2-0.2,0.5-0.2,0.6c0,0.2-0.1,0.5-0.1,0.8s0,0.6,0,0.8s0,0.5,0,0.9v6.3c0,0.4,0,0.7,0,0.9s0,0.5,0,0.8
			s0.1,0.6,0.1,0.8c0,0.2,0.1,0.4,0.2,0.6c0.1,0.2,0.2,0.4,0.3,0.6C265.4,678.8,265.6,679,265.8,679z"/>
		<path class="st2" d="M280.7,682.6c-0.8,0-1.4-0.3-1.9-1c-0.5-0.7-0.7-1.5-0.7-2.4v-17.9h3.7v16.6c0,0.4,0.1,0.8,0.4,1.1
			c0.2,0.3,0.5,0.4,0.9,0.4c0.2,0,0.4,0,0.6-0.1c0.2-0.1,0.4-0.1,0.6-0.3c0.2-0.1,0.3-0.2,0.4-0.3c0.1-0.1,0.3-0.2,0.5-0.4
			c0.2-0.2,0.3-0.3,0.4-0.4v-16.6h3.7v21h-3.7v-2.3c-0.4,0.4-0.6,0.6-0.8,0.8c-0.2,0.2-0.4,0.4-0.8,0.7c-0.3,0.3-0.6,0.5-0.9,0.6
			c-0.3,0.1-0.6,0.2-1,0.3C281.5,682.6,281.1,682.6,280.7,682.6z"/>
		<path class="st2" d="M302.6,682.6c-0.7,0-1.4-0.2-2-0.6c-0.6-0.4-1.1-0.9-1.7-1.6v1.9h-3.7V653h3.7v10.5c0.3-0.4,0.6-0.7,0.8-0.9
			s0.4-0.4,0.8-0.7s0.7-0.5,1-0.6c0.4-0.1,0.7-0.2,1.2-0.2c0.6,0,1.2,0.1,1.7,0.4c0.5,0.3,0.9,0.6,1.2,0.9s0.6,0.9,0.8,1.6
			c0.2,0.7,0.4,1.3,0.5,1.8c0.1,0.5,0.2,1.3,0.3,2.2c0.1,0.9,0.1,1.7,0.1,2.3c0,0.6,0,1.4,0,2.4v0.3c0,0.9,0,1.8-0.1,2.7
			c-0.1,0.9-0.2,1.7-0.4,2.6c-0.2,0.9-0.5,1.6-0.8,2.3c-0.3,0.6-0.8,1.2-1.3,1.6C303.9,682.4,303.3,682.6,302.6,682.6z M301.7,679.2
			c0.4,0,0.7-0.2,1-0.5c0.3-0.3,0.5-0.8,0.6-1.4s0.2-1.2,0.2-1.8s0.1-1.3,0.1-2.1c0-0.6,0-1.4,0-2.3c0-1,0-1.7,0-2.2
			c0-0.5,0-0.9,0-1.3c0-0.4-0.1-0.8-0.1-1.2c-0.1-0.4-0.2-0.7-0.3-1c-0.1-0.3-0.3-0.5-0.5-0.6c-0.2-0.2-0.5-0.3-0.8-0.3
			c-1,0-1.9,0.3-2.8,0.8v13.2C299.9,679,300.8,679.2,301.7,679.2z"/>
		<path class="st2" d="M313.3,682.3V653h3.7v29.4H313.3z"/>
		<path class="st2" d="M328.5,682.6c-0.9,0-1.7-0.2-2.3-0.5c-0.7-0.3-1.2-0.8-1.6-1.4c-0.4-0.6-0.7-1.3-0.9-2.2
			c-0.2-0.9-0.4-1.8-0.5-2.6c-0.1-0.9-0.1-1.9-0.2-3.1c0-0.9,0-1.8,0-2.8c0-1.1,0.1-2.1,0.2-2.9c0.1-0.8,0.3-1.7,0.5-2.5
			c0.2-0.8,0.6-1.5,1-2s0.9-0.9,1.6-1.2c0.6-0.3,1.4-0.5,2.3-0.5c0.8,0,1.5,0.1,2.1,0.4s1.1,0.6,1.5,1.1c0.4,0.5,0.7,1,1,1.6
			s0.5,1.3,0.6,2.1c0.1,0.8,0.2,1.6,0.3,2.4c0.1,0.8,0.1,1.7,0.1,2.8v0.5h-7.3v1c0,0.1,0,0.4,0,0.7c0,0.4,0,0.8,0,1.3
			c0,0.4,0,0.9,0.1,1.3c0,0.4,0.1,0.8,0.2,1.2c0.1,0.4,0.2,0.7,0.3,1s0.3,0.5,0.5,0.7c0.2,0.2,0.5,0.2,0.8,0.2
			c0.4,0,0.7-0.1,0.9-0.3c0.2-0.2,0.4-0.4,0.6-0.8c0.1-0.3,0.2-0.7,0.3-1c0-0.3,0.1-0.8,0.1-1.3V675h3.6v0.8
			c-0.1,2.2-0.6,3.9-1.4,5.1C331.7,682,330.3,682.6,328.5,682.6z M326.7,669.7h3.6v-1.3c0-0.6,0-1-0.1-1.5c0-0.4-0.1-0.8-0.3-1.2
			c-0.1-0.4-0.3-0.7-0.6-1s-0.6-0.3-0.9-0.3c-0.4,0-0.7,0.1-0.9,0.3c-0.3,0.2-0.4,0.6-0.6,1c-0.1,0.4-0.2,0.9-0.3,1.3
			c0,0.4-0.1,0.9-0.1,1.5V669.7z"/>
		<path class="st2" d="M355.6,682.6c-1.1,0-2-0.2-2.9-0.5s-1.5-0.8-2-1.5c-0.5-0.6-1-1.4-1.3-2.3c-0.3-0.9-0.6-1.9-0.7-3
			s-0.2-2.2-0.2-3.6v-8.4c0-1.3,0.1-2.5,0.2-3.6s0.4-2,0.7-3c0.3-0.9,0.8-1.7,1.3-2.3c0.5-0.6,1.2-1.1,2-1.4s1.8-0.5,2.9-0.5
			c1.2,0,2.2,0.2,3.1,0.6c0.9,0.4,1.6,1,2.1,1.8c0.5,0.8,0.9,1.7,1.2,2.7c0.3,1,0.4,2.3,0.5,3.6c0,0.2,0,0.5,0,1h-3.7v-0.9
			c0-0.6,0-1.1-0.1-1.5c0-0.4-0.1-0.8-0.2-1.3c-0.1-0.4-0.2-0.8-0.3-1.1c-0.1-0.3-0.3-0.6-0.6-0.8c-0.2-0.2-0.5-0.4-0.9-0.5
			c-0.3-0.1-0.7-0.2-1.2-0.2c-0.6,0-1.1,0.1-1.5,0.3c-0.4,0.2-0.8,0.5-1,0.8c-0.2,0.3-0.4,0.8-0.6,1.4c-0.1,0.6-0.2,1.1-0.3,1.7
			c0,0.6-0.1,1.2-0.1,2v10.5c0,0.7,0,1.3,0.1,1.9c0.1,0.6,0.2,1.1,0.3,1.7s0.4,1,0.6,1.4c0.2,0.4,0.6,0.7,1,0.9s0.9,0.4,1.4,0.4
			c0.5,0,1-0.1,1.4-0.4s0.7-0.5,0.9-0.9c0.2-0.4,0.4-0.8,0.5-1.4c0.1-0.6,0.2-1.1,0.3-1.7c0-0.5,0.1-1.2,0.1-1.9v-1h3.7v1
			c0,1.5-0.1,2.9-0.4,4c-0.2,1.1-0.6,2.2-1.1,3c-0.5,0.9-1.2,1.5-2.1,2C357.9,682.4,356.8,682.6,355.6,682.6z"/>
		<path class="st2" d="M377.1,680.6c-0.9,1.3-2.3,2-4.2,2s-3.4-0.7-4.2-2c-0.9-1.3-1.3-3.2-1.3-5.7v-6.3c0-2.5,0.4-4.4,1.3-5.7
			c0.9-1.3,2.3-2,4.2-2s3.4,0.7,4.2,2c0.8,1.3,1.3,3.2,1.3,5.7v6.3C378.4,677.4,378,679.3,377.1,680.6z M372.2,679
			c0.2,0.1,0.4,0.1,0.7,0.1c0.3,0,0.5,0,0.7-0.1c0.2-0.1,0.4-0.2,0.5-0.3c0.1-0.1,0.2-0.3,0.3-0.6c0.1-0.2,0.2-0.5,0.2-0.6
			s0.1-0.5,0.1-0.8c0-0.3,0-0.6,0-0.8s0-0.5,0-0.9v-6.3c0-0.4,0-0.7,0-0.9s0-0.5,0-0.8c0-0.3-0.1-0.6-0.1-0.8s-0.1-0.4-0.2-0.6
			c-0.1-0.2-0.2-0.4-0.3-0.6s-0.3-0.2-0.5-0.3c-0.2-0.1-0.4-0.1-0.7-0.1c-0.3,0-0.5,0-0.7,0.1c-0.2,0.1-0.4,0.2-0.5,0.3
			s-0.2,0.3-0.3,0.6c-0.1,0.2-0.2,0.5-0.2,0.6c0,0.2-0.1,0.5-0.1,0.8s0,0.6,0,0.8s0,0.5,0,0.9v6.3c0,0.4,0,0.7,0,0.9s0,0.5,0,0.8
			s0.1,0.6,0.1,0.8c0,0.2,0.1,0.4,0.2,0.6c0.1,0.2,0.2,0.4,0.3,0.6C371.9,678.8,372,679,372.2,679z"/>
		<path class="st2" d="M384.7,658.2V654h3.7v4.2H384.7z M384.7,682.3v-21h3.7v21H384.7z"/>
		<path class="st2" d="M394.9,682.3v-21h3.7v2.3c0.5-0.6,1-1,1.3-1.3c0.3-0.3,0.8-0.6,1.4-0.9c0.6-0.3,1.3-0.4,1.9-0.4
			c0.8,0,1.4,0.3,1.9,1s0.7,1.5,0.7,2.4v17.9h-3.7v-15.7c0-0.7-0.1-1.3-0.3-1.6c-0.2-0.3-0.5-0.5-1.1-0.5c-0.3,0-0.6,0.1-0.9,0.2
			s-0.5,0.3-0.7,0.4c-0.2,0.1-0.4,0.3-0.7,0.6v16.6H394.9z"/>
		<path class="st2" d="M417,682.6c-1.5,0-2.7-0.5-3.6-1.5c-0.9-1-1.5-2.4-1.9-4l2.8-1c0.7,2.1,1.6,3.1,2.8,3.1c0.6,0,1-0.2,1.4-0.5
			c0.3-0.4,0.5-0.9,0.5-1.5c0-1-0.3-1.8-0.9-2.4l-3.7-3.1c-0.4-0.3-0.8-0.6-1-0.9s-0.6-0.6-0.8-1c-0.3-0.4-0.5-0.9-0.7-1.4
			c-0.1-0.5-0.2-1-0.2-1.6c0-1.8,0.5-3.2,1.5-4.1c1-1,2.3-1.4,4-1.4c0.8,0,1.5,0.1,2.2,0.4c0.6,0.3,1.2,0.7,1.6,1.2s0.8,1.1,1.1,1.7
			c0.3,0.6,0.5,1.4,0.7,2.1l-2.8,1c-0.1-0.4-0.3-0.8-0.4-1.1s-0.3-0.6-0.5-1s-0.5-0.6-0.8-0.8c-0.3-0.2-0.6-0.3-1-0.3
			c-0.6,0-1,0.2-1.4,0.5c-0.3,0.4-0.5,0.9-0.5,1.5c0,0.7,0.3,1.2,0.9,1.8l3.7,3.1c0.4,0.4,0.8,0.7,1.1,1.1c0.3,0.3,0.6,0.7,0.9,1.2
			c0.3,0.5,0.5,1,0.6,1.5c0.1,0.6,0.2,1.2,0.2,1.8c0,1.8-0.5,3.2-1.5,4.1C420.1,682.1,418.7,682.6,417,682.6z"/>
	</g>
	<path class="st2" d="M493.1,648h-49.2c-2.7,0-4.9,2.2-4.9,4.9v31.2c0,2.7,2.2,4.9,4.9,4.9h49.2c2.7,0,4.9-2.2,4.9-4.9v-31.2
		C498,650.2,495.8,648,493.1,648z M446,685c-1.7,0-3-1.3-3-3s1.3-3,3-3s3,1.3,3,3S447.7,685,446,685z M446,676c-1.7,0-3-1.3-3-3
		s1.3-3,3-3s3,1.3,3,3S447.7,676,446,676z M446,667c-1.7,0-3-1.3-3-3s1.3-3,3-3s3,1.3,3,3S447.7,667,446,667z M446,658
		c-1.7,0-3-1.3-3-3s1.3-3,3-3s3,1.3,3,3S447.7,658,446,658z M476.8,670.2l-13.9,7.7c-0.9,0.5-2-0.1-2-1.1v-14.6c0-1,1-1.6,1.9-1.2
		l13.9,6.9C477.7,668.4,477.7,669.7,476.8,670.2z M491,685c-1.7,0-3-1.3-3-3s1.3-3,3-3s3,1.3,3,3S492.7,685,491,685z M491,676
		c-1.7,0-3-1.3-3-3s1.3-3,3-3s3,1.3,3,3S492.7,676,491,676z M491,667c-1.7,0-3-1.3-3-3s1.3-3,3-3s3,1.3,3,3S492.7,667,491,667z
		 M491,658c-1.7,0-3-1.3-3-3s1.3-3,3-3s3,1.3,3,3S492.7,658,491,658z"/>
	<path class="st3" d="M525,704H225c-20.4,0-37-16.6-37-37v0c0-20.4,16.6-37,37-37h300c20.4,0,37,16.6,37,37v0
		C562,687.4,545.4,704,525,704z"/>
</g>
<g>
</g>
<g>
</g>
<g>
</g>
<g>
</g>
<g>
</g>
<g>
</g>
<g>
</g>
<g>
</g>
<g>
</g>
<g>
</g>
<g>
</g>
</svg>
