<?xml version="1.0" encoding="utf-8"?>
<!-- Generator: Adobe Illustrator 22.0.0, SVG Export Plug-In . SVG Version: 6.00 Build 0)  -->
<svg version="1.1" id="Layer_1" xmlns="http://www.w3.org/2000/svg" xmlns:xlink="http://www.w3.org/1999/xlink" x="0px" y="0px"
	 viewBox="0 0 750 1334" style="enable-background:new 0 0 750 1334;" xml:space="preserve">
<style type="text/css">
	.st0{fill:#FFFFFF;}
</style>
<g>
	<path class="st0" d="M256.9,649c5.5,0,7.5,2.5,7.5,7.2v1.9c0,3.7-1.1,6-4.8,6.7c4,0.7,5.5,3.4,5.5,7.3v3c0,4.9-2.4,7.9-8,7.9h-7.9
		v-34H256.9z M255.7,664.1c4.3,0,6.3-1.1,6.3-5.4v-2.2c0-3.5-1.2-5.4-5.1-5.4h-5.2v13H255.7z M257.1,681c4,0,5.6-2.1,5.6-5.9v-3.1
		c0-4.4-2.2-6-6.5-6h-4.6V681H257.1z"/>
	<path class="st0" d="M271,657.4c0-5,2.5-8.6,8-8.6c5.7,0,8.1,3.6,8.1,8.6v17.4c0,5-2.5,8.6-8.1,8.6c-5.6,0-8-3.6-8-8.6V657.4z
		 M273.4,674.9c0,3.7,1.6,6.4,5.6,6.4c4.1,0,5.7-2.7,5.7-6.4v-17.7c0-3.7-1.6-6.4-5.7-6.4c-4,0-5.6,2.7-5.6,6.4V674.9z"/>
	<path class="st0" d="M295.5,683h-2.2v-34h3.1l11,28.7V649h2.2v34H307l-11.5-30.3V683z"/>
	<path class="st0" d="M318.3,674.8c0,3.6,1.5,6.5,5.5,6.5s5.5-2.8,5.5-6.5V649h2.3v25.7c0,4.9-2.2,8.6-7.8,8.6s-7.9-3.7-7.9-8.6V649
		h2.4V674.8z"/>
	<path class="st0" d="M353.4,657.3v0.7H351v-0.9c0-3.6-1.5-6.3-5.5-6.3c-4,0-5.5,2.7-5.5,6.3c0,8.3,13.3,8.4,13.3,17.8
		c0,4.9-2.3,8.5-7.9,8.5s-7.9-3.6-7.9-8.5v-1.7h2.3v1.9c0,3.6,1.5,6.3,5.6,6.3s5.6-2.6,5.6-6.3c0-8.2-13.3-8.3-13.3-17.8
		c0-5.1,2.4-8.4,7.8-8.5C351.1,648.8,353.4,652.3,353.4,657.3z"/>
	<path class="st0" d="M369.7,683v-34h2.4v32h11.5v2H369.7z"/>
	<path class="st0" d="M401.9,664.8v2h-10V681h12.1v2h-14.5v-34h14.5v2h-12.1v13.7H401.9z"/>
	<path class="st0" d="M412,649l7.5,31.4l7.5-31.4h2.3l-8,34h-3.6l-8.1-34H412z"/>
	<path class="st0" d="M447.4,664.8v2h-10V681h12.1v2H435v-34h14.5v2h-12.1v13.7H447.4z"/>
	<path class="st0" d="M455.5,683v-34h2.4v32h11.5v2H455.5z"/>
</g>
<g>
</g>
<g>
</g>
<g>
</g>
<g>
</g>
<g>
</g>
<g>
</g>
<g>
</g>
<g>
</g>
<g>
</g>
<g>
</g>
<g>
</g>
</svg>
