<?xml version="1.0" encoding="utf-8"?>
<!-- Generator: Adobe Illustrator 22.0.0, SVG Export Plug-In . SVG Version: 6.00 Build 0)  -->
<svg version="1.1" id="Layer_1" xmlns="http://www.w3.org/2000/svg" xmlns:xlink="http://www.w3.org/1999/xlink" x="0px" y="0px"
	 viewBox="0 0 750 1334" style="enable-background:new 0 0 750 1334;" xml:space="preserve">
<style type="text/css">
	.st0{fill:#FFFFFF;}
</style>
<g>
	<path class="st0" d="M282.4,643.3c3.7,0,7.3,2.4,7,7.9c0,0.3,0,0.5,0,0.8c-0.1,1.2-0.8,1.8-1.6,1.8c-0.7,0-1.3-0.6-1.1-1.8
		c0.1-0.8,0.3-1.6,0.3-2.4c0-2.4-1.8-4.3-4.8-4.3c-3,0-5.5,2-5.5,6.1c0,10.4,13.3,10,13.3,21c0,5.7-3.5,9.4-8.7,9.4
		c-5.1,0-8.2-4.2-8.2-8.6c0-0.4,0-0.8,0.1-1.2c0.1-1,0.8-1.5,1.4-1.5c1.1,0,1.3,0.9,1.3,2.5c0,4.3,2.3,6.7,5.7,6.7
		c3.7,0,6-2.6,6-7.1c0-9.9-13.3-10.2-13.3-21C274.2,646.6,277.7,643.3,282.4,643.3z"/>
	<path class="st0" d="M300.3,643.7c0.6,0.1,1.8,0.2,3.2,0.2c1.5,0,3.2,0,4.7-0.2c1.2-0.1,1.9,0.6,1.9,1.3c0,0.6-0.6,1.2-1.9,1.1
		c-1.5-0.1-4.9-0.3-7.4-0.1l0.4-0.8c0,6.4-0.1,12.5-0.1,19.8l-0.4-0.7c1,0,4.4-0.1,5.7-0.2c1.2-0.1,1.7,0.3,1.7,1
		c0,0.6-0.4,1.1-1.6,1.2c-0.6,0.1-1.4,0-1.9,0c-0.9,0-3.1,0-4.1,0l0.6-0.8c0,5.9,0.1,12.8,0.1,14.2l-0.7-0.5c2.7,0,8.6-0.2,10.7-0.3
		c1.2-0.1,1.9,0.6,1.9,1.3c0,0.6-0.6,1.2-1.9,1.1c-1,0-2.5-0.1-4-0.1c-2.7,0-5.7,0.1-7.1,0.3c-0.8,0.1-1.7-0.3-1.7-1.4
		c0.3-4.7,0.4-12.6,0.4-20.2c0-7,0.1-10.8-0.2-14.7C298.5,643.5,299.9,643.6,300.3,643.7z"/>
	<path class="st0" d="M334.4,644.9c0,0.5-0.5,1-1.5,1c-3.4-0.1-4.9-0.2-7.2-0.2l0.7-0.7c-0.1,3.3-0.2,9.9-0.2,16
		c0,7.6,0.1,12.9,0.2,18.5c0,1-0.6,1.5-1.3,1.5c-0.6,0-1.4-0.5-1.4-1.4c0-1,0-2,0-3c0-7.7,0.2-14.4,0.2-22c0-3.6,0-7.4-0.2-9.6
		l0.5,0.8c-2.1,0-3.9,0.1-6.9,0.3c-1.1,0-1.6-0.5-1.6-1.1c0-0.6,0.5-1.3,1.6-1.3c3.9,0.2,3.6,0.2,6.4,0.2c2.8,0,3.5,0,9-0.2
		C333.8,643.7,334.4,644.4,334.4,644.9z"/>
	<path class="st0" d="M355,644.9c0,0.5-0.5,1-1.5,1c-3.4-0.1-4.9-0.2-7.2-0.2l0.7-0.7c-0.1,3.3-0.2,9.9-0.2,16
		c0,7.6,0.1,12.9,0.2,18.5c0,1-0.6,1.5-1.3,1.5c-0.6,0-1.4-0.5-1.4-1.4c0-1,0-2,0-3c0-7.7,0.2-14.4,0.2-22c0-3.6,0-7.4-0.2-9.6
		l0.5,0.8c-2.1,0-3.9,0.1-6.9,0.3c-1.1,0-1.6-0.5-1.6-1.1c0-0.6,0.5-1.3,1.6-1.3c3.9,0.2,3.6,0.2,6.4,0.2c2.8,0,3.5,0,9-0.2
		C354.5,643.7,355,644.4,355,644.9z"/>
	<path class="st0" d="M363.1,681.2c-0.7,0-1.3-0.5-1.3-1.4c0.2-4.4,0.3-11.5,0.3-18.5c0-7.5,0-12-0.3-16.2c-0.1-1,0.4-1.5,1.2-1.5
		s1.6,0.5,1.5,1.5c-0.1,2.6-0.2,4-0.2,8.9c0,8.6,0.1,19.1,0.3,25.6C364.6,680.6,363.8,681.2,363.1,681.2z"/>
	<path class="st0" d="M376.4,644.7h1c0,15.5,0.3,30.7,0.3,35.1c0,0.9-0.6,1.4-1.3,1.4c-0.7,0-1.4-0.5-1.4-1.5
		c0.2-5,0.3-11.8,0.3-20.6c0-5.3,0-10.3-0.1-13.7c0-1.1,0.9-1.8,1.8-1.8c0.7,0,1.4,0.3,1.7,1.2c2.5,6.9,13.2,31.9,14.3,34.8h-0.7
		c-0.4-7.4-0.5-21.6-1-34.6c0-1,0.7-1.5,1.4-1.5c0.7,0,1.4,0.5,1.4,1.5c0,5.1-0.1,10.7-0.1,18.7c0,6.2,0,12,0.2,15.7
		c0,1-0.9,1.6-1.7,1.6c-0.7,0-1.3-0.4-1.6-1.1C386.3,667.5,381.3,658.5,376.4,644.7z"/>
	<path class="st0" d="M417.9,672.4c0.3-1.5,0.7-5.1,0.5-6l0.6,0.7c-3.6-0.2-5.2,0.2-6.3,0.2c-1,0-1.5-0.6-1.5-1.3
		c0-0.6,0.5-1.2,1.5-1.1c1,0.1,2.1,0.1,3,0.1c1.9,0,2.8-0.3,3.7-0.3c0.7,0,1.3,0.3,1.3,1.4c0,9.6-3.3,15.5-8.7,15.5
		c-6.5,0-9.6-6.1-9.6-20c0-11.3,3.2-17.8,10.1-18.1c5-0.3,8,2.7,8,10.7c0,1-0.4,1.5-1.1,1.5c-0.6,0-1.3-0.4-1.3-1.3
		c0-6.9-2.2-8.9-5.7-8.7c-5.5,0.4-7.5,7.3-7.5,16.3c0,14.6,3.4,17.3,7.4,17.3C415.1,679.4,417.1,677,417.9,672.4z"/>
	<path class="st0" d="M436.8,643.3c3.7,0,7.3,2.4,7,7.9c0,0.3,0,0.5,0,0.8c-0.1,1.2-0.8,1.8-1.6,1.8c-0.7,0-1.3-0.6-1.1-1.8
		c0.1-0.8,0.3-1.6,0.3-2.4c0-2.4-1.8-4.3-4.8-4.3c-3,0-5.5,2-5.5,6.1c0,10.4,13.3,10,13.3,21c0,5.7-3.5,9.4-8.7,9.4
		c-5.1,0-8.2-4.2-8.2-8.6c0-0.4,0-0.8,0.1-1.2c0.1-1,0.8-1.5,1.4-1.5c1.1,0,1.3,0.9,1.3,2.5c0,4.3,2.3,6.7,5.7,6.7
		c3.7,0,6-2.6,6-7.1c0-9.9-13.3-10.2-13.3-21C428.5,646.6,432.1,643.3,436.8,643.3z"/>
</g>
<g>
</g>
<g>
</g>
<g>
</g>
<g>
</g>
<g>
</g>
<g>
</g>
<g>
</g>
<g>
</g>
<g>
</g>
<g>
</g>
<g>
</g>
</svg>
