<?xml version="1.0" encoding="utf-8"?>
<!-- Generator: Adobe Illustrator 22.0.0, SVG Export Plug-In . SVG Version: 6.00 Build 0)  -->
<svg version="1.1" id="Layer_1" xmlns="http://www.w3.org/2000/svg" xmlns:xlink="http://www.w3.org/1999/xlink" x="0px" y="0px"
	 viewBox="0 0 750 1334" style="enable-background:new 0 0 750 1334;" xml:space="preserve">
<style type="text/css">
	.st0{fill:none;stroke:#FFFFFF;stroke-width:7;stroke-miterlimit:10;}
	.st1{fill:#FFFFFF;}
	.st2{fill:#AB91D1;}
</style>
<g>
	<path class="st0" d="M315.2,714.1h120.5c26.2,0,47.5-21.3,47.5-47.5V666c0-26.2-21.3-47.5-47.5-47.5H315.2
		c-26.2,0-47.5,21.3-47.5,47.5v0.6C267.7,692.8,289,714.1,315.2,714.1z"/>
	<path class="st1" d="M267.7,668v-3.4c0-25.5,22.3-46.1,49.8-46.1h14.2c20.9,7.2,35.8,25.9,35.8,47.8s-14.9,40.6-35.8,47.8h-14.2
		C290,714.1,267.7,693.5,267.7,668z"/>
	<g>
		<ellipse class="st2" cx="446.8" cy="643.3" rx="2.1" ry="2"/>
		<ellipse class="st2" cx="441.1" cy="639.3" rx="2.1" ry="2"/>
		<ellipse class="st2" cx="435.4" cy="638" rx="2.1" ry="2"/>
		<ellipse class="st2" cx="429.6" cy="640.6" rx="2.1" ry="2"/>
		<path class="st2" d="M444.7,643.3v8.6c0,0.4-0.3,0.7-0.7,0.7c-0.4,0-0.7-0.3-0.7-0.7v-12.6h-4.3v11.3c0,0.4-0.3,0.7-0.7,0.7
			c-0.4,0-0.7-0.3-0.7-0.7V638h-4.3v12.6c0,0.4-0.3,0.7-0.7,0.7c-0.4,0-0.7-0.3-0.7-0.7v-9.9h-4.3v16.6l-2.9-3.7
			c-0.9-1.2-2.5-1.6-3.8-0.9c-1.2,0.7-1.5,2.3-0.7,3.5c0,0,4.7,6.6,6.7,9.4c2,2.8,5.2,5,11.3,5c10,0,10.9-7.1,10.9-9.3
			c0-2.1,0-17.9,0-17.9H444.7z"/>
	</g>
	<g>
		<path class="st2" d="M423.1,691.6h-2.7l-1.6-3.1c-0.1-0.2-0.2-0.4-0.4-0.6c-0.1-0.2-0.2-0.3-0.3-0.5c-0.1-0.1-0.2-0.2-0.4-0.3
			c-0.1-0.1-0.3-0.1-0.4-0.1h-0.6v4.6h-2.4v-12h3.8c2.5,0,3.8,1.1,3.8,3.3c0,0.4-0.1,0.8-0.2,1.2c-0.1,0.4-0.3,0.7-0.5,1
			c-0.2,0.3-0.5,0.5-0.7,0.7c-0.3,0.2-0.6,0.4-1,0.5v0c0.2,0.1,0.3,0.1,0.5,0.3s0.3,0.3,0.4,0.4c0.1,0.2,0.3,0.3,0.4,0.5
			c0.1,0.2,0.2,0.4,0.3,0.6L423.1,691.6z M416.7,681.7v3.3h1c0.5,0,0.9-0.2,1.2-0.5c0.3-0.3,0.5-0.8,0.5-1.3c0-1-0.5-1.6-1.6-1.6
			H416.7z"/>
		<path class="st2" d="M426.6,679.6v2.1h-0.9v7.8h0.9v2.1h-4.1v-2.1h0.9v-7.8h-0.9v-2.1H426.6z"/>
		<path class="st2" d="M436,690.8c-1,0.7-2.3,1-3.8,1c-1.7,0-3-0.5-4-1.6c-1-1.1-1.5-2.5-1.5-4.4c0-1.9,0.5-3.4,1.6-4.6
			c1.1-1.2,2.5-1.8,4.2-1.8c1.1,0,2.1,0.2,2.9,0.5v2.5c-0.8-0.5-1.8-0.8-3-0.8c-1,0-1.8,0.4-2.4,1.1c-0.6,0.7-0.9,1.7-0.9,2.9
			c0,1.2,0.3,2.2,0.8,2.9s1.3,1,2.2,1c0.6,0,1-0.1,1.3-0.3V687h-2.1v-2.2h4.5V690.8z"/>
		<path class="st2" d="M446.4,691.6h-2.4v-4.9h-4.4v4.9h-2.4v-12h2.4v4.8h4.4v-4.8h2.4V691.6z"/>
		<path class="st2" d="M455.5,681.8h-3v9.8h-2.4v-9.8h-3v-2.2h8.4V681.8z"/>
	</g>
</g>
<g>
</g>
<g>
</g>
<g>
</g>
<g>
</g>
<g>
</g>
<g>
</g>
<g>
</g>
<g>
</g>
<g>
</g>
<g>
</g>
<g>
</g>
</svg>
