<?xml version="1.0" encoding="utf-8"?>
<!-- Generator: Adobe Illustrator 22.0.0, SVG Export Plug-In . SVG Version: 6.00 Build 0)  -->
<svg version="1.1" id="Layer_1" xmlns="http://www.w3.org/2000/svg" xmlns:xlink="http://www.w3.org/1999/xlink" x="0px" y="0px"
	 viewBox="0 0 750 1334" style="enable-background:new 0 0 750 1334;" xml:space="preserve">
<style type="text/css">
	.st0{fill:#AB91D1;}
</style>
<g>
	<g>
		<path class="st0" d="M374.7,728.3c-34,0-61.6-27.7-61.6-61.8c0-34.1,27.6-61.8,61.6-61.8s61.6,27.7,61.6,61.8
			C436.3,700.6,408.7,728.3,374.7,728.3z M374.7,609.8c-31.2,0-56.6,25.5-56.6,56.8c0,31.3,25.4,56.8,56.6,56.8s56.6-25.5,56.6-56.8
			C431.3,635.2,405.9,609.8,374.7,609.8z"/>
	</g>
	<g>
		<rect x="346.7" y="652.8" class="st0" width="3" height="27.6"/>
	</g>
	<g>
		<rect x="352.1" y="646.3" class="st0" width="3" height="40.4"/>
	</g>
	<g>
		<rect x="399.8" y="652.8" class="st0" width="3" height="27.6"/>
	</g>
	<g>
		<rect x="394.3" y="646.3" class="st0" width="3" height="40.4"/>
	</g>
	<path class="st0" d="M384.6,631.6h-20.2c-4.3,0-7.8,3.2-7.8,7.2v55.5c0,4,3.5,7.2,7.8,7.2h20.2c4.3,0,7.8-3.2,7.8-7.2v-55.5
		C392.3,634.8,388.9,631.6,384.6,631.6z M388.4,689.9c0,1-0.9,1.9-2,1.9h-23.7c-1.1,0-2-0.8-2-1.9v-46.8c0-1,0.9-1.9,2-1.9h23.7
		c1.1,0,2,0.8,2,1.9V689.9z"/>
</g>
<g>
</g>
<g>
</g>
<g>
</g>
<g>
</g>
<g>
</g>
<g>
</g>
<g>
</g>
<g>
</g>
<g>
</g>
<g>
</g>
<g>
</g>
</svg>
