<?xml version="1.0" encoding="utf-8"?>
<!-- Generator: Adobe Illustrator 22.0.0, SVG Export Plug-In . SVG Version: 6.00 Build 0)  -->
<svg version="1.1" id="Layer_1" xmlns="http://www.w3.org/2000/svg" xmlns:xlink="http://www.w3.org/1999/xlink" x="0px" y="0px"
	 viewBox="0 0 750 1334" style="enable-background:new 0 0 750 1334;" xml:space="preserve">
<style type="text/css">
	.st0{fill:#D3C3E7;}
</style>
<g>
	<g>
		<path class="st0" d="M317.6,679.3h-1.9l-6-23.1v23.1h-1.7v-26.1h2.7l5.9,23.1l5.9-23.1h2.7v26.1h-1.8v-23.2L317.6,679.3z"/>
		<path class="st0" d="M331.3,653.2v26.1h-1.9v-26.1H331.3z"/>
		<path class="st0" d="M347.3,659.5v0.6h-1.8v-0.7c0-2.8-1.1-4.9-4.2-4.9c-3.1,0-4.2,2.1-4.2,4.8c0,6.3,10.2,6.5,10.2,13.7
			c0,3.8-1.8,6.5-6.1,6.5s-6.1-2.8-6.1-6.5v-1.3h1.8v1.5c0,2.8,1.2,4.8,4.3,4.8s4.3-2,4.3-4.8c0-6.3-10.2-6.4-10.2-13.7
			c0-3.9,1.9-6.5,6-6.5C345.6,653,347.3,655.7,347.3,659.5z"/>
		<path class="st0" d="M363.2,659.5v0.6h-1.8v-0.7c0-2.8-1.1-4.9-4.2-4.9c-3.1,0-4.2,2.1-4.2,4.8c0,6.3,10.2,6.5,10.2,13.7
			c0,3.8-1.8,6.5-6.1,6.5s-6.1-2.8-6.1-6.5v-1.3h1.8v1.5c0,2.8,1.2,4.8,4.3,4.8s4.3-2,4.3-4.8c0-6.3-10.2-6.4-10.2-13.7
			c0-3.9,1.9-6.5,6-6.5C361.4,653,363.2,655.7,363.2,659.5z"/>
		<path class="st0" d="M374.2,659.6c0-3.8,1.9-6.6,6.2-6.6c4.4,0,6.3,2.8,6.3,6.6v13.4c0,3.8-1.9,6.6-6.3,6.6
			c-4.3,0-6.2-2.8-6.2-6.6V659.6z M376,673c0,2.8,1.2,4.9,4.3,4.9c3.1,0,4.4-2.1,4.4-4.9v-13.6c0-2.8-1.3-4.9-4.4-4.9
			c-3.1,0-4.3,2.1-4.3,4.9V673z"/>
		<path class="st0" d="M392.4,673c0,2.8,1.1,5,4.2,5s4.2-2.2,4.2-5v-19.8h1.7v19.8c0,3.7-1.7,6.6-6,6.6c-4.3,0-6.1-2.9-6.1-6.6
			v-19.8h1.9V673z"/>
		<path class="st0" d="M411.6,679.3v-24.6h-5.8v-1.6h13.4v1.6h-5.7v24.6H411.6z"/>
	</g>
</g>
<g>
</g>
<g>
</g>
<g>
</g>
<g>
</g>
<g>
</g>
<g>
</g>
<g>
</g>
<g>
</g>
<g>
</g>
<g>
</g>
<g>
</g>
</svg>
