<?xml version="1.0" encoding="utf-8"?>
<!-- Generator: Adobe Illustrator 22.0.0, SVG Export Plug-In . SVG Version: 6.00 Build 0)  -->
<svg version="1.1" id="Layer_1" xmlns="http://www.w3.org/2000/svg" xmlns:xlink="http://www.w3.org/1999/xlink" x="0px" y="0px"
	 viewBox="0 0 750 1334" style="enable-background:new 0 0 750 1334;" xml:space="preserve">
<style type="text/css">
	.st0{fill:#FFFFFF;}
	.st1{fill:none;stroke:#FFFFFF;stroke-width:2;stroke-miterlimit:10;}
</style>
<path class="st0" d="M528,678H221c-6.1,0-11-4.9-11-11l0,0c0-6.1,4.9-11,11-11h307c6.1,0,11,4.9,11,11l0,0
	C539,673.1,534.1,678,528,678z"/>
<path class="st1" d="M528,678H221c-6.1,0-11-4.9-11-11l0,0c0-6.1,4.9-11,11-11h307c6.1,0,11,4.9,11,11l0,0
	C539,673.1,534.1,678,528,678z"/>
<g>
</g>
<g>
</g>
<g>
</g>
<g>
</g>
<g>
</g>
<g>
</g>
<g>
</g>
<g>
</g>
<g>
</g>
<g>
</g>
<g>
</g>
</svg>
