<?xml version="1.0" encoding="utf-8"?>
<!-- Generator: Adobe Illustrator 22.0.0, SVG Export Plug-In . SVG Version: 6.00 Build 0)  -->
<svg version="1.1" id="Layer_1" xmlns="http://www.w3.org/2000/svg" xmlns:xlink="http://www.w3.org/1999/xlink" x="0px" y="0px"
	 viewBox="0 0 750 1334" style="enable-background:new 0 0 750 1334;" xml:space="preserve">
<style type="text/css">
	.st0{fill:#CAB1EB;}
</style>
<g>
	<g>
		<path class="st0" d="M335.6,659.5v2.3h-1.8v-2.4c0-2.9-1.2-5.1-4.5-5.1s-4.5,2.2-4.5,5.1v14.2c0,2.9,1.2,5.1,4.5,5.1
			s4.5-2.2,4.5-5.1v-3.2h1.8v3.1c0,3.9-1.8,6.9-6.3,6.9s-6.3-3-6.3-6.9v-13.9c0-3.9,1.8-6.9,6.3-6.9S335.6,655.5,335.6,659.5z"/>
		<path class="st0" d="M340.4,680v-27.2h1.9v25.6h9.2v1.6H340.4z"/>
		<path class="st0" d="M356.1,659.5c0-4,2-6.9,6.4-6.9c4.5,0,6.5,2.9,6.5,6.9v13.9c0,4-2,6.9-6.5,6.9c-4.5,0-6.4-2.9-6.4-6.9V659.5z
			 M358,673.5c0,3,1.3,5.1,4.5,5.1c3.3,0,4.6-2.2,4.6-5.1v-14.2c0-3-1.3-5.1-4.6-5.1c-3.2,0-4.5,2.2-4.5,5.1V673.5z"/>
		<path class="st0" d="M386.3,659.4v0.6h-1.8v-0.7c0-2.9-1.2-5.1-4.4-5.1s-4.4,2.1-4.4,5c0,6.6,10.6,6.7,10.6,14.2
			c0,3.9-1.8,6.8-6.3,6.8s-6.3-2.9-6.3-6.8v-1.4h1.8v1.5c0,2.9,1.2,5,4.5,5s4.5-2.1,4.5-5c0-6.5-10.6-6.6-10.6-14.2
			c0-4.1,1.9-6.7,6.3-6.8C384.5,652.6,386.3,655.5,386.3,659.4z"/>
		<path class="st0" d="M401,665.4v1.6h-8v11.4h9.7v1.6h-11.6v-27.2h11.6v1.6H393v11H401z"/>
	</g>
</g>
<g>
</g>
<g>
</g>
<g>
</g>
<g>
</g>
<g>
</g>
<g>
</g>
<g>
</g>
<g>
</g>
<g>
</g>
<g>
</g>
<g>
</g>
</svg>
