<?xml version="1.0" encoding="utf-8"?>
<!-- Generator: Adobe Illustrator 22.0.0, SVG Export Plug-In . SVG Version: 6.00 Build 0)  -->
<svg version="1.1" id="Layer_1" xmlns="http://www.w3.org/2000/svg" xmlns:xlink="http://www.w3.org/1999/xlink" x="0px" y="0px"
	 viewBox="0 0 750 1334" style="enable-background:new 0 0 750 1334;" xml:space="preserve">
<style type="text/css">
	.st0{fill:#FFFFFF;}
	.st1{fill:#DBB41D;}
</style>
<g>
	<path class="st0" d="M417.8,716h-85.7c-7,0-12.7-5.7-12.7-12.7v-97.7c0-7,5.7-12.7,12.7-12.7h85.7c7,0,12.7,5.7,12.7,12.7v97.7
		C430.5,710.3,424.8,716,417.8,716z"/>
	<rect x="255" y="694" class="st1" width="240" height="47"/>
	<g>
		<path class="st0" d="M322.7,729.3v-18.5h-4.1v-2.7h11.4v2.7H326v18.5H322.7z"/>
		<path class="st0" d="M338.6,729.5c-1.1,0-2.1-0.2-3-0.5s-1.5-0.8-2-1.4c-0.5-0.6-0.8-1.4-1.1-2.2c-0.2-0.8-0.3-1.8-0.3-2.9v-7.7
			c0-1.1,0.1-2.1,0.3-2.9c0.2-0.8,0.6-1.5,1.1-2.2c0.5-0.6,1.1-1.1,2-1.4s1.8-0.5,3-0.5c2.2,0,3.8,0.6,4.8,1.8
			c1,1.2,1.5,2.9,1.5,5.1v7.7c0,1.1-0.1,2.1-0.3,2.9c-0.2,0.8-0.6,1.6-1.1,2.2s-1.1,1.1-2,1.4S339.7,729.5,338.6,729.5z
			 M336.2,726.1c0.4,0.6,1.2,1,2.4,1s1.9-0.3,2.4-1c0.4-0.6,0.7-1.6,0.7-2.8V714c0-1.2-0.2-2.1-0.7-2.8c-0.4-0.6-1.2-0.9-2.4-0.9
			c-1.2,0-2,0.3-2.4,0.9s-0.7,1.5-0.7,2.8v9.2C335.6,724.5,335.8,725.4,336.2,726.1z"/>
		<path class="st0" d="M349,729.3v-21.2h5.7c3.8,0,5.7,2,5.7,6.1c0,1.7-0.5,3-1.5,3.9c-1,0.9-2.4,1.4-4.2,1.4h-2.5v9.8H349z
			 M352.2,717.2h0.8c0.7,0,1.3,0,1.8-0.1c0.5-0.1,0.9-0.2,1.3-0.4c0.4-0.2,0.6-0.5,0.8-0.9c0.2-0.4,0.2-0.9,0.2-1.5
			c0-0.8-0.1-1.4-0.2-1.8s-0.3-0.9-0.7-1.2c-0.3-0.3-0.7-0.5-1.2-0.6c-0.5-0.1-1.2-0.2-2-0.2h-0.8V717.2z"/>
		<path class="st0" d="M370,729.3v-21.2h5.7c3.8,0,5.7,2,5.7,6.1c0,1.7-0.5,3-1.5,3.9s-2.4,1.4-4.2,1.4h-2.5v9.8H370z M373.3,717.2
			h0.8c0.7,0,1.3,0,1.8-0.1c0.5-0.1,0.9-0.2,1.3-0.4c0.4-0.2,0.6-0.5,0.8-0.9c0.2-0.4,0.2-0.9,0.2-1.5c0-0.8-0.1-1.4-0.2-1.8
			s-0.3-0.9-0.7-1.2c-0.3-0.3-0.7-0.5-1.2-0.6c-0.5-0.1-1.2-0.2-2-0.2h-0.8V717.2z"/>
		<path class="st0" d="M384.5,729.3v-21.2h4.1c2.4,0,4.3,0.4,5.5,1.3c1.2,0.9,1.9,2.3,1.9,4.4c0,1.3-0.2,2.3-0.7,3.2
			c-0.5,0.9-1.2,1.4-2.1,1.7l3.7,10.6h-3.2l-3.3-9.8h-2.5v9.8H384.5z M387.8,717.2h0.8c1.4,0,2.4-0.3,3.1-0.8c0.7-0.5,1-1.4,1-2.6
			c0-1.2-0.3-2.1-1-2.6c-0.7-0.5-1.7-0.8-3.1-0.8h-0.8V717.2z"/>
		<path class="st0" d="M400,729.3v-21.2h3.3v21.2H400z"/>
		<path class="st0" d="M407.1,729.3V727l7.4-16.6h-6.5v-2.3h9.8v2.3l-7.4,16.6h7.4v2.3H407.1z"/>
		<path class="st0" d="M421.3,729.3v-21.2h9v2.3h-5.7v6.8h4.1v2.3h-4.1v7.6h5.7v2.3H421.3z"/>
	</g>
</g>
<g>
</g>
<g>
</g>
<g>
</g>
<g>
</g>
<g>
</g>
<g>
</g>
<g>
</g>
<g>
</g>
<g>
</g>
<g>
</g>
<g>
</g>
</svg>
