<?xml version="1.0" encoding="utf-8"?>
<!-- Generator: Adobe Illustrator 22.0.0, SVG Export Plug-In . SVG Version: 6.00 Build 0)  -->
<svg version="1.1" id="Layer_1" xmlns="http://www.w3.org/2000/svg" xmlns:xlink="http://www.w3.org/1999/xlink" x="0px" y="0px"
	 viewBox="0 0 750 1334" style="enable-background:new 0 0 750 1334;" xml:space="preserve">
<style type="text/css">
	.st0{fill:#FFFFFF;}
	.st1{fill:url(#SVGID_1_);}
	.st2{fill:url(#SVGID_2_);}
	.st3{fill:url(#SVGID_3_);}
	.st4{fill:url(#SVGID_4_);}
	.st5{fill:url(#SVGID_5_);}
	.st6{opacity:0.5;}
	.st7{fill:#A47B20;}
	.st8{fill:url(#SVGID_6_);}
	.st9{opacity:0.4;fill:url(#SVGID_7_);}
	.st10{fill:url(#SVGID_8_);}
	.st11{fill:url(#SVGID_9_);}
	.st12{opacity:0.75;fill:url(#SVGID_10_);}
	.st13{fill:url(#SVGID_11_);}
	.st14{opacity:0.6;}
	.st15{fill:#CD8116;}
</style>
<g>
	<path class="st0" d="M411.9,737h-75.8c-6.1,0-11.1-5-11.1-11.1v-92.8c0-6.1,5-11.1,11.1-11.1h75.8c6.1,0,11.1,5,11.1,11.1v92.8
		C423,732,418,737,411.9,737z"/>
	<g>
		<g>
			
				<image style="overflow:visible;opacity:0.4;" width="67" height="67" xlink:href="E1C4092F.png"  transform="matrix(1 0 0 1 341 635)">
			</image>
			<g>
				<g>
					<linearGradient id="SVGID_1_" gradientUnits="userSpaceOnUse" x1="374.7372" y1="691.3184" x2="374.7372" y2="636.949">
						<stop  offset="0" style="stop-color:#C99B14"/>
						<stop  offset="0.2137" style="stop-color:#B78817"/>
						<stop  offset="0.2223" style="stop-color:#B98B1B"/>
						<stop  offset="0.3396" style="stop-color:#D6B74E"/>
						<stop  offset="0.4418" style="stop-color:#EBD774"/>
						<stop  offset="0.524" style="stop-color:#F8EA8B"/>
						<stop  offset="0.5758" style="stop-color:#FDF193"/>
						<stop  offset="0.5784" style="stop-color:#F9EB8A"/>
						<stop  offset="0.589" style="stop-color:#ECD66B"/>
						<stop  offset="0.6011" style="stop-color:#E1C34F"/>
						<stop  offset="0.6146" style="stop-color:#D8B439"/>
						<stop  offset="0.6305" style="stop-color:#D1A928"/>
						<stop  offset="0.6501" style="stop-color:#CDA11D"/>
						<stop  offset="0.6776" style="stop-color:#CA9C16"/>
						<stop  offset="0.754" style="stop-color:#C99B14"/>
						<stop  offset="0.7571" style="stop-color:#C79814"/>
						<stop  offset="0.7907" style="stop-color:#AF7E15"/>
						<stop  offset="0.8275" style="stop-color:#9E6A16"/>
						<stop  offset="0.8692" style="stop-color:#915B17"/>
						<stop  offset="0.9192" style="stop-color:#895317"/>
						<stop  offset="1" style="stop-color:#875017"/>
					</linearGradient>
					<circle class="st1" cx="374.7" cy="666.4" r="27.2"/>
					<linearGradient id="SVGID_2_" gradientUnits="userSpaceOnUse" x1="374.7372" y1="690.4066" x2="374.7372" y2="638.0264">
						<stop  offset="0" style="stop-color:#875017"/>
						<stop  offset="8.081509e-02" style="stop-color:#895317"/>
						<stop  offset="0.1308" style="stop-color:#915B17"/>
						<stop  offset="0.1725" style="stop-color:#9E6A16"/>
						<stop  offset="0.2093" style="stop-color:#AF7E15"/>
						<stop  offset="0.2429" style="stop-color:#C79814"/>
						<stop  offset="0.246" style="stop-color:#C99B14"/>
						<stop  offset="0.3224" style="stop-color:#CA9C16"/>
						<stop  offset="0.3499" style="stop-color:#CDA11D"/>
						<stop  offset="0.3695" style="stop-color:#D1A928"/>
						<stop  offset="0.3854" style="stop-color:#D8B439"/>
						<stop  offset="0.3989" style="stop-color:#E1C34F"/>
						<stop  offset="0.411" style="stop-color:#ECD66B"/>
						<stop  offset="0.4216" style="stop-color:#F9EB8A"/>
						<stop  offset="0.4242" style="stop-color:#FDF193"/>
						<stop  offset="0.476" style="stop-color:#F8EA8B"/>
						<stop  offset="0.5582" style="stop-color:#EBD774"/>
						<stop  offset="0.6604" style="stop-color:#D6B74E"/>
						<stop  offset="0.7777" style="stop-color:#B98B1B"/>
						<stop  offset="0.7863" style="stop-color:#B78817"/>
						<stop  offset="1" style="stop-color:#C99B14"/>
					</linearGradient>
					<circle class="st2" cx="374.7" cy="666.4" r="26.2"/>
					<g>
						<linearGradient id="SVGID_3_" gradientUnits="userSpaceOnUse" x1="374.7372" y1="686.4158" x2="374.7372" y2="646.5243">
							<stop  offset="0" style="stop-color:#C99B14"/>
							<stop  offset="3.745796e-02" style="stop-color:#CFA523"/>
							<stop  offset="0.11" style="stop-color:#E0C14C"/>
							<stop  offset="0.2095" style="stop-color:#FAEC8C"/>
							<stop  offset="0.2195" style="stop-color:#FDF193"/>
							<stop  offset="0.2511" style="stop-color:#FAEC8B"/>
							<stop  offset="0.2989" style="stop-color:#F1DE77"/>
							<stop  offset="0.357" style="stop-color:#E3C754"/>
							<stop  offset="0.4227" style="stop-color:#D0A725"/>
							<stop  offset="0.4445" style="stop-color:#C99B14"/>
							<stop  offset="0.61" style="stop-color:#EDD66C"/>
							<stop  offset="0.6933" style="stop-color:#FDF193"/>
							<stop  offset="0.9055" style="stop-color:#B78817"/>
							<stop  offset="1" style="stop-color:#C99B14"/>
						</linearGradient>
						<circle class="st3" cx="374.7" cy="666.4" r="21"/>
						
							<linearGradient id="SVGID_4_" gradientUnits="userSpaceOnUse" x1="4816.7788" y1="563.1729" x2="4816.7788" y2="521.9387" gradientTransform="matrix(-1 0 0 -1 5191.5161 1210.6722)">
							<stop  offset="0" style="stop-color:#875017"/>
							<stop  offset="0.1072" style="stop-color:#9D6A17"/>
							<stop  offset="0.2475" style="stop-color:#B78817"/>
							<stop  offset="0.6677" style="stop-color:#FDF193"/>
							<stop  offset="0.7431" style="stop-color:#FCEF90"/>
							<stop  offset="0.8008" style="stop-color:#F8E886"/>
							<stop  offset="0.8526" style="stop-color:#F1DD76"/>
							<stop  offset="0.9009" style="stop-color:#E8CE5F"/>
							<stop  offset="0.9469" style="stop-color:#DBB941"/>
							<stop  offset="0.9905" style="stop-color:#CDA11D"/>
							<stop  offset="1" style="stop-color:#C99B14"/>
						</linearGradient>
						<circle class="st4" cx="374.7" cy="666.4" r="20.6"/>
						<linearGradient id="SVGID_5_" gradientUnits="userSpaceOnUse" x1="374.7372" y1="683.2209" x2="374.7372" y2="646.5184">
							<stop  offset="0" style="stop-color:#875017"/>
							<stop  offset="0.1072" style="stop-color:#9D6A17"/>
							<stop  offset="0.2475" style="stop-color:#B78817"/>
							<stop  offset="0.6677" style="stop-color:#FDF193"/>
							<stop  offset="0.7431" style="stop-color:#FCEF90"/>
							<stop  offset="0.8008" style="stop-color:#F8E886"/>
							<stop  offset="0.8526" style="stop-color:#F1DD76"/>
							<stop  offset="0.9009" style="stop-color:#E8CE5F"/>
							<stop  offset="0.9469" style="stop-color:#DBB941"/>
							<stop  offset="0.9905" style="stop-color:#CDA11D"/>
							<stop  offset="1" style="stop-color:#C99B14"/>
						</linearGradient>
						<circle class="st5" cx="374.7" cy="666.4" r="18.4"/>
					</g>
				</g>
			</g>
		</g>
		<g class="st6">
			<image style="overflow:visible;" width="127" height="127" xlink:href="E1C4092D.png"  transform="matrix(1 0 0 1 311 603)">
			</image>
		</g>
		<g>
			<g>
				<path class="st7" d="M367.2,671.8c0.2,0.8,0.3,1.4,0.3,2.1l8,0l8,0c0-0.7,0.1-1.3,0.3-2.1H367.2z"/>
				<path class="st7" d="M377.2,658.6c0,0.9-0.8,1.7-1.7,1.7c-0.9,0-1.7-0.8-1.7-1.7c0-0.9,0.8-1.7,1.7-1.7
					C376.5,656.9,377.2,657.7,377.2,658.6z"/>
				<path class="st7" d="M382.7,662.3c0,0.7-0.5,1.2-1.2,1.2c-0.7,0-1.2-0.5-1.2-1.2c0-0.7,0.5-1.2,1.2-1.2
					C382.1,661.1,382.7,661.7,382.7,662.3z"/>
				<circle class="st7" cx="387.2" cy="664.3" r="0.9"/>
				<circle class="st7" cx="363.8" cy="664.3" r="0.9"/>
				<path class="st7" d="M370.8,662.3c0,0.7-0.5,1.2-1.2,1.2c-0.7,0-1.2-0.5-1.2-1.2c0-0.7,0.5-1.2,1.2-1.2
					C370.2,661.1,370.8,661.7,370.8,662.3z"/>
				<g>
					<path class="st7" d="M384.5,669.5c1.1-3.1,2.6-5.3,2.6-5.3l-2.7,1.2c-1.2,0.6-2.7-0.3-2.8-1.6l-0.2-1.6l-1.6,1.5
						c-0.9,0.9-2.5,0.5-2.9-0.7l-1.5-4.4L374,663c-0.4,1.2-2,1.6-2.9,0.7l-1.6-1.5l-0.2,1.6c-0.2,1.4-1.6,2.1-2.8,1.6l-2.7-1.1
						c0,0,1.6,2.2,2.6,5.3H384.5z"/>
					<path class="st7" d="M366.7,669.8c0.1,0.6,0.2,0.8,0.3,1.1h17c0.1-0.3,0.2-0.6,0.3-1.1H366.7z"/>
				</g>
			</g>
		</g>
		<g>
			<radialGradient id="SVGID_6_" cx="395.7775" cy="666.3987" r="8.2788" gradientUnits="userSpaceOnUse">
				<stop  offset="0" style="stop-color:#FFFFFF"/>
				<stop  offset="5.213898e-02" style="stop-color:#E1E1E1"/>
				<stop  offset="0.1544" style="stop-color:#ADADAD"/>
				<stop  offset="0.2611" style="stop-color:#7F7F7F"/>
				<stop  offset="0.3699" style="stop-color:#585858"/>
				<stop  offset="0.4816" style="stop-color:#383838"/>
				<stop  offset="0.5969" style="stop-color:#1F1F1F"/>
				<stop  offset="0.7175" style="stop-color:#0E0E0E"/>
				<stop  offset="0.8468" style="stop-color:#030303"/>
				<stop  offset="1" style="stop-color:#000000"/>
			</radialGradient>
			<path class="st8" d="M404,665.9c0.3,5-3.8,9.1-8.8,8.8c-4.1-0.3-7.5-3.6-7.7-7.7c-0.3-5,3.8-9.1,8.8-8.8
				C400.4,658.4,403.8,661.7,404,665.9z"/>
			<g>
				
					<radialGradient id="SVGID_7_" cx="207.1903" cy="399.5056" r="76.375" gradientTransform="matrix(-0.4837 0.2227 3.195533e-02 6.936332e-02 483.5363 593.213)" gradientUnits="userSpaceOnUse">
					<stop  offset="0" style="stop-color:#FFC107"/>
					<stop  offset="2.610862e-03" style="stop-color:#FEC007"/>
					<stop  offset="0.1239" style="stop-color:#C39405"/>
					<stop  offset="0.2478" style="stop-color:#8F6C04"/>
					<stop  offset="0.3721" style="stop-color:#634B03"/>
					<stop  offset="0.4966" style="stop-color:#3F3002"/>
					<stop  offset="0.6213" style="stop-color:#241B01"/>
					<stop  offset="0.7463" style="stop-color:#100C00"/>
					<stop  offset="0.8722" style="stop-color:#040300"/>
					<stop  offset="1" style="stop-color:#000000"/>
				</radialGradient>
				<path class="st9" d="M366.7,679.8c1.7,3.7,16.1,0.7,32.1-6.7c16.1-7.4,27.7-16.4,26-20.1c-1.7-3.7-16.1-0.7-32.1,6.7
					C376.7,667.1,365,676.1,366.7,679.8z"/>
			</g>
		</g>
		<g>
			
				<radialGradient id="SVGID_8_" cx="-2507.7075" cy="-652.4337" r="12.8831" gradientTransform="matrix(0.9974 -7.220000e-02 -7.220000e-02 -0.9974 2814.4338 -183.5032)" gradientUnits="userSpaceOnUse">
				<stop  offset="0" style="stop-color:#E0342E"/>
				<stop  offset="7.914821e-03" style="stop-color:#D8322C"/>
				<stop  offset="6.051940e-02" style="stop-color:#A62722"/>
				<stop  offset="0.1157" style="stop-color:#791D19"/>
				<stop  offset="0.1726" style="stop-color:#541411"/>
				<stop  offset="0.2314" style="stop-color:#350D0B"/>
				<stop  offset="0.293" style="stop-color:#1E0806"/>
				<stop  offset="0.3584" style="stop-color:#0D0403"/>
				<stop  offset="0.4303" style="stop-color:#030201"/>
				<stop  offset="0.5212" style="stop-color:#000100"/>
			</radialGradient>
			<path class="st10" d="M373.2,647.4c-0.5-7.1-6.7-12.4-13.8-11.9c-7.1,0.5-12.4,6.7-11.9,13.8c0.5,7.1,6.7,12.4,13.8,11.9
				C368.4,660.6,373.7,654.5,373.2,647.4z"/>
			
				<radialGradient id="SVGID_9_" cx="-2507.7075" cy="-652.4338" r="12.883" gradientTransform="matrix(0.9974 -7.220000e-02 -7.220000e-02 -0.9974 2814.4338 -183.5032)" gradientUnits="userSpaceOnUse">
				<stop  offset="0" style="stop-color:#E0342E"/>
				<stop  offset="7.914821e-03" style="stop-color:#D8322C"/>
				<stop  offset="6.051940e-02" style="stop-color:#A62722"/>
				<stop  offset="0.1157" style="stop-color:#791D19"/>
				<stop  offset="0.1726" style="stop-color:#541411"/>
				<stop  offset="0.2314" style="stop-color:#350D0B"/>
				<stop  offset="0.293" style="stop-color:#1E0806"/>
				<stop  offset="0.3584" style="stop-color:#0D0403"/>
				<stop  offset="0.4303" style="stop-color:#030201"/>
				<stop  offset="0.5212" style="stop-color:#000100"/>
			</radialGradient>
			<path class="st11" d="M373.2,647.4c-0.5-7.1-6.7-12.4-13.8-11.9c-7.1,0.5-12.4,6.7-11.9,13.8c0.5,7.1,6.7,12.4,13.8,11.9
				C368.4,660.6,373.7,654.5,373.2,647.4z"/>
			
				<radialGradient id="SVGID_10_" cx="-262.8124" cy="-189.5522" r="7.9693" gradientTransform="matrix(0.8289 0.8224 2.1743 -2.1912 990.3408 449.081)" gradientUnits="userSpaceOnUse">
				<stop  offset="0" style="stop-color:#FFEC87;stop-opacity:0.99"/>
				<stop  offset="8.484850e-02" style="stop-color:#FFEC87"/>
				<stop  offset="0.1369" style="stop-color:#C6B769"/>
				<stop  offset="0.1914" style="stop-color:#92884D"/>
				<stop  offset="0.2468" style="stop-color:#655E36"/>
				<stop  offset="0.3021" style="stop-color:#413D22"/>
				<stop  offset="0.3572" style="stop-color:#242313"/>
				<stop  offset="0.4122" style="stop-color:#101009"/>
				<stop  offset="0.4669" style="stop-color:#040502"/>
				<stop  offset="0.5212" style="stop-color:#000100"/>
			</radialGradient>
			<path class="st12" d="M367,654.8c9.6-9.6,14.4-20.4,10.7-24c-3.6-3.6-14.4,1.3-23.9,10.9c-9.6,9.6-14.4,20.4-10.7,24
				C346.7,669.4,357.4,664.5,367,654.8z"/>
			
				<radialGradient id="SVGID_11_" cx="-2507.7075" cy="-652.4337" r="9.3289" gradientTransform="matrix(0.9974 -7.220000e-02 -7.220000e-02 -0.9974 2814.4338 -183.5032)" gradientUnits="userSpaceOnUse">
				<stop  offset="0" style="stop-color:#FFFFFF"/>
				<stop  offset="3.438386e-02" style="stop-color:#D8D8D8"/>
				<stop  offset="8.427510e-02" style="stop-color:#A6A6A6"/>
				<stop  offset="0.1366" style="stop-color:#797A79"/>
				<stop  offset="0.1905" style="stop-color:#545554"/>
				<stop  offset="0.2464" style="stop-color:#353635"/>
				<stop  offset="0.3048" style="stop-color:#1E1F1E"/>
				<stop  offset="0.3668" style="stop-color:#0D0E0D"/>
				<stop  offset="0.435" style="stop-color:#030403"/>
				<stop  offset="0.5212" style="stop-color:#000100"/>
			</radialGradient>
			<path class="st13" d="M369.7,647.6c-0.4-5.1-4.8-9-10-8.6c-5.1,0.4-9,4.8-8.6,10c0.4,5.1,4.8,9,10,8.6
				C366.2,657.2,370,652.8,369.7,647.6z"/>
		</g>
		<g class="st14">
			<image style="overflow:visible;" width="177" height="177" xlink:href="E1C40933.png"  transform="matrix(1 0 0 1 286 578)">
			</image>
		</g>
	</g>
	<g>
		<path class="st15" d="M359,726.9l2.9-6.8v-0.3l-2.9-6.5h2.8l2,5.2l2-5.2h2.8l-2.9,6.5v0.3l2.9,6.8h-2.9l-1.7-5.3l-1.9,5.3H359z"/>
		<path class="st15" d="M371.7,726.9v-15h-2.2v-2c1.5-0.5,2.5-1.2,2.9-2h2.2v19.1H371.7z"/>
		<path class="st15" d="M382.4,727.1c-1.1,0-2.1-0.2-2.9-0.7c-0.8-0.5-1.4-1.2-1.7-2s-0.6-1.8-0.6-2.9v-8.2c0-1.8,0.4-3.1,1.3-4.1
			c0.9-1,2.1-1.5,3.9-1.5c1.7,0,3,0.5,3.9,1.5c0.9,1,1.3,2.4,1.3,4.1v8.2c0,1.7-0.4,3.1-1.3,4.1
			C385.3,726.6,384.1,727.1,382.4,727.1z M382.4,724.9c1.5,0,2.2-1.1,2.2-3.4v-8.2c0-0.4,0-0.7,0-1c0-0.3-0.1-0.6-0.2-0.9
			s-0.2-0.6-0.4-0.8s-0.4-0.4-0.6-0.5s-0.6-0.2-1-0.2s-0.7,0.1-1,0.2s-0.5,0.3-0.6,0.5s-0.3,0.5-0.4,0.8s-0.2,0.6-0.2,0.9
			c0,0.3,0,0.6,0,1v8.2c0,0.4,0,0.9,0.1,1.2c0.1,0.4,0.2,0.7,0.3,1.1s0.4,0.6,0.7,0.8C381.6,724.8,381.9,724.9,382.4,724.9z"/>
	</g>
</g>
<g>
</g>
<g>
</g>
<g>
</g>
<g>
</g>
<g>
</g>
<g>
</g>
<g>
</g>
<g>
</g>
<g>
</g>
<g>
</g>
<g>
</g>
</svg>
